<svg xmlns="http://www.w3.org/2000/svg" width="11.464" height="16" viewBox="0 0 11.464 16">
  <g id="Group_19" data-name="Group 19" transform="translate(116.881 102.24)">
    <path id="Path_48" data-name="Path 48" d="M-111.118-102.24c.373.244.745.49,1.121.73a.229.229,0,0,0,.135.007c.382-.045.765-.091,1.147-.142a.176.176,0,0,1,.2.1q.292.49.6.97a.37.37,0,0,0,.173.138q.542.2,1.092.374a.159.159,0,0,1,.132.16q.053.591.125,1.18a.319.319,0,0,0,.091.169q.407.411.825.811a.161.161,0,0,1,.045.2c-.133.355-.265.712-.386,1.071a.42.42,0,0,0,0,.25c.121.36.252.716.385,1.072a.161.161,0,0,1-.045.2q-.418.4-.822.813a.369.369,0,0,0-.1.2c-.048.387-.081.777-.132,1.164a.22.22,0,0,1-.125.143c-.361.132-.728.249-1.09.38a.369.369,0,0,0-.173.138q-.3.473-.591.956a.186.186,0,0,1-.22.112c-.37-.056-.743-.1-1.116-.133a.428.428,0,0,0-.245.06c-.325.2-.644.4-.962.612a.153.153,0,0,1-.2,0c-.318-.208-.637-.414-.962-.612a.428.428,0,0,0-.245-.058q-.567.054-1.132.134a.167.167,0,0,1-.2-.1c-.19-.317-.381-.633-.584-.942a.479.479,0,0,0-.217-.178c-.346-.129-.7-.246-1.048-.357a.189.189,0,0,1-.15-.2c-.033-.384-.076-.767-.123-1.149a.321.321,0,0,0-.092-.168q-.406-.411-.823-.812a.161.161,0,0,1-.045-.2c.136-.36.267-.722.392-1.086a.367.367,0,0,0,0-.221c-.124-.364-.256-.726-.391-1.086a.161.161,0,0,1,.045-.2c.272-.259.541-.52.8-.789a.449.449,0,0,0,.116-.237c.05-.382.09-.765.124-1.149.008-.094.058-.119.132-.143.355-.119.711-.236,1.061-.367a.479.479,0,0,0,.218-.175c.2-.3.391-.615.575-.929a.2.2,0,0,1,.224-.114c.366.05.733.1,1.1.133a.421.421,0,0,0,.245-.049c.338-.205.669-.422,1-.635a.211.211,0,0,0,.039-.045Zm-4.075,5.9a4.043,4.043,0,0,0,4.042,4.045,4.042,4.042,0,0,0,4.045-4.042,4.05,4.05,0,0,0-4.041-4.049A4.051,4.051,0,0,0-115.192-96.342Z" fill="gold"/>
    <path id="Path_49" data-name="Path 49" d="M-106.844,159.7c-.09-.07-.18-.139-.268-.209-.46-.367-.922-.731-1.376-1.1a.444.444,0,0,0-.341-.1c-.639.043-1.278.076-1.917.113-.051,0-.1,0-.179,0l1.27-3.97a.515.515,0,0,1,.409.259c.218.384.462.754.69,1.133a.169.169,0,0,0,.2.1q.688-.095,1.379-.165a.453.453,0,0,1,.26.059c.286.17.563.355.844.533.061.038.1.068.071.159-.342,1.053-.677,2.108-1.015,3.162A.211.211,0,0,1-106.844,159.7Z" transform="translate(-5.707 -245.945)" fill="gold"/>
    <path id="Path_50" data-name="Path 50" d="M33.542,158.454c-.059,0-.1,0-.14,0-.65-.036-1.3-.069-1.948-.112a.462.462,0,0,0-.354.108c-.5.409-1.006.808-1.511,1.211-.04.032-.081.062-.14.106l-1.056-3.3c.345-.221.684-.443,1.03-.652a.374.374,0,0,1,.213-.008c.449.052.9.1,1.347.167a.159.159,0,0,0,.185-.092c.223-.369.461-.73.674-1.106a.526.526,0,0,1,.43-.289Z" transform="translate(-139.208 -246.006)" fill="gold"/>
    <path id="Path_51" data-name="Path 51" d="M-47.764-32.31a3.1,3.1,0,0,1-3.118,3.1,3.1,3.1,0,0,1-3.091-3.111,3.113,3.113,0,0,1,3.1-3.1A3.111,3.111,0,0,1-47.764-32.31Z" transform="translate(-60.281 -64.025)" fill="gold"/>
  </g>
</svg>
