<svg xmlns="http://www.w3.org/2000/svg" width="13.109" height="11.786" viewBox="0 0 13.109 11.786">
  <path id="Path" d="M8.745,0A3.072,3.072,0,0,0,7.073.5a3.184,3.184,0,0,0-1.152,1.34A3.164,3.164,0,0,0,4.469.373,3.05,3.05,0,0,0,2.447.136,3.111,3.111,0,0,0,.711,1.231,3.261,3.261,0,0,0,0,3.19c0,2.534,3.593,5.791,5.2,7.123a1.187,1.187,0,0,0,1.514,0c1.605-1.352,5.2-4.589,5.2-7.123A3.291,3.291,0,0,0,11.66,1.96,3.232,3.232,0,0,0,10.971.921,3.121,3.121,0,0,0,9.947.233,3.064,3.064,0,0,0,8.745,0Z" transform="translate(0.6 0.6)" fill="#c6195c" stroke="#e30a90" stroke-linecap="round" stroke-linejoin="round" stroke-miterlimit="10" stroke-width="1.2"/>
</svg>
