<svg id="Group_9" data-name="Group 9" xmlns="http://www.w3.org/2000/svg" width="112.483" height="126.93" viewBox="0 0 112.483 126.93">
  <path id="Path_33" data-name="Path 33" d="M1145.287,49.626c.993,10.3,4.129,14.969,9.84,14.9,5.529-.072,8.3-4.247,9.781-14.942h52.25c1.866,10.9,4.514,14.847,9.908,14.94,5.57.1,8.562-4.293,9.91-14.542,7.525-1.416,9.893.353,9.9,7.75q.064,47.606,0,95.212c-.008,7.009-1.629,8.524-8.811,8.527q-47.333.02-94.665,0c-7.485,0-8.959-1.446-8.965-8.919q-.036-46.785-.005-93.57C1134.437,50.354,1135.985,48.978,1145.287,49.626Zm92.494,24.582h-94.208v78.1h94.208Z" transform="translate(-1134.426 -34.547)" fill="#888"/>
  <path id="Path_34" data-name="Path 34" d="M1181.4,12.391c0-2.186-.158-4.387.036-6.556C1181.79,1.85,1184-.7,1188.087-.694c3.854,0,6.117,2.5,6.35,6.209a119.565,119.565,0,0,1,.027,14.2c-.21,3.73-2.475,6.183-6.323,6.23-4.1.05-6.341-2.464-6.707-6.451C1181.22,17.145,1181.4,14.76,1181.4,12.391Z" transform="translate(-1167.364 0.694)" fill="#888"/>
  <path id="Path_35" data-name="Path 35" d="M1436.894,12.685c0,2.549.817,5.514-.213,7.541-1.207,2.375-3.783,5.074-6.195,5.577-3.55.742-6.223-1.943-6.44-5.784-.267-4.722-.224-9.475-.05-14.2.15-4.07,2.513-6.516,6.594-6.478,3.841.036,5.962,2.5,6.305,6.247.215,2.349.04,4.733.04,7.1Z" transform="translate(-1337.687 0.673)" fill="#888"/>
  <path id="Path_36" data-name="Path 36" d="M1210.382,318.751V332.7h-13.655a6.555,6.555,0,0,1-.578-1.766C1196.5,316.554,1192.549,317.791,1210.382,318.751Z" transform="translate(-1177.672 -223.277)" fill="#888" opacity="0.2"/>
  <path id="Path_37" data-name="Path 37" d="M1210.314,241.225V255.4a101.341,101.341,0,0,1-11.35-.16c-1.1-.126-2.68-2.079-2.828-3.337a94.31,94.31,0,0,1-.135-10.673Z" transform="translate(-1177.609 -169.201)" fill="#888" opacity="0.2"/>
  <path id="Path_38" data-name="Path 38" d="M1300.161,240.8h13.87v13.967h-13.87Z" transform="translate(-1250.818 -168.9)" fill="#888" opacity="0.2"/>
  <path id="Path_39" data-name="Path 39" d="M1402.3,254.631V240.7h13.494c.33.534.675.832.672,1.127C1416.317,256.92,1419.952,255.435,1402.3,254.631Z" transform="translate(-1322.547 -168.835)" fill="#888" opacity="0.2"/>
  <path id="Path_40" data-name="Path 40" d="M1299.805,318.454h13.87v13.967h-13.87Z" transform="translate(-1250.569 -223.437)" fill="#888" opacity="0.2"/>
  <path id="Path_41" data-name="Path 41" d="M1401.942,332.289V318.362h13.494c.33.534.675.832.672,1.127C1415.961,334.578,1419.6,333.093,1401.942,332.289Z" transform="translate(-1322.297 -223.373)" fill="#888" opacity="0.2"/>
  <path id="Path_42" data-name="Path 42" d="M1402.144,173.662V160.074a6.162,6.162,0,0,1,1.726-.576c14.141.429,13.207-3.856,12.187,14.165Z" transform="translate(-1322.439 -111.695)" fill="#888" opacity="0.2"/>
  <path id="Path_43" data-name="Path 43" d="M1313.7,174.723h-13.9v-14h13.9Z" transform="translate(-1250.569 -112.665)" fill="#888" opacity="0.2"/>
  <path id="Path_44" data-name="Path 44" d="M1210.469,159.932v13.736H1196.65a4.751,4.751,0,0,1-.512-1.5C1196.537,157.981,1192.4,158.964,1210.469,159.932Z" transform="translate(-1177.663 -111.765)" fill="#888"/>
</svg>
