<svg id="Group_11" data-name="Group 11" xmlns="http://www.w3.org/2000/svg" width="236.201" height="212.166" viewBox="0 0 236.201 212.166">
  <path id="Path_40" data-name="Path 40" d="M1087.18,217.716c18.9-27,21.94-54.951,3.649-82.289-19.606-29.3-48.114-36.754-81.765-27.453v-2.7q0-37.853,0-75.706c0-4.832,1.514-6.35,6.409-6.351q62.761-.021,125.521-.017c4.807,0,6.356,1.574,6.356,6.458q0,90.9-.02,181.808c0,4.7-1.549,6.261-6.226,6.262q-25.611.009-51.221-.011Zm-8.754-164.185q-23.63,0-47.26,0c-1.031,0-2.066-.021-3.093.05-2.19.152-3.582,1.364-3.611,3.537-.031,2.3,1.385,3.582,3.692,3.781.652.056,1.312.034,1.968.034q47.964,0,95.927-.007c1.027,0,2.362.275,3.013-.249,1.173-.945,2.609-2.37,2.665-3.65.047-1.073-1.561-2.449-2.734-3.26-.719-.5-2-.23-3.026-.23Q1102.2,53.524,1078.426,53.531Zm-.314,21.617q-23.772,0-47.544,0a25.142,25.142,0,0,0-2.811.049,3.417,3.417,0,0,0-3.3,3.554,3.469,3.469,0,0,0,3.183,3.674,14.133,14.133,0,0,0,2.526.072q48.107.005,96.213,0a11.328,11.328,0,0,0,2.523-.09,3.483,3.483,0,0,0,3-3.822,3.364,3.364,0,0,0-3.161-3.368,20.2,20.2,0,0,0-2.809-.068Q1102.024,75.148,1078.112,75.148Zm32.044,25.5c5.708,0,11.416.018,17.123-.007,3-.014,4.674-1.349,4.669-3.623s-1.722-3.7-4.661-3.71q-17.264-.036-34.527.006c-2.9.006-4.688,1.468-4.688,3.691,0,2.262,1.708,3.626,4.68,3.639C1098.554,100.671,1104.355,100.654,1110.156,100.651Z" transform="translate(-911.149 -23.198)" fill="#888"/>
  <path id="Path_41" data-name="Path 41" d="M1004.2,304.044a61.749,61.749,0,0,1-62.085-61.409c-.2-34.129,27.083-62.027,60.894-62.265,34.769-.244,62.7,27.088,62.854,61.5A61.856,61.856,0,0,1,1004.2,304.044Zm3.378-65.542V235.29c0-8.617.011-17.234-.008-25.851-.006-2.947-1.426-4.687-3.683-4.637-2.182.048-3.64,1.91-3.645,4.768q-.025,15.594-.006,31.189c.006,3.943,1.187,5.08,5.252,5.088q13.487.024,26.975.008a13.309,13.309,0,0,0,1.683-.042,3.391,3.391,0,0,0,3.306-3.521,3.46,3.46,0,0,0-3.108-3.724,13.49,13.49,0,0,0-2.523-.065C1023.874,238.5,1015.928,238.5,1007.576,238.5Z" transform="translate(-881.892 -91.879)" fill="#888"/>
  <path id="Path_42" data-name="Path 42" d="M886.517,338.407c4.595,0,9.19-.03,13.785.007,2.789.024,4.435,1.385,4.478,3.57.046,2.325-1.67,3.823-4.527,3.829q-13.785.029-27.57-.007c-2.749-.008-4.406-1.4-4.462-3.6-.062-2.41,1.514-3.768,4.512-3.786C877.326,338.389,881.921,338.41,886.517,338.407Z" transform="translate(-849.602 -160.935)" fill="#888"/>
  <path id="Path_43" data-name="Path 43" d="M853.225,290.968c-4.594,0-9.189.03-13.783-.01-2.759-.024-4.312-1.423-4.289-3.719s1.546-3.654,4.364-3.663q13.924-.046,27.848,0c2.687.01,4.365,1.527,4.342,3.734s-1.672,3.619-4.418,3.644C862.6,291,857.913,290.966,853.225,290.968Z" transform="translate(-835.153 -136.969)" fill="#888"/>
  <path id="Path_44" data-name="Path 44" d="M886.529,236.152c-4.6,0-9.191.032-13.786-.011-3.013-.029-4.6-1.408-4.525-3.778.074-2.3,1.761-3.643,4.709-3.648q13.5-.025,27.01,0c3.1.006,4.908,1.477,4.843,3.825-.063,2.3-1.677,3.588-4.746,3.621-4.5.048-9,.013-13.5.013Z" transform="translate(-849.601 -112.999)" fill="#888"/>
</svg>
