<svg id="Group_10" data-name="Group 10" xmlns="http://www.w3.org/2000/svg" width="344.786" height="170.984" viewBox="0 0 344.786 170.984">
  <path id="Path_28" data-name="Path 28" d="M732.211,362.506c2-7.424,3.561-15,6.081-22.242a76.513,76.513,0,0,1,35.9-42.548c-25.368-28.6-27.107-56.193-4.86-77.126a49.849,49.849,0,0,1,69.652,1.091c16.308,16.3,23.976,50.65-6.169,75.782,27.113,16.06,39.7,40.7,41.944,71.352.587,8.047-.523,9.06-8.387,9.064-41.968.024-83.935.077-125.9-.052-2.755-.008-5.5-1.46-8.257-2.24Zm73.229-38.048,20.692-21.806c-15.619,5.665-30.667,5.474-46.081-.767Z" transform="translate(-732.211 -206.943)" fill="#888"/>
  <path id="Path_29" data-name="Path 29" d="M1044.875,375.586c-2.556.778-5.111,2.226-7.67,2.234q-63.6.21-127.194.092c-6.909,0-7.893-1.071-7.76-7.967.584-30.285,17.355-59.089,42.51-72.373-14.631-11.666-22.283-26.615-20.766-45.343,1.106-13.646,7.315-25,17.8-33.807,20.194-16.961,50.718-14.808,68.244,4.382,18.124,19.849,19.527,52.91-7.32,74.627,24.221,13.863,36.746,35.427,41.183,62.321a16.238,16.238,0,0,0,.975,2.754Zm-69.846-50.723c2.935-3.075,6.747-7.065,10.555-11.057s7.6-7.974,11.4-11.962c-15.876,6.626-31.188,6.35-46.565-.97l-.791,1.626C957.91,309.793,966.2,317.086,975.029,324.863Z" transform="translate(-700.089 -206.943)" fill="#888"/>
  <path id="Path_30" data-name="Path 30" d="M903.236,254.841c-3.1-2.745-6.314-5.372-9.266-8.269-2.624-2.575-3.27-6.226-.194-8.211,1.984-1.28,6.546-1.333,8.185.094,6.992,6.092,13.368,12.9,19.882,19.53,2.788,2.837,3,6.024.138,8.93-6.66,6.763-13.226,13.651-20.331,19.92-1.527,1.347-5.8,1.3-7.7.122-3.2-1.991-2.694-5.646-.119-8.2,2.928-2.9,6.312-5.341,9.5-7.98l-1.1-1.913c-1.826-.117-3.652-.332-5.48-.334q-21.361-.025-42.724.013c-1.581,0-3.592.535-4.656-.225-2.3-1.641-5.519-3.781-5.808-6.042-.5-3.908,2.883-5.571,6.763-5.566q18.988.021,37.978-.011,7.012,0,14.027,0Z" transform="translate(-711.185 -201.191)" fill="#888"/>
  <path id="Path_31" data-name="Path 31" d="M863.726,310.914c3.107,2.649,6.346,5.159,9.281,7.986,2.837,2.735,3.485,6.54.12,8.664-1.938,1.223-6.489.909-8.215-.6-6.84-5.978-13.061-12.67-19.447-19.161-3.059-3.11-2.874-6.342.152-9.391,6.413-6.463,12.816-12.938,19.323-19.306,2.573-2.519,5.635-3.16,8.435-.424,3.058,2.985,2.249,6.214-.509,8.847-2.829,2.7-6.005,5.03-9.03,7.522l1.13,1.72c1.652.138,3.3.394,4.956.4q21.085.048,42.168.018c1.386,0,2.773-.019,4.158.01,4.184.086,7.817,1.352,7.643,6.241-.16,4.491-3.6,5.612-7.595,5.6-15.244-.033-30.487-.01-45.731-.007H864.9Z" transform="translate(-711.233 -193.726)" fill="#888"/>
</svg>
