<svg xmlns="http://www.w3.org/2000/svg" width="105.007" height="135.043" viewBox="0 0 105.007 135.043">
  <g id="Group_22" data-name="Group 22" transform="translate(-767.868 -58.642)">
    <path id="Path_80" data-name="Path 80" d="M855.455,226.663H785.29a9.094,9.094,0,0,0-.981-.277,19.734,19.734,0,0,1-16.4-19.073q-.083-41.724.007-83.448a18.837,18.837,0,0,1,5.943-13.649,8.643,8.643,0,0,1,.893-.663c0,1.614-.029,3.018,0,4.421.239,10.124,8.809,18.931,18.925,19.013q26.7.216,53.4,0c9.272-.068,17.5-7.625,18.668-16.8.274-2.147.26-4.33.385-6.626.379.331.685.564.951.836a19.027,19.027,0,0,1,5.757,13.6q.068,41.592.006,83.184a19.649,19.649,0,0,1-14.362,18.71C857.479,226.173,856.464,226.407,855.455,226.663ZM794,194.438c.7.971,1.277,1.789,1.873,2.594,1.522,2.054,3.864,2.51,5.742,1.127,1.828-1.346,2.119-3.671.692-5.726-.926-1.333-1.855-2.666-2.842-3.953a1.184,1.184,0,0,1-.026-1.719c1.029-1.31,1.976-2.685,2.918-4.061a3.937,3.937,0,0,0-.813-5.7,3.979,3.979,0,0,0-5.65,1.149c-.613.829-1.218,1.664-1.907,2.607-.726-1-1.325-1.86-1.953-2.694a3.956,3.956,0,1,0-6.412,4.622c.971,1.409,2.035,2.755,2.952,4.2a1.633,1.633,0,0,1,0,1.444c-.941,1.478-2.035,2.858-3.02,4.31a3.943,3.943,0,1,0,6.383,4.631C792.61,196.4,793.228,195.5,794,194.438Zm-.213-38.286c-.583-1.138-1.034-2.082-1.54-3a3.936,3.936,0,0,0-7.052,3.5c1.359,2.847,2.76,5.676,4.244,8.459a3.848,3.848,0,0,0,6.491.777c3.574-4.16,7.058-8.4,10.561-12.616a3.948,3.948,0,0,0-2.176-6.415,3.857,3.857,0,0,0-3.979,1.459C798.191,150.869,796.061,153.429,793.785,156.153Zm46.628-3.079c-3.687,0-7.373-.006-11.06,0-2.681.006-4.476,1.582-4.492,3.922s1.8,3.982,4.438,3.985q11.126.01,22.252,0c2.641,0,4.449-1.649,4.426-4-.022-2.3-1.791-3.9-4.372-3.909C847.874,153.064,844.143,153.074,840.413,153.073Zm-.036,38.8q5.6,0,11.191,0c2.606,0,4.364-1.551,4.41-3.858.047-2.331-1.777-4.041-4.39-4.046q-11.191-.022-22.383,0a4.029,4.029,0,0,0-4.343,3.959c-.006,2.317,1.757,3.937,4.324,3.944C832.916,191.878,836.646,191.871,840.377,191.871Z" transform="translate(0 -32.977)" fill="#888"/>
    <path id="Path_81" data-name="Path 81" d="M847.527,92.149q-12.526,0-25.052,0c-7.688,0-12.688-5-12.658-12.726a90.329,90.329,0,0,1,.286-11.047,11.366,11.366,0,0,1,11.185-9.687q26.238-.095,52.476,0c5.549.02,10.583,4.189,11.161,9.687a66.1,66.1,0,0,1,.039,13.79c-.624,5.887-5.667,9.94-11.6,9.97C864.756,92.181,856.141,92.148,847.527,92.149Z" transform="translate(-27.154)" fill="#888"/>
  </g>
</svg>
