<svg xmlns="http://www.w3.org/2000/svg" width="144.687" height="207.517" viewBox="0 0 144.687 207.517">
  <g id="Group_9" data-name="Group 9" transform="translate(0 0)">
    <path id="Path_26" data-name="Path 26" d="M901.124,306.3c-2.12,4.617-5.782,5.944-10.725,5.93-43.565-.125-87.13-.073-130.695-.073h-3.267V104.71h80.791v2.741q0,25.819,0,51.639c0,6.209,3.1,9.3,9.326,9.3q27.283.01,54.567,0ZM820.7,184.365q-19.943,0-39.888-.006c-3.642,0-6.37,1.541-7.864,4.852-2.46,5.452,1.635,11.111,8.03,11.117q39.755.034,79.51,0c5.122,0,8.722-3.4,8.671-8.063s-3.646-7.89-8.838-7.9Q840.516,184.346,820.7,184.365Zm.309,31.947q-20.076,0-40.154.009c-4.954.009-8.528,3.342-8.582,7.882-.055,4.641,3.567,8.047,8.662,8.074,5.761.031,11.523.007,17.285.007q30.98,0,61.96.018c3.71.007,6.607-1.283,8.221-4.712,2.562-5.442-1.434-11.247-7.77-11.266C847.43,216.284,834.222,216.313,821.014,216.313Zm-.593,47.919c13.473,0,26.947.028,40.42-.016a7.977,7.977,0,0,0,8.323-7.871c.06-4.561-3.5-8.017-8.387-8.076-3.545-.044-7.091-.009-10.637-.009q-34.436,0-68.874-.02c-3.716-.006-6.606,1.289-8.229,4.7-2.578,5.427,1.425,11.253,7.761,11.275C794.007,264.264,807.214,264.233,820.422,264.232ZM796.8,152.418c-5.4,0-10.8-.04-16.206.012-4.731.046-8.258,3.431-8.318,7.864-.062,4.534,3.514,8.061,8.369,8.081q16.073.067,32.146,0c4.92-.018,8.466-3.439,8.451-8s-3.572-7.916-8.5-7.951C807.429,152.388,802.116,152.418,796.8,152.418Z" transform="translate(-756.437 -104.71)" fill="#888"/>
    <path id="Path_27" data-name="Path 27" d="M934.645,154.627H892.7V112.692Z" transform="translate(-795.773 -107.014)" fill="#888"/>
  </g>
</svg>
