<svg id="Group_14" data-name="Group 14" xmlns="http://www.w3.org/2000/svg" width="138.66" height="141.105" viewBox="0 0 138.66 141.105">
  <path id="Path_68" data-name="Path 68" d="M876.354-11.188c-1.545-.749-2.952-1.287-4.212-2.063Q841.728-31.992,811.354-50.8c-6.122-3.8-6.036-7.529.3-11,19.955-10.931,39.975-21.742,59.915-32.7a8.508,8.508,0,0,1,8.981.1c19.968,10.9,40,21.689,59.98,32.56,6.54,3.558,6.612,7.239.2,11.248q-29.9,18.7-59.879,37.279A43.09,43.09,0,0,1,876.354-11.188Z" transform="translate(-806.832 95.735)" fill="#888"/>
  <path id="Path_69" data-name="Path 69" d="M877.034,287.5a33.329,33.329,0,0,1-4.249-1.859q-30.8-18.98-61.528-38.062c-5.563-3.465-5.049-6.844.363-10.65,7.218-5.075,13.194-5.492,20.886.091,11.751,8.529,24.7,15.395,36.943,23.266,5.142,3.3,9.593,3.275,14.71,0,14.3-9.164,28.816-17.989,43.155-27.092,2.337-1.483,4.143-1.822,6.533-.242,2.646,1.748,5.629,2.979,8.339,4.64,4.706,2.883,4.85,6.481.336,9.591-3.367,2.32-6.923,4.367-10.4,6.531q-25.1,15.636-50.215,31.254C880.389,285.905,878.73,286.624,877.034,287.5Z" transform="translate(-807.189 -146.395)" fill="#888"/>
  <path id="Path_70" data-name="Path 70" d="M820.765,120.851c1.449.84,2.771,1.564,4.05,2.354,14.975,9.253,29.989,18.443,44.887,27.82,4.671,2.94,8.86,2.939,13.53-.022,14.995-9.508,30.148-18.764,45.152-28.258,2.358-1.492,4.185-1.779,6.532-.147,2.1,1.463,4.545,2.433,6.753,3.759,4.924,2.958,5.112,6.713.329,9.83-6.226,4.059-12.605,7.881-18.916,11.81-14.041,8.741-28.126,17.41-42.085,26.28-3.282,2.085-5.923,1.979-9.174-.051-20.078-12.537-40.263-24.9-60.384-37.369-6.293-3.9-6.094-7.56.522-11.244C814.866,124,817.808,122.448,820.765,120.851Z" transform="translate(-806.849 -64.323)" fill="#888"/>
</svg>
