<svg id="Group_1" data-name="Group 1" xmlns="http://www.w3.org/2000/svg" width="143.232" height="153.296" viewBox="0 0 143.232 153.296">
  <path id="Path_1" data-name="Path 1" d="M861.142,385.522a14.67,14.67,0,0,1-.287-2.055c-.017-12.331-.043-24.662,0-36.993.019-5.489,2-10.02,6.88-12.96a12.492,12.492,0,0,1,6.613-1.55c11.984-.009,23.969.073,35.952-.031,8.129-.07,12.869,6.1,13.4,12.567.186,2.283.1,4.59.1,6.885q.013,15.875,0,31.75c0,.8-.026,1.591-.04,2.387Z" transform="translate(-780.587 -232.225)" fill="#888"/>
  <path id="Path_2" data-name="Path 2" d="M670.087,92.861v106.2H733.43v8.64H661.405V84.139H775.987V124.5H767.41V92.861Z" transform="translate(-661.405 -84.139)" fill="#888"/>
  <path id="Path_3" data-name="Path 3" d="M927.669,227.624c.348,12.852-10.224,23.67-23.449,23.994a23.808,23.808,0,1,1-.586-47.612C916.578,203.725,927.309,214.269,927.669,227.624Z" transform="translate(-792.096 -155.771)" fill="#888"/>
  <path id="Path_4" data-name="Path 4" d="M713.987,164.5v-8.971h72.2V164.5Z" transform="translate(-692.829 -126.801)" fill="#888"/>
  <path id="Path_5" data-name="Path 5" d="M713.911,306.585v-9.1h1.638q29.563,0,59.126-.026a2.2,2.2,0,0,1,2.215,1.284c1.085,1.893,2.339,3.689,3.478,5.453a19.226,19.226,0,0,1-10.2,2.454c-18.061-.144-36.124-.066-54.186-.066Z" transform="translate(-692.784 -211.624)" fill="#888"/>
  <path id="Path_6" data-name="Path 6" d="M714,235.67v-9.088h62.046c-.915,2.879-1.816,5.75-2.759,8.608-.068.207-.414.382-.664.454a3.333,3.333,0,0,1-.893.026H714Z" transform="translate(-692.839 -169.266)" fill="#888"/>
</svg>
