<svg id="Group_2" data-name="Group 2" xmlns="http://www.w3.org/2000/svg" width="217.082" height="228.898" viewBox="0 0 217.082 228.898">
  <path id="Path_7" data-name="Path 7" d="M505.925,109.883c-.36,17.825-6.973,31.816-19.031,43.284a59.882,59.882,0,0,1-30.8,15.885,49.224,49.224,0,0,1-29.571-3.648c-16.074-7.132-27.988-18.585-34.59-34.988-6.263-15.559-5.055-31.068,2.53-45.821,9.676-18.821,25.342-29.724,46.392-32.07a58.587,58.587,0,0,1,64.276,49.618C505.575,105.04,505.735,107.982,505.925,109.883Z" transform="translate(-338.424 -52.16)" fill="#888"/>
  <path id="Path_8" data-name="Path 8" d="M632.065,422.1h-102.3l34.794-108.653c19.668,9.146,36.077,22.021,48.093,40.093C626.433,374.267,632.443,397.228,632.065,422.1Z" transform="translate(-415 -193.206)" fill="#888"/>
  <path id="Path_9" data-name="Path 9" d="M347.893,313.445l34.781,108.612H280.41a118.208,118.208,0,0,1,14.076-59.727C306.575,339.923,324.858,324.2,347.893,313.445Z" transform="translate(-280.378 -193.203)" fill="#888"/>
  <path id="Path_10" data-name="Path 10" d="M500.971,399.851c-.6-1.848-1.075-3.294-1.539-4.743-2.935-9.171-5.818-18.359-8.818-27.508-2.438-7.434-2.508-15.01-1.8-22.686.589-6.349,1.022-12.713,1.519-19.071.226-2.9,1.42-4.02,4.334-4.024q6.583-.01,13.166,0c2.807.006,4.023,1.156,4.244,3.976q.919,11.7,1.835,23.4a46.779,46.779,0,0,1-2.242,18.464q-5.011,15.127-10,30.263C501.51,398.437,501.308,398.939,500.971,399.851Z" transform="translate(-392.683 -197.72)" fill="#888"/>
</svg>
