<svg id="Group_19" data-name="Group 19" xmlns="http://www.w3.org/2000/svg" width="144.75" height="144.757" viewBox="0 0 144.75 144.757">
  <path id="Path_50" data-name="Path 50" d="M618.528,146.923a4.337,4.337,0,0,1,4.337-3.052c.519,1.506.983,3.027,1.561,4.5,4.967,12.693,11.808,24.174,21.935,33.475a30.471,30.471,0,0,0,12.976,7.443c5.372,1.391,10.352.21,15.08-2.408,5.962-3.3,10.647-8.053,14.791-13.355a90.876,90.876,0,0,0,15.416-28.845c.082-.263.183-.519.265-.749,2.6-.022,4.209,1.41,4.376,3.841.026.375.013.753.013,1.13q0,38.012,0,76.025c0,.33.008.66-.01.989a4.065,4.065,0,0,1-4.361,4.159c-12.953.008-25.907.022-38.86-.025-1.259,0-1.844.265-2.242,1.577a16.191,16.191,0,0,1-31.029-.29,1.445,1.445,0,0,0-1.73-1.278c-2.4.062-4.812-.1-7.2.054-2.591.171-4.362-.749-5.314-3.179Zm22.054,79.864a7.77,7.77,0,1,0,7.854-7.76A7.8,7.8,0,0,0,640.582,226.787Z" transform="translate(-618.528 -98.293)" fill="#888"/>
  <path id="Path_51" data-name="Path 51" d="M695.275-17.021a80.36,80.36,0,0,1,9,2.227,33.788,33.788,0,0,1,22.051,34.56c-.5,6.077-2.657,11.718-5.293,17.166-4.241,8.764-9.565,16.768-16.926,23.244a39.927,39.927,0,0,1-6.114,4.269c-3.807,2.248-7.689,2.073-11.548-.034a41.958,41.958,0,0,1-12.419-10.953c-7.012-8.712-12.449-18.279-15.019-29.257-4.351-18.593,8.413-37.545,27.289-40.678,1.016-.169,2.029-.362,3.043-.544ZM692.288,3.587a13.587,13.587,0,1,0,13.62,13.533A13.607,13.607,0,0,0,692.288,3.587Z" transform="translate(-646.927 17.021)" fill="#888"/>
  <path id="Path_52" data-name="Path 52" d="M994.7,215.244H981.109c-3.291,0-5.227,1.552-5.248,4.2-.021,2.712,1.918,4.277,5.311,4.278q8.9,0,17.809,0c8.221.009,13.884,5.623,13.9,13.82.021,8.056.008,16.113,0,24.17,0,3.31-1.654,5.047-4.925,4.94-1.571-.051-2.272.31-2.8,1.979A16.009,16.009,0,0,1,989.3,279.685a16.212,16.212,0,0,1-15.062-11.8c-.274-.986-.665-1.319-1.624-1.2a9.834,9.834,0,0,1-1.694,0,4.254,4.254,0,0,1-4.095-4.076c-.013-.235-.008-.471-.008-.706q0-31.1,0-62.192c0-2.6,1.284-4.354,3.563-4.674a6.221,6.221,0,0,1,2.484.29,30.862,30.862,0,0,1,17.668,13.057C991.956,210.528,993.214,212.783,994.7,215.244Zm-12.62,48.166a7.77,7.77,0,1,0,7.867-7.739A7.783,7.783,0,0,0,982.082,263.411Z" transform="translate(-868.148 -134.937)" fill="#888"/>
  <path id="Path_53" data-name="Path 53" d="M765.787,85.66a5.106,5.106,0,1,1-5.21,5.018A5.1,5.1,0,0,1,765.787,85.66Z" transform="translate(-720.335 -56.571)" fill="#888"/>
</svg>
