<svg xmlns="http://www.w3.org/2000/svg" width="132.534" height="124.157" viewBox="0 0 132.534 124.157">
  <g id="Group_21" data-name="Group 21" transform="translate(-888.428 388.644)">
    <path id="Path_71" data-name="Path 71" d="M988.16-331.065v-.765q0-22.167,0-44.334a3.88,3.88,0,0,0-1.185-2.983,3.781,3.781,0,0,0-2.711-1.037q-7.923.007-15.846,0H924.785v.689q0,7.591,0,15.183a12.171,12.171,0,0,1-12.039,12.046q-7.564,0-15.128,0h-.72v.708q0,37.378,0,74.755a3.735,3.735,0,0,0,3.868,3.863q41.767,0,83.534,0a3.758,3.758,0,0,0,3.857-3.889c.007-4.086-.005-8.171.017-12.257a1.856,1.856,0,0,1,.338-.931c1.268-1.939,2.572-3.854,3.839-5.793,1.309-2,2.588-4.024,3.882-6.035.083-.13.183-.249.353-.478.017.308.034.484.034.659q0,12.505,0,25.01A12.2,12.2,0,0,1,984.4-264.487H900.645a12.174,12.174,0,0,1-12.21-12.214q0-39.779-.006-79.558a4.635,4.635,0,0,1,1.755-3.689c1.15-1,2.191-2.126,3.269-3.208q5.632-5.65,11.255-11.308,6.248-6.283,12.485-12.576a5.074,5.074,0,0,1,3.834-1.6q31.691.032,63.382.014a12.159,12.159,0,0,1,12.16,11.29c.036.495.053.992.053,1.488q0,15.625-.013,31.249a2.408,2.408,0,0,1-.368,1.218c-2.537,3.991-5.1,7.964-7.658,11.941-.1.148-.2.289-.3.434Z" fill="#888"/>
    <path id="Path_72" data-name="Path 72" d="M1692.125-40.18a6.622,6.622,0,0,1-1.085,3.65q-13.78,21.418-27.556,42.839c-.836,1.3-1.681,2.594-2.506,3.9a7.407,7.407,0,0,1-3.437,2.914q-3.246,1.39-6.474,2.822a1.652,1.652,0,0,0-.609.514c-.3.4-.532.839-.818,1.245a1.113,1.113,0,0,1-1.553.33,1.126,1.126,0,0,1-.323-1.517.2.2,0,0,1,.028-.047c1.257-1.284,1-2.888.973-4.458-.03-2.02-.1-4.05.055-6.059a6.311,6.311,0,0,1,1.029-2.752q15.017-23.444,30.1-46.845a6.584,6.584,0,0,1,7.445-2.834A6.582,6.582,0,0,1,1692.125-40.18Z" transform="translate(-675.342 -304.14)" fill="#888"/>
    <path id="Path_73" data-name="Path 73" d="M1417.342,278.467q5.658,0,11.316,0a2.453,2.453,0,1,1,.054,4.9q-11.371.011-22.742,0a2.454,2.454,0,0,1-1.8-4.208,2.468,2.468,0,0,1,1.859-.694Q1411.684,278.476,1417.342,278.467Z" transform="translate(-458.122 -593.44)" fill="#888"/>
    <path id="Path_74" data-name="Path 74" d="M1417.376,111.351c-3.827,0-7.653.006-11.48,0a2.4,2.4,0,0,1-2.424-2.19,2.433,2.433,0,0,1,1.881-2.626,3.042,3.042,0,0,1,.711-.067q11.342-.005,22.684,0a2.444,2.444,0,0,1,.76,4.8,3.4,3.4,0,0,1-.873.084Q1423.006,111.356,1417.376,111.351Z" transform="translate(-458.158 -440.432)" fill="#888"/>
    <path id="Path_75" data-name="Path 75" d="M1110.808,278.489q5.355,0,10.711,0a2.458,2.458,0,1,1,0,4.9q-10.766,0-21.532,0a2.474,2.474,0,0,1-2.34-1.278,2.317,2.317,0,0,1,.053-2.465,2.373,2.373,0,0,1,2.179-1.163Q1105.342,278.491,1110.808,278.489Z" transform="translate(-185.82 -593.463)" fill="#888"/>
    <path id="Path_76" data-name="Path 76" d="M1110.927,455.225c-3.586,0-7.171.006-10.757,0a2.469,2.469,0,0,1-2.66-2.42,2.425,2.425,0,0,1,2.136-2.471,5.494,5.494,0,0,1,.715-.033q10.591,0,21.182,0a2.618,2.618,0,0,1,2.356,1.057,2.445,2.445,0,0,1-1.721,3.843,6.3,6.3,0,0,1-.771.032q-5.24,0-10.481,0Z" transform="translate(-185.994 -746.297)" fill="#888"/>
    <path id="Path_77" data-name="Path 77" d="M1110.751,111.336c-3.662,0-7.324,0-10.986,0a2.444,2.444,0,0,1-1.922-3.944,2.434,2.434,0,0,1,2.077-.944q4.692.008,9.385,0,6.183,0,12.366,0a2.445,2.445,0,0,1,1.869,4.073,2.443,2.443,0,0,1-1.969.818C1117.964,111.331,1114.358,111.336,1110.751,111.336Z" transform="translate(-185.813 -440.417)" fill="#888"/>
    <path id="Path_78" data-name="Path 78" d="M1426.835,450.326v4.891c-.117.01-.276.036-.435.036q-10.158,0-20.315,0a2.449,2.449,0,0,1-2.509-3.29,2.365,2.365,0,0,1,2.059-1.607,5.872,5.872,0,0,1,.771-.026h20.429Z" transform="translate(-458.12 -746.325)" fill="#888"/>
    <path id="Path_79" data-name="Path 79" d="M1926.181,88.665a1.559,1.559,0,0,1-1.424-.818,1.622,1.622,0,0,1,.063-1.776q1.737-2.721,3.486-5.435,5.552-8.634,11.1-17.27a1.826,1.826,0,0,1,1.537-1.01,1.542,1.542,0,0,1,1.466.813,1.628,1.628,0,0,1-.063,1.778c-.99,1.55-1.99,3.094-2.985,4.641q-5.822,9.051-11.639,18.106A1.8,1.8,0,0,1,1926.181,88.665Z" transform="translate(-921.682 -401.196)" fill="#888"/>
  </g>
</svg>
