<svg id="Group_4" data-name="Group 4" xmlns="http://www.w3.org/2000/svg" width="228.379" height="228.898" viewBox="0 0 228.379 228.898">
  <path id="Path_11" data-name="Path 11" d="M847.294,69.68c9.709,3,15.454,10.4,20.44,18.574a113.505,113.505,0,0,1,10.325,23.177c.16.477.242.98.385,1.576H810.389c2.21-5.456,3.975-10.841,6.521-15.828a141.835,141.835,0,0,1,9.849-16.4,28.022,28.022,0,0,1,15.172-11.1Z" transform="translate(-730.377 -69.68)" fill="#888"/>
  <path id="Path_12" data-name="Path 12" d="M799.924,170.021H876.6a245.083,245.083,0,0,1,5.464,46.264H794.773C793.543,211.478,796.948,180.553,799.924,170.021Z" transform="translate(-723.981 -110.108)" fill="#888"/>
  <path id="Path_13" data-name="Path 13" d="M794.241,275.136h87.714a247,247,0,0,1-5.446,46.206H799.724A245.963,245.963,0,0,1,794.241,275.136Z" transform="translate(-723.871 -152.46)" fill="#888"/>
  <path id="Path_14" data-name="Path 14" d="M735.025,321.469H721.067c-9.681,0-19.362.031-29.042-.055a3.236,3.236,0,0,1-2.448-1.239,111.714,111.714,0,0,1-12.731-42.9c-.06-.654-.008-1.318-.008-2.12h53.08C731.618,290.575,733.31,305.917,735.025,321.469Z" transform="translate(-676.56 -152.467)" fill="#888"/>
  <path id="Path_15" data-name="Path 15" d="M729.743,216.226H676.386c.564-4.195.961-8.243,1.675-12.234a109.531,109.531,0,0,1,11.251-32.525,3.206,3.206,0,0,1,2.282-1.509c14.218-.09,28.437-.066,42.655-.058a1.773,1.773,0,0,1,.593.074C733.14,185.412,731.449,200.752,729.743,216.226Z" transform="translate(-676.386 -110.055)" fill="#888"/>
  <path id="Path_16" data-name="Path 16" d="M1019.254,216.212H966.216c-1.708-15.49-3.4-30.829-5.111-46.34h1.745c13.623,0,27.247.019,40.869-.028a2.952,2.952,0,0,1,3.129,1.772,115.9,115.9,0,0,1,12.394,41.874C1019.33,214.351,1019.254,215.228,1019.254,216.212Z" transform="translate(-791.101 -110.037)" fill="#888"/>
  <path id="Path_17" data-name="Path 17" d="M966.224,275.066h53.255c-.38,3.307-.632,6.525-1.137,9.7a114.312,114.312,0,0,1-11.561,34.993,2.481,2.481,0,0,1-2.488,1.712c-14.219-.066-28.438-.041-42.656-.046a2.764,2.764,0,0,1-.528-.05C962.808,305.989,964.5,290.665,966.224,275.066Z" transform="translate(-791.1 -152.431)" fill="#888"/>
  <path id="Path_18" data-name="Path 18" d="M810.825,380.337h67.906c-.458,1.37-.849,2.6-1.28,3.818-3.85,10.849-8.467,21.31-16.158,30.067a38.989,38.989,0,0,1-6.955,6.225c-6.3,4.384-12.878,4.422-19.118-.042a43.016,43.016,0,0,1-7.959-7.416C819.334,403.458,814.762,392.185,810.825,380.337Z" transform="translate(-730.552 -194.846)" fill="#888"/>
  <path id="Path_19" data-name="Path 19" d="M717.545,380.376h38.607c3.968,13.31,9.014,26.1,17.124,38.234A115.522,115.522,0,0,1,717.545,380.376Z" transform="translate(-692.969 -194.861)" fill="#888"/>
  <path id="Path_20" data-name="Path 20" d="M980.156,116.769c-.646.033-1.209.088-1.77.088-11.469.005-22.937-.03-34.406.044a2.237,2.237,0,0,1-2.592-1.94c-3.727-12.449-8.559-24.415-15.8-35.3a2.973,2.973,0,0,1-.235-.622C939.9,80.889,972.293,103.146,980.156,116.769Z" transform="translate(-776.697 -73.451)" fill="#888"/>
  <path id="Path_21" data-name="Path 21" d="M942.566,380.385h37.767c-6.259,12.518-38.5,34.769-54.334,37.706,3.046-5.965,6.456-11.959,9.217-18.238C937.988,393.55,940.114,386.963,942.566,380.385Z" transform="translate(-776.957 -194.865)" fill="#888"/>
  <path id="Path_22" data-name="Path 22" d="M717.668,116.462A116,116,0,0,1,773.3,78.3c-8.124,12.092-13.134,24.9-17.1,38.165Z" transform="translate(-693.019 -73.152)" fill="#888"/>
</svg>
