<svg id="Group_11" data-name="Group 11" xmlns="http://www.w3.org/2000/svg" width="119.274" height="134.592" viewBox="0 0 119.274 134.592">
  <path id="Path_45" data-name="Path 45" d="M1145.943,49.635c1.052,10.924,4.378,15.873,10.434,15.794,5.862-.076,8.8-4.5,10.371-15.844h55.4c1.978,11.56,4.787,15.743,10.505,15.842,5.907.1,9.078-4.552,10.508-15.42,7.979-1.5,10.49.374,10.5,8.218q.068,50.48,0,100.96c-.008,7.432-1.727,9.039-9.343,9.042q-50.19.021-100.38,0c-7.937,0-9.5-1.534-9.506-9.457q-.038-49.609-.006-99.219C1134.438,50.406,1136.079,48.948,1145.943,49.635ZM1244.021,75.7h-99.9v82.812h99.9Z" transform="translate(-1134.426 -33.645)" fill="#888"/>
  <path id="Path_46" data-name="Path 46" d="M1181.4,13.181c0-2.318-.168-4.652.038-6.952C1181.818,2,1184.164-.7,1188.5-.694c4.086,0,6.486,2.652,6.734,6.584a126.764,126.764,0,0,1,.029,15.057c-.223,3.956-2.625,6.556-6.7,6.606-4.352.053-6.724-2.613-7.112-6.84C1181.213,18.222,1181.4,15.693,1181.4,13.181Z" transform="translate(-1166.522 0.694)" fill="#888"/>
  <path id="Path_47" data-name="Path 47" d="M1437.681,13.49c0,2.7.866,5.847-.226,8-1.28,2.519-4.011,5.38-6.569,5.914-3.764.786-6.6-2.061-6.829-6.133-.283-5.007-.238-10.047-.053-15.062.159-4.316,2.665-6.909,6.993-6.869,4.073.038,6.322,2.649,6.686,6.624.227,2.491.042,5.019.042,7.53Z" transform="translate(-1332.485 0.674)" fill="#888"/>
  <path id="Path_48" data-name="Path 48" d="M1211.25,318.783v14.786h-14.48a6.95,6.95,0,0,1-.613-1.872C1196.534,316.453,1192.341,317.765,1211.25,318.783Z" transform="translate(-1176.566 -217.545)" fill="#888" opacity="0.2"/>
  <path id="Path_49" data-name="Path 49" d="M1211.184,241.225v15.026a107.466,107.466,0,0,1-12.035-.169c-1.166-.134-2.842-2.2-3-3.539-.42-3.569-.143-7.219-.143-11.318Z" transform="translate(-1176.504 -164.853)" fill="#888" opacity="0.2"/>
  <path id="Path_50" data-name="Path 50" d="M1300.161,240.8h14.708v14.81h-14.708Z" transform="translate(-1247.84 -164.559)" fill="#888" opacity="0.2"/>
  <path id="Path_51" data-name="Path 51" d="M1402.3,255.472V240.7h14.309c.349.566.716.882.713,1.195C1417.163,257.9,1421.018,256.324,1402.3,255.472Z" transform="translate(-1317.733 -164.496)" fill="#888" opacity="0.2"/>
  <path id="Path_52" data-name="Path 52" d="M1299.8,318.454h14.708v14.81H1299.8Z" transform="translate(-1247.596 -217.701)" fill="#888" opacity="0.2"/>
  <path id="Path_53" data-name="Path 53" d="M1401.942,333.13V318.362h14.309c.349.566.716.882.713,1.195C1416.807,335.558,1420.662,333.982,1401.942,333.13Z" transform="translate(-1317.489 -217.638)" fill="#888"/>
  <path id="Path_54" data-name="Path 54" d="M1402.144,174.527V160.118a6.533,6.533,0,0,1,1.83-.611c14.994.455,14-4.089,12.923,15.02Z" transform="translate(-1317.627 -108.818)" fill="#888" opacity="0.2"/>
  <path id="Path_55" data-name="Path 55" d="M1314.54,175.569H1299.8V160.721h14.735Z" transform="translate(-1247.596 -109.763)" fill="#888" opacity="0.2"/>
  <path id="Path_56" data-name="Path 56" d="M1211.342,159.961v14.566H1196.69a5.035,5.035,0,0,1-.543-1.59C1196.57,157.893,1192.184,158.935,1211.342,159.961Z" transform="translate(-1176.557 -108.887)" fill="#888" opacity="0.2"/>
</svg>
