<svg id="Group_3" data-name="Group 3" xmlns="http://www.w3.org/2000/svg" width="106.882" height="153.296" viewBox="0 0 106.882 153.296">
  <path id="Path_26" data-name="Path 26" d="M863.319,253.626c-1.566,3.41-4.271,4.391-7.922,4.38-32.182-.092-64.364-.054-96.546-.054h-2.413V104.71h59.682v2.025q0,19.073,0,38.147c0,4.587,2.289,6.867,6.889,6.869q20.155.007,40.309,0Zm-59.406-90.073q-14.733,0-29.466,0a5.871,5.871,0,0,0-5.809,3.584c-1.817,4.028,1.208,8.208,5.932,8.212q29.368.025,58.736,0c3.783,0,6.443-2.514,6.405-5.956s-2.693-5.829-6.528-5.833Q818.548,163.538,803.913,163.553Zm.229,23.6q-14.831,0-29.662.007c-3.66.007-6.3,2.469-6.34,5.823-.041,3.428,2.635,5.944,6.4,5.965,4.256.023,8.512.005,12.768.005q22.886,0,45.771.013c2.741.005,4.88-.948,6.073-3.481,1.893-4.02-1.059-8.308-5.74-8.322C823.655,187.132,813.9,187.153,804.141,187.153Zm-.438,35.4c9.953,0,19.906.02,29.859-.012a5.9,5.9,0,1,0-.047-11.781c-2.619-.033-5.238-.007-7.858-.007q-25.439,0-50.878-.015c-2.745,0-4.88.952-6.079,3.475-1.9,4.009,1.052,8.313,5.733,8.329C784.19,222.575,793.947,222.552,803.7,222.552Zm-17.448-82.6c-3.991,0-7.981-.029-11.972.009a5.9,5.9,0,1,0,.037,11.779q11.874.05,23.747,0c3.634-.013,6.254-2.541,6.243-5.911s-2.639-5.847-6.281-5.873C794.106,139.931,790.181,139.953,786.256,139.953Z" transform="translate(-756.437 -104.71)" fill="#888"/>
  <path id="Path_27" data-name="Path 27" d="M923.687,143.67H892.7V112.692Z" transform="translate(-821.1 -108.498)" fill="#888"/>
</svg>
