<svg id="Group_6" data-name="Group 6" xmlns="http://www.w3.org/2000/svg" width="235.114" height="210.299" viewBox="0 0 235.114 210.299">
  <path id="Path_23" data-name="Path 23" d="M902.612,179.192h12.729c.225,1.422.368,2.366.525,3.307.781,4.692-.932,6.224-5.9,6.213q-110.8-.241-221.6-.108c-8.075,0-8.173-.122-6.7-8.936a27.819,27.819,0,0,1,3.268-.455c8.77-.237,8.766-.222,8.767-8.776q0-79.881.013-159.762V2.218l-8.567-.488V-17.157c1.5-.1,3.1-.175,4.688-.319.984-.089,2.661-.018,2.83-.467,2.037-5.44,6.619-3.133,10.167-3.284,6.688-.285,13.4-.175,20.1-.039,2.687.055,5.743-1.225,7.427,2.945.5,1.23,4.834.908,7.692,1.34V1.668l-8.611.554v13.6q0,13.816-.006,27.632c0,2.268-.156,4.409,3.211,4.337,6.008-.13,12.02-.037,18.282-.037a18.9,18.9,0,0,0,.683-3.006c.481-9.254,6.147-14.654,15.439-14.654,5.025,0,10.159.658,15.05-.154,7.357-1.22,11.353,3.28,14.876,8,1.662,2.228,1.295,5.97,1.924,9.449h39.228c-.86-5.949.893-11.11,6.056-14.5a14.474,14.474,0,0,1,6.524-2.668c5.839-.372,11.747.244,17.571-.233,5.486-.45,10.077.713,12.946,5.456,2.1,3.471,3.4,7.424,5.533,12.225h25.12v10.6c-.32.252-.442.428-.585.449-8.675,1.278-8.678,1.277-8.678,10.58q0,51.243,0,102.487ZM733.229,59.436c-5.075-.815-3.733,2.7-3.737,4.721q-.115,54.944-.052,109.889a13.374,13.374,0,0,0,.2,3.484c.167.609,1.214,1.516,1.616,1.4a2.984,2.984,0,0,0,1.846-1.681,12.647,12.647,0,0,0,.121-3.487q.006-54.694.006-109.387C733.23,62.742,733.229,61.1,733.229,59.436ZM753.586,78.1V99.6h14.2V78.1Zm77.316-.067v21.9c4.233,0,8.2.11,12.15-.09.825-.041,2.264-1.205,2.281-1.881.174-6.576.1-13.159.1-19.927ZM792.114,99.594h14.353V78.254H792.114Zm-38.631,54.443c4.214,0,8.043.176,11.834-.121a3.764,3.764,0,0,0,2.635-2.522c.245-5.655.223-11.329.012-16.986a3.4,3.4,0,0,0-2.362-2.322c-3.941-.252-7.908-.11-12.118-.11Zm38.781-21.829v21.458h14.1V132.207Zm38.8,0v21.607h14.077V132.2Zm52.8-54.392c-4.043,0-7.867-.179-11.654.121-1,.079-2.652,1.613-2.686,2.529-.237,6.3-.125,12.62-.125,19.153h14.465Zm-14.046,54.465v21.506h14.04V132.278Z" transform="translate(-680.933 21.587)" fill="#888"/>
</svg>
