<svg id="Group_2" data-name="Group 2" xmlns="http://www.w3.org/2000/svg" width="224.427" height="236.643" viewBox="0 0 224.427 236.643">
  <path id="Path_7" data-name="Path 7" d="M509.918,111.836c-.373,18.428-7.208,32.893-19.675,44.748A61.909,61.909,0,0,1,458.4,173.006a50.89,50.89,0,0,1-30.571-3.771c-16.618-7.373-28.935-19.214-35.761-36.172-6.475-16.085-5.226-32.119,2.615-47.372,10-19.457,26.2-30.73,47.962-33.155a60.569,60.569,0,0,1,66.451,51.3C509.557,106.829,509.721,109.871,509.918,111.836Z" transform="translate(-336.75 -52.16)" fill="#888"/>
  <path id="Path_8" data-name="Path 8" d="M635.527,425.781H529.768l35.971-112.33c20.333,9.456,37.3,22.766,49.72,41.449C629.7,376.324,635.917,400.063,635.527,425.781Z" transform="translate(-411.117 -189.138)" fill="#888"/>
  <path id="Path_9" data-name="Path 9" d="M350.177,313.445l35.958,112.287H280.411a122.209,122.209,0,0,1,14.553-61.748C307.462,340.819,326.363,324.568,350.177,313.445Z" transform="translate(-280.378 -189.135)" fill="#888"/>
  <path id="Path_10" data-name="Path 10" d="M501.4,402.492c-.62-1.911-1.111-3.405-1.591-4.9-3.034-9.481-6.015-18.98-9.117-28.439-2.52-7.685-2.593-15.518-1.856-23.454.609-6.564,1.057-13.143,1.57-19.717.234-2.995,1.468-4.156,4.481-4.16q6.805-.01,13.611,0c2.9.006,4.159,1.2,4.388,4.11q.95,12.1,1.9,24.2a48.361,48.361,0,0,1-2.317,19.089q-5.18,15.639-10.334,31.287C501.953,401.03,501.744,401.549,501.4,402.492Z" transform="translate(-389.444 -193.521)" fill="#888"/>
</svg>
