<svg id="Group_12" data-name="Group 12" xmlns="http://www.w3.org/2000/svg" width="166.192" height="134.592" viewBox="0 0 166.192 134.592">
  <path id="Path_57" data-name="Path 57" d="M1233.51,327.752h-32.072c0-4.393,0-8.7,0-13.013,0-1.443.046-2.887-.009-4.328-.046-1.2-.371-2.59-1.843-2.252a3.1,3.1,0,0,0-1.764,2.335c-.165,4.557-.064,9.124-.057,13.687,0,1.127,0,2.254,0,3.517h-7.207c-.253-2.621-.523-5.248-.756-7.878-.6-6.738-1.169-13.478-1.78-20.215a5.707,5.707,0,0,1,3.064-5.892c4.157-2.372,8.345-4.687,12.784-7.173l10.56,14.6.719-.3c.305-4.892.719-9.8-2.127-14.538h8.525c-1.979,6.11-2.521,10.826-1.582,14.88,2.46-2.072,3.793-4.772,5.566-7.088,1.843-2.408,3.571-4.906,5.508-7.584,4.611,2.637,9.251,5.057,13.594,7.926a5.807,5.807,0,0,1,2.14,4.431c-.6,9.409-1.527,18.8-2.36,28.19a2.561,2.561,0,0,1-.312.687h-6.829c-.049-.814-.135-1.609-.138-2.405-.014-4.567-.008-9.134-.01-13.7,0-.533.185-1.183-.053-1.572a14.22,14.22,0,0,0-1.746-1.989c-.6.707-1.707,1.4-1.73,2.123-.157,4.867-.084,9.741-.085,14.612C1233.509,325.711,1233.51,326.612,1233.51,327.752Z" transform="translate(-1080.587 -204.563)" fill="#888"/>
  <path id="Path_58" data-name="Path 58" d="M792.046,327.688h-32.12c0-1.726,0-3.375,0-5.024,0-3.73.04-7.461-.017-11.191-.021-1.409.572-3.481-1.808-3.42-2.31.059-1.727,2.135-1.749,3.533-.069,4.567-.023,9.135-.021,13.7,0,.743,0,1.486,0,2.353h-7.221q-.579-6.238-1.154-12.449c-.428-4.7-.807-9.4-1.277-14.091-.453-4.519.24-5.926,4.185-8.134,3.779-2.114,7.547-4.247,11.552-6.5L773,301.083l.734-.328c.27-4.9.68-9.814-2.15-14.545h8.842c-2.933,4.625-2.361,9.584-2.238,14.494l.767.421,10.609-14.656c4.546,2.555,9.013,4.965,13.368,7.561a5.248,5.248,0,0,1,2.493,5.289q-.993,11.252-1.977,22.505c-.166,1.881-.353,3.76-.543,5.784h-7.244c0-1.454,0-2.937,0-4.42q.009-5.823.02-11.647c0-.457.168-1.023-.04-1.349-.5-.79-1.073-1.915-1.812-2.094-1.341-.325-1.762.852-1.766,2.04q-.024,6.955-.021,13.911C792.044,325.178,792.046,326.308,792.046,327.688Z" transform="translate(-746.559 -204.493)" fill="#888"/>
  <path id="Path_59" data-name="Path 59" d="M1024.139,317.887c.83-4.263.122-10.208-2.072-17.221a6.847,6.847,0,0,1,1.072-.174c2.886-.014,5.771-.008,8.51-.008a75.347,75.347,0,0,0-2,8.613,38.431,38.431,0,0,0,.3,8.99c2.841-2.34,4.612-5.451,6.718-8.274,2.133-2.86,4.183-5.783,6.406-8.869l3.145,1.709c-4.041,5.221-1.8,10.928-1.578,16.432.385,9.648.939,19.289,1.406,28.934a14.571,14.571,0,0,1-.153,1.866h-38.011c0-5.012,0-9.935,0-14.857,0-1.751.017-3.5.009-5.253-.013-3.008-.6-3.536-3.593-3.268-.14-7.313,2.49-14.578.4-22.148l6.147-3.417,12.629,17.395Z" transform="translate(-941.581 -215.293)" fill="#888"/>
  <path id="Path_60" data-name="Path 60" d="M1031.338,172.961a16.119,16.119,0,1,1,16.289,16.129A16.02,16.02,0,0,1,1031.338,172.961Z" transform="translate(-962.049 -106.508)" fill="#888"/>
  <path id="Path_61" data-name="Path 61" d="M1052.906-35.88a13.572,13.572,0,0,1-13.748,13.5,13.547,13.547,0,0,1-13.351-13.865,13.521,13.521,0,0,1,13.6-13.405A13.6,13.6,0,0,1,1052.906-35.88Z" transform="translate(-957.864 49.649)" fill="#888"/>
  <path id="Path_62" data-name="Path 62" d="M1170.031,81.288a13.618,13.618,0,1,1,13.494-13.8A13.693,13.693,0,0,1,1170.031,81.288Z" transform="translate(-1056.561 -28.821)" fill="#888"/>
  <path id="Path_63" data-name="Path 63" d="M921.456,81.335a13.6,13.6,0,1,1,13.7-13.584A13.613,13.613,0,0,1,921.456,81.335Z" transform="translate(-868.659 -28.876)" fill="#888"/>
  <path id="Path_64" data-name="Path 64" d="M1280.3,178.414a13.59,13.59,0,1,1-13.456-13.552A13.525,13.525,0,0,1,1280.3,178.414Z" transform="translate(-1129.872 -112.67)" fill="#888"/>
  <path id="Path_65" data-name="Path 65" d="M838.877,178.553a13.575,13.575,0,1,1-13.56-13.65A13.52,13.52,0,0,1,838.877,178.553Z" transform="translate(-795.871 -112.701)" fill="#888"/>
  <path id="Path_66" data-name="Path 66" d="M964.006,478.638h8.984v6.007h-8.461C964.354,482.636,964.186,480.707,964.006,478.638Z" transform="translate(-911.1 -350.103)" fill="#888"/>
  <path id="Path_67" data-name="Path 67" d="M1202.615,484.818h-8.444v-6.012h8.977Z" transform="translate(-1085.264 -350.23)" fill="#888"/>
</svg>
