<svg id="Group_20" data-name="Group 20" xmlns="http://www.w3.org/2000/svg" width="141.071" height="141.105" viewBox="0 0 141.071 141.105">
  <path id="Path_23" data-name="Path 23" d="M707.14,174.216q-13.3,0-26.595,0c-4.151,0-5.92-1.8-5.824-5.911.368-15.818,13.006-29.213,29.066-30.809a32.177,32.177,0,0,1,35.119,25.237,35.927,35.927,0,0,1,.724,6.4,4.628,4.628,0,0,1-4.867,5.064c-2.692.065-5.387.017-8.081.017Z" transform="translate(-674.718 -100.825)" fill="#888"/>
  <path id="Path_24" data-name="Path 24" d="M901,346.669q-13.518,0-27.036,0c-3.59,0-5.417-1.872-5.368-5.462.239-17.527,15.207-31.808,32.9-31.393,16.086.377,28.632,11.025,31.58,26.849a30.273,30.273,0,0,1,.442,4.671c.095,3.381-1.831,5.331-5.191,5.334Q914.667,346.68,901,346.669Z" transform="translate(-792.454 -205.566)" fill="#888"/>
  <path id="Path_25" data-name="Path 25" d="M748.494,60.8a16.38,16.38,0,1,1-16.312-16.413A16.423,16.423,0,0,1,748.494,60.8Z" transform="translate(-699.625 -44.388)" fill="#888"/>
  <path id="Path_26" data-name="Path 26" d="M909.514,233.187a16.382,16.382,0,1,1,16.252,16.454A16.45,16.45,0,0,1,909.514,233.187Z" transform="translate(-817.302 -149.1)" fill="#888"/>
  <path id="Path_27" data-name="Path 27" d="M862.055,74.252c4.358,0,8.715-.014,13.073,0a23.475,23.475,0,0,1,23.664,23.69c.023,6.316.01,12.633,0,18.948,0,3.105-1.943,5.263-4.7,5.266s-4.7-2.162-4.7-5.263c-.008-6.169.005-12.339,0-18.508-.014-8.66-6.031-14.711-14.66-14.726-8.911-.015-17.822,0-26.733-.013a8.623,8.623,0,0,1-2.175-.221,4.657,4.657,0,0,1,1.107-9.159c5.043-.044,10.086-.013,15.129-.013Z" transform="translate(-776.516 -62.52)" fill="#888"/>
  <path id="Path_28" data-name="Path 28" d="M755.97,299.416c-4.547,0-9.145.438-13.631-.087-10.8-1.265-19.524-11.145-19.772-22.055-.157-6.9-.06-13.807-.03-20.71a4.694,4.694,0,1,1,9.384.116c.027,6.267,0,12.534.011,18.8.009,8.823,6.014,14.81,14.864,14.82,6.806.007,13.612-.011,20.417.008a4.715,4.715,0,0,1,5.034,4.459,4.6,4.6,0,0,1-4.673,4.929c-3.868.042-7.736.011-11.6.011Z" transform="translate(-703.723 -170.344)" fill="#888"/>
</svg>
