<svg id="Group_7" data-name="Group 7" xmlns="http://www.w3.org/2000/svg" width="188.569" height="214.599" viewBox="0 0 188.569 214.599">
  <path id="Path_24" data-name="Path 24" d="M-560.183-79.184c5.055.944,10.214,1.518,15.146,2.9a66.98,66.98,0,0,1,34.45,22.922A66.4,66.4,0,0,1-496.97-25.18c3.94,18.274,1.317,35.62-8.694,51.453-17.3,27.357-34.915,54.512-52.4,81.752-.263.411-.52.827-.8,1.229-3.006,4.361-8.1,4.387-11.029-.038-3.271-4.945-6.42-9.971-9.62-14.963-14.418-22.493-28.905-44.943-43.227-67.5a66.434,66.434,0,0,1-9.728-48.288c4.9-28.484,25.843-50.149,54.2-56.232,3.188-.684,6.464-.958,9.7-1.422Zm27.23,69.14a31.523,31.523,0,0,0-31.471-31.422,31.524,31.524,0,0,0-31.37,31.314,31.524,31.524,0,0,0,31.367,31.527A31.524,31.524,0,0,0-532.953-10.044Z" transform="translate(658.709 79.184)" fill="#888"/>
  <path id="Path_25" data-name="Path 25" d="M-582.523,266.442c-23.635-.205-42.409-2.033-60.744-7.184-10.322-2.9-20.379-6.543-28.707-13.565a32.785,32.785,0,0,1-7.247-8.529c-4.035-7.041-2.6-15.127,3.219-21.634,5.886-6.577,13.437-10.616,21.538-13.628,5.344-1.987,10.907-3.379,16.33-5.167,1.459-.482,2.072-.023,2.816,1.144q15.019,23.56,30.115,47.071c3.847,6.023,9.143,9.713,16.37,10.23,7.521.538,13.83-2.083,18.19-8.249,4.385-6.2,8.317-12.728,12.423-19.127,6.366-9.924,12.743-19.84,19.029-29.814.87-1.38,1.637-1.621,3.177-1.213,9.392,2.486,18.626,5.358,27.071,10.308,4.8,2.811,9.148,6.143,12.394,10.754,5.4,7.666,4.66,17.1-1.691,24.019-5.422,5.9-12.162,9.734-19.419,12.77-13.234,5.536-27.144,8.457-41.326,10C-568.341,265.652-577.758,266.087-582.523,266.442Z" transform="translate(681.513 -51.842)" fill="#888"/>
</svg>
