<svg id="Group_5" data-name="Group 5" xmlns="http://www.w3.org/2000/svg" width="124.37" height="164.873" viewBox="0 0 124.37 164.873">
  <path id="Path_28" data-name="Path 28" d="M807.781,273.377l12.23,26.7,1.336-.092V276.039h11.712v24.139l1.245.15c4.056-8.858,8.111-17.717,12.341-26.954,9.693,3.812,19.139,7.387,28.455,11.271,3.137,1.308,4.792,3.9,5.435,7.592,2.649,15.181,5.642,30.3,8.6,45.43a13.2,13.2,0,0,1-4.036,12.858,21.554,21.554,0,0,0-2.692,2.762c-5.967,8.284-14.562,8.657-23.453,7.544-1.321-.166-3.18-2.373-3.387-3.835a38.686,38.686,0,0,1-.01-10.682c.227-1.617,1.882-3.231,3.253-4.43a12.14,12.14,0,0,1,4.235-1.984c3.087-1.007,4.376-2.77,4.41-6.256.058-6.129.794-12.256,1.331-18.376.511-5.824-1.625-8.275-7.46-8.28q-33.464-.024-66.929-.008c-7.435.008-8.869,1.433-8.527,8.744.3,6.279.977,12.541,1.249,18.82.114,2.635.939,4.308,3.6,4.917,6.981,1.6,8.815,6.032,8.295,12.92-.633,8.393.9,8.067-8.683,8.858-12.41,1.025-18.225-7.272-24.117-15.38-1.6-2.2-1.189-6.4-.648-9.5,2.6-14.9,5.368-29.778,8.561-44.559.577-2.667,2.915-5.958,5.311-7.049C788.6,280.568,798.132,277.167,807.781,273.377Z" transform="translate(-765.077 -196.454)" fill="#888"/>
  <path id="Path_29" data-name="Path 29" d="M806.834,367.2c0-4.581-.268-8.994.074-13.358.354-4.52-1.107-7.638-5.557-8.75-4.472-1.117-6-3.862-6.018-8.269C795.3,331,794.8,325.182,794.481,319h73.76c-.361,7.5-.584,14.746-1.194,21.962-.091,1.077-1.854,2.579-3.1,2.9-6.872,1.756-8.826,6.184-7.964,12.791.438,3.352.076,6.809.076,10.553Z" transform="translate(-769.24 -202.914)" fill="#888"/>
  <path id="Path_30" data-name="Path 30" d="M823.194,209.938c-.777-6.47-1.514-12.944-2.347-19.407-.39-3.024.591-4.762,3.721-5.628a29.245,29.245,0,0,1,16.027-.031c3.065.85,4.259,2.58,3.871,5.6a157.106,157.106,0,0,0-1.694,19.273l4.745-18.375c7.869,3.113,16.041,20.549,14.556,31.039-15.744,4.423-31.8,2.354-47.721,2.524-3.587.038-7.194-1.7-10.965-2.672-1.642-9.847,5.39-25.832,14.315-31.326.779,3.4,1.454,6.684,2.3,9.926.806,3.1,1.787,6.151,2.692,9.224Z" transform="translate(-770.467 -183.769)" fill="#888"/>
  <path id="Path_31" data-name="Path 31" d="M807.042,234.7a445.754,445.754,0,0,0,52.3.009c-2.781,11.372-7.186,22.593-17.819,29.828-5.33,3.627-11.727,3.2-17.376-.282a20.775,20.775,0,0,1-5.616-5.2C812.97,251.567,808.361,243.581,807.042,234.7Z" transform="translate(-771.018 -190.98)" fill="#888"/>
</svg>
