<svg id="Group_7" data-name="Group 7" xmlns="http://www.w3.org/2000/svg" width="149.792" height="160.014" viewBox="0 0 149.792 160.014">
  <path id="Path_32" data-name="Path 32" d="M673.7,164.836c-1.889-8.322-3.755-16.648-5.7-24.961a2.716,2.716,0,0,1,.761-2.849c2.947-2.989,5.813-6.039,8.794-9.154-2.62-2.743-5.233-5.549-7.945-8.279-1.02-1.027-1.038-1.788.006-2.817,2.247-2.215,4.373-4.526,6.539-6.8.4-.425.768-.879.927-1.06-4.155-.912-8.508-1.418-12.453-2.817-13.273-4.708-21.549-13.632-25.362-25.538C634.287,64.98,637.314,50.579,649.8,38.4c15.868-15.48,41.59-15.12,57.3.472a40.734,40.734,0,0,1-26.918,69.51c-.4.022-.8.088-1.432.16,2.678,2.8,5.16,5.5,7.782,8.093,1.123,1.11,1.22,1.9.055,3.05-2.679,2.643-5.215,5.4-7.868,8.171,2.842,2.976,5.636,6,8.568,8.921a3.209,3.209,0,0,1,.92,3.411c-1.87,7.905-3.651,15.826-5.457,23.743a.881.881,0,0,0,.2.826c.542-1.281,1.089-2.559,1.623-3.842q9.2-22.082,18.366-44.176a17.08,17.08,0,0,0,.6-3.787c3.306,1.622,7.012,3.193,10.425,5.158a76.323,76.323,0,0,1,31.9,35.278,79.108,79.108,0,0,1,7.225,31.862c.009.467-.019.936-.048,1.4-.006.09-.1.176-.206.343H603.346c-1.072-25.867,14.911-61.032,49.414-73.8a19.885,19.885,0,0,0,.791,4.1q9.615,23.282,19.367,46.519c.16.383.352.756.529,1.134Z" transform="translate(-603.296 -26.982)" fill="#888"/>
</svg>
