<svg xmlns="http://www.w3.org/2000/svg" width="24.094" height="26.39" viewBox="0 0 24.094 26.39">
  <path id="user-check-alt-svgrepo-com" d="M17.55,25.067l2.439,2.323,5.691-5.42M20.938,18.45a4.061,4.061,0,0,0-1.314-.48,3.307,3.307,0,0,0-.333-.041,4.081,4.081,0,0,0-.661-.02,2.308,2.308,0,0,0-.534.094,12.936,12.936,0,0,0-1.258.536,8.153,8.153,0,0,1-6.7,0A12.944,12.944,0,0,0,8.875,18a2.324,2.324,0,0,0-.534-.094,4.066,4.066,0,0,0-.661.02,3.3,3.3,0,0,0-.339.042,4.065,4.065,0,0,0-3.276,3.276A10.208,10.208,0,0,0,4,22.9v2.325a3.366,3.366,0,0,0,.148,1.428,1.355,1.355,0,0,0,.592.592,3.366,3.366,0,0,0,1.428.148h6.64m6.1-18.97A5.42,5.42,0,1,1,13.485,3,5.42,5.42,0,0,1,18.905,8.42Z" transform="translate(-3 -2)" fill="none" stroke="#034153" stroke-linecap="round" stroke-linejoin="round" stroke-width="2"/>
</svg>
