<svg xmlns="http://www.w3.org/2000/svg" width="23.543" height="28.405" viewBox="0 0 23.543 28.405">
  <path id="admin-svgrepo-com" d="M165.671,6.517v8.369c0,6.249,5.535,9.253,9.981,11.667l.119.063.12-.063c4.446-2.414,9.981-5.418,9.981-11.667V6.517l-10.1-4.758-10.1,4.758Zm10.1,21.887a.849.849,0,0,1-.4-.1l-.516-.281C170.274,25.534,164,22.129,164,14.886v-8.9a.838.838,0,0,1,.48-.757L175.417.079a.826.826,0,0,1,.71,0L187.064,5.23a.838.838,0,0,1,.48.757v8.9c0,7.243-6.276,10.648-10.855,13.136l-.516.281a.851.851,0,0,1-.4.1Zm6.911-8.1h-4.636l-1.355-1.353v-1.24h-1.728V15.982h-1.238l-.865-.865c-.028,0-.057,0-.085,0a4.724,4.724,0,1,1,4.723-4.723c0,.028,0,.057,0,.084l5.186,5.188V20.3Zm-3.945-1.671h2.274V16.358L175.753,11.1l.058-.551a3.047,3.047,0,1,0-3.038,2.9l.7-.079.944.942h2.217v1.728h1.728v2.219l.376.374ZM174.1,10.443a1.253,1.253,0,1,1-1.253-1.253,1.254,1.254,0,0,1,1.253,1.253" transform="translate(-164 0.001)" fill="#400679" fill-rule="evenodd"/>
</svg>
