<svg xmlns="http://www.w3.org/2000/svg" width="25.179" height="30.664" viewBox="0 0 25.179 30.664">
  <g id="Group_56" data-name="Group 56" transform="translate(-447.95 -926.144)">
    <path id="Path_42" data-name="Path 42" d="M472.5,932.084h-2.7v-2.5a.624.624,0,0,0-.624-.624h-2.369v-2.2a.624.624,0,0,0-.624-.624H448.574a.623.623,0,0,0-.624.624v23.475a.624.624,0,0,0,.624.624h2.37v2.2a.624.624,0,0,0,.624.624h2.7v2.5a.624.624,0,0,0,.624.624h17.61a.624.624,0,0,0,.624-.624V932.708a.624.624,0,0,0-.625-.624ZM449.2,949.618V927.39h16.362v1.572h-13.99a.624.624,0,0,0-.624.624v20.031Zm3,2.821V930.211h16.362v1.873H454.894a.624.624,0,0,0-.624.624v19.73Zm19.69,3.121H455.518V933.332H471.88Z" transform="translate(0 0)" fill="#056052"/>
    <path id="Path_43" data-name="Path 43" d="M466.367,968.634a.624.624,0,0,0,0,1.248h12.486a.624.624,0,1,0,0-1.248Z" transform="translate(-8.911 -21.28)" fill="#056052"/>
    <path id="Path_44" data-name="Path 44" d="M478.853,973.444H466.367a.624.624,0,0,0,0,1.248h12.486a.624.624,0,1,0,0-1.248Z" transform="translate(-8.911 -23.689)" fill="#056052"/>
    <path id="Path_45" data-name="Path 45" d="M478.853,978.256H466.367a.624.624,0,0,0,0,1.248h12.486a.624.624,0,1,0,0-1.248Z" transform="translate(-8.911 -26.099)" fill="#056052"/>
    <rect id="Rectangle_34" data-name="Rectangle 34" width="12.487" height="10.471" transform="translate(457.456 935.045)" fill="#056052"/>
  </g>
</svg>
