<svg xmlns="http://www.w3.org/2000/svg" width="26.929" height="26.933" viewBox="0 0 26.929 26.933">
  <g id="test-svgrepo-com" transform="translate(-0.001 0.001)">
    <path id="Path_24" data-name="Path 24" d="M2.524,13.466A10.94,10.94,0,0,1,13.875,2.532,1.262,1.262,0,1,0,13.967.009,13.465,13.465,0,1,0,25.81,18.848a1.263,1.263,0,0,0-2.314-1.01q-.171.388-.37.762a10.94,10.94,0,0,1-20.6-5.135ZM19.759,1.559a1.263,1.263,0,1,0-1.183,2.232q.364.192.709.409a1.263,1.263,0,0,0,1.347-2.138q-.427-.268-.874-.5ZM24.866,6.3a1.263,1.263,0,1,0-2.138,1.345q.22.346.411.707a1.262,1.262,0,1,0,2.232-1.18Q25.135,6.727,24.866,6.3Zm2.055,6.66a1.263,1.263,0,0,0-2.525.094q.015.379,0,.757a1.263,1.263,0,0,0,2.525.079q.014-.464,0-.929Z" transform="translate(0 0)" fill="#9b340d"/>
    <path id="Path_25" data-name="Path 25" d="M17.082,5.37a1.262,1.262,0,0,1,0,1.784L9.508,14.728a1.262,1.262,0,0,1-1.784,0L4.358,11.362A1.262,1.262,0,0,1,6.142,9.578l2.474,2.474L15.3,5.37a1.262,1.262,0,0,1,1.784,0Z" transform="translate(2.744 3.417)" fill="#9b340d"/>
  </g>
</svg>
