<svg xmlns="http://www.w3.org/2000/svg" width="30.804" height="28.206" viewBox="0 0 30.804 28.206">
  <g id="savings-dollar-svgrepo-com" transform="translate(-7.065 -7.62)">
    <path id="Path_39" data-name="Path 39" d="M12.65,45.9,8.19,39.185a.722.722,0,0,1,.2-1.005l2.817-1.806a.728.728,0,0,1,.987.193l4.551,6.622a.722.722,0,0,1-.193,1.005l-2.9,1.9a.722.722,0,0,1-1.005-.2Z" transform="translate(0 -11.398)" fill="none" stroke="#816a17" stroke-linecap="round" stroke-width="2"/>
    <path id="Path_40" data-name="Path 40" d="M15.76,35.815l4.7-2.95a1.306,1.306,0,0,1,1.023-.163c1.668.427,6.682,1.806,8.531,2.456A2,2,0,0,1,31.4,37.923a2.223,2.223,0,0,1-2.745.855l-.331-.12-3.287-1.4" transform="translate(-3.061 -9.967)" fill="none" stroke="#816a17" stroke-linecap="round" stroke-width="2"/>
    <path id="Path_41" data-name="Path 41" d="M21.81,41.781l1.535-.879,8.687,2.408a.638.638,0,0,0,.53-.084c1.2-.783,6.448-4.25,9.03-6.074a1.445,1.445,0,0,0,.181-2.408,1.866,1.866,0,0,0-2.233-.2c-.9.506-3.413,2.372-3.413,2.372" transform="translate(-5.469 -10.604)" fill="none" stroke="#816a17" stroke-linecap="round" stroke-width="2"/>
    <path id="Path_42" data-name="Path 42" d="M39.479,13a3.612,3.612,0,0,0-3.371-2.173c-3.04,0-3.155,2.173-3.155,2.173s-.458,2.685,3.263,2.968c3.871.295,3.263,2.968,3.263,2.968a3.224,3.224,0,0,1-3.263,2.468c-2.872.144-3.757-2.866-3.757-2.866" transform="translate(-9.708 -1.277)" fill="none" stroke="#816a17" stroke-width="2"/>
    <line id="Line_22" data-name="Line 22" y2="14.737" transform="translate(26.4 7.62)" fill="none" stroke="#816a17" stroke-width="2"/>
  </g>
</svg>
