<svg id="customer-class-line-svgrepo-com" xmlns="http://www.w3.org/2000/svg" width="57.662" height="58.321" viewBox="0 0 57.662 58.321">
  <path id="Path_47" data-name="Path 47" d="M147.971,100.858c-.493-.215-.986-.41-1.485-.59a15.227,15.227,0,1,0-19.121.007A27.965,27.965,0,0,0,109,126.51h5.074a22.861,22.861,0,0,1,31.878-20.988ZM136.922,78.274a10.154,10.154,0,1,1-10.154,10.154A10.163,10.163,0,0,1,136.922,78.274Zm7.024,34.022a1.889,1.889,0,0,0,1.013,1.68l8.884,4.692a1.888,1.888,0,0,0,1.777,0l8.884-4.692a1.9,1.9,0,0,0,0-3.359l-8.884-4.7a1.914,1.914,0,0,0-1.777,0l-8.884,4.7A1.889,1.889,0,0,0,143.945,112.3Zm10.786-2.54,4.81,2.54-4.81,2.54-4.81-2.54Z" transform="translate(-109 -73.2)" fill="#0f1f3c"/>
  <path id="Path_48" data-name="Path 48" d="M607.279,691.093l-10.2-5.393-1.777,3.366,11.979,6.33,11.931-6.3-1.777-3.366Z" transform="translate(-561.548 -643.189)" fill="#0f1f3c"/>
  <path id="Path_49" data-name="Path 49" d="M607.279,779.186l-10.2-5.386-1.777,3.359,11.979,6.337,11.889-6.288-1.777-3.366Z" transform="translate(-561.548 -725.175)" fill="#0f1f3c"/>
</svg>
