<svg id="customer-list-line-svgrepo-com" xmlns="http://www.w3.org/2000/svg" width="54.138" height="54.138" viewBox="0 0 54.138 54.138">
  <path id="Path_50" data-name="Path 50" d="M158.919,158.912H114.625V114.625h19.681V109.7H109.7v54.138h54.138V144.15h-4.919Z" transform="translate(-109.7 -109.7)" fill="#0f1f3c"/>
  <path id="Path_51" data-name="Path 51" d="M231.706,141.687h4.919a12.306,12.306,0,0,1,24.613,0h4.919a17.245,17.245,0,0,0-9.891-15.583,9.844,9.844,0,1,0-14.668,0,17.252,17.252,0,0,0-9.891,15.583Zm17.225-27.062a4.919,4.919,0,1,1-4.919,4.919A4.925,4.925,0,0,1,248.931,114.625ZM219.4,119.544h14.762v4.919H219.4Zm0,27.069h39.368v4.919H219.4Zm0-17.225h9.844v4.919H219.4Z" transform="translate(-212.019 -109.7)" fill="#0f1f3c"/>
</svg>
