<svg xmlns="http://www.w3.org/2000/svg" width="22.546" height="26.312" viewBox="0 0 22.546 26.312">
  <g id="client-dollar-svgrepo-com" transform="translate(-28.088)">
    <path id="Path_31" data-name="Path 31" d="M67.433,253.936h0a28.4,28.4,0,0,0-3.956-.78L60.4,259.435a.728.728,0,0,1-1.309,0l-3.077-6.279a24.875,24.875,0,0,0-3.956.78,2.9,2.9,0,0,0-2.119,2.526v4.58H69.561v-4.364A2.882,2.882,0,0,0,67.433,253.936Z" transform="translate(-20.387 -236.187)" fill="#9a192c"/>
    <path id="Path_32" data-name="Path 32" d="M47.436,231.275a29.452,29.452,0,0,0-4.693-.884.738.738,0,0,0-.737.4l-2.652,5.4-2.648-5.4a.725.725,0,0,0-.737-.4h0a30.975,30.975,0,0,0-4.693.884,4.334,4.334,0,0,0-3.189,4.151v5.1a.731.731,0,0,0,.732.732H49.9a.731.731,0,0,0,.732-.732v-5.1A4.342,4.342,0,0,0,47.436,231.275Zm1.729,8.515H29.544v-4.58a2.889,2.889,0,0,1,2.119-2.526,24.965,24.965,0,0,1,3.956-.78l3.077,6.279a.728.728,0,0,0,1.309,0l3.077-6.279a28.4,28.4,0,0,1,3.956.78h0a2.859,2.859,0,0,1,2.119,2.739v4.368h.009Z" transform="translate(0 -214.938)" fill="#9a192c"/>
    <g id="Group_3127" data-name="Group 3127" transform="translate(31.004 18.564)">
      <path id="Path_33" data-name="Path 33" d="M234.171,277.539a26.056,26.056,0,0,0-2.73-.594l-2.366,4.823h6.132v-2.9A1.37,1.37,0,0,0,234.171,277.539Z" transform="translate(-218.519 -276.945)" fill="#9a192c"/>
      <path id="Path_34" data-name="Path 34" d="M74.694,278.045a.732.732,0,1,1,0,1.465H71.6v1.062H73a.731.731,0,0,1,.732.732.744.744,0,0,1-.308.594h4.307l-2.366-4.823a27.438,27.438,0,0,0-2.73.594,1.45,1.45,0,0,0-.646.381h2.7v0h0Z" transform="translate(-71.596 -277.065)" fill="#9a192c"/>
    </g>
    <path id="Path_35" data-name="Path 35" d="M121.828,27.54a5.755,5.755,0,1,0-5.755,5.75A5.76,5.76,0,0,0,121.828,27.54Z" transform="translate(-76.719 -20.325)" fill="#9a192c"/>
    <g id="Group_3128" data-name="Group 3128" transform="translate(32.14)">
      <path id="Path_36" data-name="Path 36" d="M95.748,0a7.215,7.215,0,1,0,7.215,7.215A7.224,7.224,0,0,0,95.748,0Zm0,12.965a5.752,5.752,0,1,1,5.755-5.75A5.759,5.759,0,0,1,95.748,12.965Z" transform="translate(-88.533)" fill="#9a192c"/>
      <path id="Path_37" data-name="Path 37" d="M164.144,38.7a.844.844,0,0,1,.841.841.732.732,0,1,0,1.465,0,2.308,2.308,0,0,0-1.569-2.18v-.3a.732.732,0,1,0-1.465,0v.312a2.3,2.3,0,0,0,.732,4.481.834.834,0,1,1-.841.828.732.732,0,0,0-1.465,0,2.3,2.3,0,0,0,1.569,2.175v.308a.732.732,0,1,0,1.465,0v-.308a2.3,2.3,0,0,0-.732-4.476.841.841,0,0,1,0-1.681Z" transform="translate(-156.929 -33.896)" fill="#9a192c"/>
    </g>
  </g>
</svg>
