<?xml version="1.0" encoding="utf-8"?>
<!-- Generator: Adobe Illustrator 24.0.1, SVG Export Plug-In . SVG Version: 6.00 Build 0)  -->
<svg version="1.1" id="Layer_1" xmlns="http://www.w3.org/2000/svg" xmlns:xlink="http://www.w3.org/1999/xlink" x="0px" y="0px"
	 viewBox="0 0 250 250" style="enable-background:new 0 0 250 250;" xml:space="preserve">
<style type="text/css">
	.st0{fill:#FF0000;}
</style>
<g>
	<path class="st0" d="M62.9,245.7c-6.2-2-8.2-6.4-8.6-12.7c-1.7-27.7-3.7-55.3-5.6-83c-1.4-20.5-2.8-41.1-4.2-61.6
		c0-0.7,0-1.4,0-2.3c53.7,0,107.4,0,161.3,0c0,0.9,0.1,1.7,0,2.5c-1,14.1-2.1,28.2-3.1,42.3c-1,13.9-2,27.7-3,41.6
		c-1,14.2-2.1,28.3-3.1,42.5c-0.5,6.3-1.1,12.7-1.3,19c-0.2,6-2.9,9.9-8.7,11.6C145.3,245.7,104.1,245.7,62.9,245.7z M94,161.9
		c0,5.7,0,11.3,0,17c0,10.3,0,20.6,0,30.9c0,3.8,2.7,6.6,6.3,6.9c3.5,0.3,6.6-2.1,7.3-5.7c0.2-0.9,0.1-1.9,0.1-2.8
		c0-30.7,0-61.4,0-92.1c0-0.7,0-1.4,0-2.1c-0.4-3.9-3.9-6.7-7.7-6.2c-3.7,0.5-6,3.3-6,7.5C94,130.8,94,146.4,94,161.9z M142.5,162.2
		c0,10.5,0,21,0,31.6c0,5.3,0,10.5,0,15.8c0,4.2,2.9,7.2,6.8,7.2c3.9,0,6.8-3,6.9-7.1c0-0.5,0-1.1,0-1.6c0-30.6,0-61.1,0-91.7
		c0-0.7,0-1.4,0-2.1c-0.4-4.6-4.7-7.5-9-6.2c-3,0.9-4.8,3.5-4.8,7.3C142.5,130.9,142.5,146.6,142.5,162.2z"/>
	<path class="st0" d="M221.6,72c-64.4,0-128.6,0-193.3,0c0.3-6.5,0-13,0.9-19.3c1-6.6,7.3-11.1,14.3-11.6c0.4,0,0.8,0,1.2,0
		c53.6,0,107.2,0,160.8,0c7.5,0,13.4,4.3,15.4,11.1c0.3,1,0.6,2.1,0.6,3.2C221.7,60.9,221.6,66.3,221.6,72z"/>
	<path class="st0" d="M165.2,27.3c-26.8,0-53.3,0-80.1,0c0-0.8,0-1.6,0-2.3c0-4.1,0-8.2,0-12.3c0-6.1,2.3-8.4,8.3-8.4
		c14.5,0,28.9,0,43.4,0c6.8,0,13.7,0,20.5,0c5.4,0,7.9,2.5,7.9,7.9C165.2,17.2,165.2,22.1,165.2,27.3z"/>
</g>
</svg>
