<svg xmlns="http://www.w3.org/2000/svg" width="21.5" height="21.5" viewBox="0 0 21.5 21.5">
  <g id="Category" transform="translate(0.75 0.75)">
    <path id="Combined_Shape" data-name="Combined Shape" d="M14.286,20a2.459,2.459,0,0,1-2.449-2.47V14.237a2.46,2.46,0,0,1,2.449-2.471h3.266A2.46,2.46,0,0,1,20,14.237V17.53A2.459,2.459,0,0,1,17.552,20ZM2.449,20A2.459,2.459,0,0,1,0,17.53V14.237a2.46,2.46,0,0,1,2.449-2.471H5.714a2.46,2.46,0,0,1,2.449,2.471V17.53A2.459,2.459,0,0,1,5.714,20ZM14.286,8.234a2.46,2.46,0,0,1-2.449-2.47V2.47A2.46,2.46,0,0,1,14.286,0h3.266A2.459,2.459,0,0,1,20,2.47V5.765a2.46,2.46,0,0,1-2.448,2.47Zm-11.837,0A2.46,2.46,0,0,1,0,5.765V2.47A2.46,2.46,0,0,1,2.449,0H5.714A2.46,2.46,0,0,1,8.163,2.47V5.765a2.46,2.46,0,0,1-2.449,2.47Z" fill="none" stroke="#a9b5e6" stroke-linecap="round" stroke-linejoin="round" stroke-miterlimit="10" stroke-width="1.5"/>
  </g>
</svg>
