<svg id="Group_10" data-name="Group 10" xmlns="http://www.w3.org/2000/svg" width="166.818" height="166.857" viewBox="0 0 166.818 166.857">
  <path id="Path_23" data-name="Path 23" d="M713.058,180.949q-15.725,0-31.449,0c-4.908,0-7-2.13-6.887-6.99.435-18.7,15.379-34.545,34.371-36.432,19.79-1.966,37.205,10.507,41.528,29.843a42.482,42.482,0,0,1,.856,7.571c.14,3.556-2.173,5.9-5.755,5.988-3.183.077-6.37.02-9.556.02Z" transform="translate(-674.718 -94.163)" fill="#888"/>
  <path id="Path_24" data-name="Path 24" d="M906.916,353.4q-15.985,0-31.97,0c-4.245,0-6.406-2.213-6.348-6.459.283-20.726,17.983-37.614,38.908-37.123,19.022.446,33.858,13.037,37.344,31.75a35.79,35.79,0,0,1,.523,5.523c.112,4-2.165,6.3-6.138,6.308Q923.075,353.41,906.916,353.4Z" transform="translate(-778.558 -186.542)" fill="#888"/>
  <path id="Path_25" data-name="Path 25" d="M754.473,63.8a19.37,19.37,0,1,1-19.29-19.409A19.42,19.42,0,0,1,754.473,63.8Z" transform="translate(-696.685 -44.388)" fill="#888"/>
  <path id="Path_26" data-name="Path 26" d="M909.514,236.174a19.371,19.371,0,1,1,19.219,19.457A19.452,19.452,0,0,1,909.514,236.174Z" transform="translate(-800.473 -136.741)" fill="#888"/>
  <path id="Path_27" data-name="Path 27" d="M865.651,74.253c5.153,0,10.306-.016,15.459,0a27.759,27.759,0,0,1,27.983,28.014c.027,7.469.012,14.938,0,22.407,0,3.672-2.3,6.224-5.556,6.227s-5.557-2.557-5.562-6.224c-.009-7.3.006-14.591-.005-21.886-.017-10.241-7.131-17.4-17.335-17.413-10.537-.018-21.075,0-31.612-.015a10.2,10.2,0,0,1-2.572-.261,5.507,5.507,0,0,1,1.309-10.83c5.963-.052,11.927-.016,17.89-.016Z" transform="translate(-764.5 -60.38)" fill="#888"/>
  <path id="Path_28" data-name="Path 28" d="M762.082,308.106c-5.377,0-10.814.518-16.118-.1-12.767-1.5-23.087-13.178-23.38-26.08-.185-8.16-.071-16.327-.036-24.49a5.551,5.551,0,1,1,11.1.137c.032,7.411.005,14.822.013,22.233.011,10.433,7.111,17.513,17.576,17.525,8.048.009,16.1-.013,24.143.01,3.38.01,5.83,2.219,5.953,5.273a5.436,5.436,0,0,1-5.525,5.828c-4.573.05-9.148.013-13.722.013Z" transform="translate(-700.299 -155.477)" fill="#888"/>
</svg>
