<svg id="Group_4" data-name="Group 4" xmlns="http://www.w3.org/2000/svg" width="140.177" height="140.111" viewBox="0 0 140.177 140.111">
  <path id="Path_10" data-name="Path 10" d="M977.558,216.906v13.965H837.381V216.831h21.084V90.76h98.076V216.906Zm-56.136-28.022H893.59v27.873h27.831Zm-7.043-14.171V160.877H900.562v13.836Zm.025-69.946H900.561v13.852H914.4Zm-13.868,28.043v13.873h13.851V132.809Zm-14.189-14.194V104.746H872.5v13.868Zm56.1-13.872H928.595V118.61h13.846Zm-69.964,41.934h13.851V132.848H872.477Zm69.939.035v-13.85h-13.79v13.85Zm-69.945,27.965h13.858V160.858H872.471Zm69.96.038v-13.86H928.606v13.86Z" transform="translate(-837.381 -90.76)" fill="#888"/>
</svg>
