<svg id="Group_15" data-name="Group 15" xmlns="http://www.w3.org/2000/svg" width="127.335" height="144.913" viewBox="0 0 127.335 144.913">
  <path id="Path_48" data-name="Path 48" d="M740.743,16.029c3.414.637,6.9,1.025,10.228,1.959A46.576,46.576,0,0,1,783.429,52.5c2.66,12.34.89,24.053-5.871,34.745-11.681,18.473-23.577,36.81-35.383,55.2-.178.277-.352.559-.538.83-2.03,2.945-5.472,2.963-7.448-.025-2.209-3.339-4.335-6.733-6.5-10.1-9.736-15.189-19.518-30.348-29.19-45.579a44.86,44.86,0,0,1-6.569-32.607,46.434,46.434,0,0,1,36.6-37.971c2.153-.462,4.365-.647,6.549-.961Zm18.388,46.689a21.217,21.217,0,1,0-21.253,21.216A21.287,21.287,0,0,0,759.131,62.718Z" transform="translate(-674.211 -16.029)" fill="#888"/>
  <path id="Path_49" data-name="Path 49" d="M710.073,338.958c-15.959-.139-28.637-1.372-41.019-4.851-6.97-1.958-13.762-4.418-19.385-9.16a22.131,22.131,0,0,1-4.894-5.759c-2.724-4.754-1.758-10.215,2.173-14.608,3.975-4.442,9.074-7.169,14.544-9.2,3.609-1.342,7.365-2.281,11.027-3.489.986-.325,1.4-.015,1.9.773q10.142,15.909,20.336,31.785c2.6,4.067,6.174,6.559,11.054,6.908,5.079.363,9.339-1.407,12.283-5.571,2.961-4.188,5.616-8.595,8.389-12.916,4.3-6.7,8.605-13.4,12.85-20.133a1.605,1.605,0,0,1,2.145-.819c6.342,1.679,12.577,3.618,18.28,6.961a25.811,25.811,0,0,1,8.369,7.262,12.576,12.576,0,0,1-1.142,16.219c-3.661,3.987-8.213,6.573-13.113,8.623a99.76,99.76,0,0,1-27.906,6.756C719.651,338.425,713.291,338.719,710.073,338.958Z" transform="translate(-643.229 -194.045)" fill="#888"/>
</svg>
