<svg xmlns="http://www.w3.org/2000/svg" width="130.912" height="140.111" viewBox="0 0 130.912 140.111">
  <g id="Group_1" data-name="Group 1" transform="translate(0 0)">
    <path id="Path_1" data-name="Path 1" d="M861.116,380.912a13.4,13.4,0,0,1-.262-1.879c-.016-11.27-.039-22.541,0-33.811.018-5.017,1.824-9.158,6.289-11.845a11.417,11.417,0,0,1,6.044-1.417c10.953-.008,21.907.067,32.859-.028,7.43-.064,11.763,5.571,12.245,11.486.17,2.086.092,4.195.094,6.293q.012,14.51,0,29.02c0,.727-.024,1.455-.037,2.182Z" transform="translate(-787.489 -240.801)" fill="#888"/>
    <path id="Path_2" data-name="Path 2" d="M669.34,92.111V189.18h57.9v7.9h-65.83V84.139H766.131v36.888h-7.839V92.111Z" transform="translate(-661.405 -84.139)" fill="#888"/>
    <path id="Path_3" data-name="Path 3" d="M923.577,225.593c.318,11.747-9.345,21.634-21.432,21.93a21.76,21.76,0,1,1-.536-43.517C913.439,203.749,923.247,213.386,923.577,225.593Z" transform="translate(-799.665 -159.92)" fill="#888"/>
    <path id="Path_4" data-name="Path 4" d="M713.987,163.724v-8.2h65.986v8.2Z" transform="translate(-694.649 -129.271)" fill="#888"/>
    <path id="Path_5" data-name="Path 5" d="M713.911,305.8v-8.317h1.5q27.02,0,54.041-.024a2.01,2.01,0,0,1,2.024,1.174c.992,1.73,2.138,3.371,3.179,4.984a17.573,17.573,0,0,1-9.323,2.243c-16.508-.132-33.017-.06-49.525-.06Z" transform="translate(-694.601 -219.007)" fill="#888"/>
    <path id="Path_6" data-name="Path 6" d="M714,234.888v-8.306h56.71c-.836,2.631-1.66,5.256-2.521,7.868-.063.189-.378.349-.607.415a3.046,3.046,0,0,1-.816.024H714Z" transform="translate(-694.659 -174.196)" fill="#888"/>
  </g>
</svg>
