<svg id="Group_17" data-name="Group 17" xmlns="http://www.w3.org/2000/svg" width="137.891" height="137.897" viewBox="0 0 137.891 137.897">
  <path id="Path_50" data-name="Path 50" d="M618.528,146.779a4.132,4.132,0,0,1,4.131-2.907c.494,1.435.936,2.884,1.487,4.29,4.732,12.091,11.248,23.029,20.9,31.889a29.027,29.027,0,0,0,12.361,7.09c5.117,1.325,9.862.2,14.365-2.294,5.679-3.146,10.142-7.672,14.09-12.722a86.57,86.57,0,0,0,14.686-27.479c.079-.25.175-.495.253-.714,2.481-.021,4.01,1.343,4.169,3.659.024.358.013.718.013,1.076q0,36.211,0,72.422c0,.314.008.629-.009.942a3.873,3.873,0,0,1-4.154,3.962c-12.34.007-24.679.021-37.018-.023-1.2,0-1.756.252-2.136,1.5A15.424,15.424,0,0,1,632.1,227.2a1.377,1.377,0,0,0-1.648-1.218c-2.287.059-4.584-.1-6.863.051-2.468.163-4.155-.714-5.062-3.028Zm21.009,76.079a7.4,7.4,0,1,0,7.482-7.392A7.427,7.427,0,0,0,639.537,222.858Z" transform="translate(-618.528 -100.452)" fill="#888"/>
  <path id="Path_51" data-name="Path 51" d="M693.515-17.021a76.544,76.544,0,0,1,8.573,2.121,32.187,32.187,0,0,1,21.006,32.922c-.477,5.789-2.531,11.163-5.043,16.353-4.04,8.349-9.112,15.974-16.124,22.143a38.035,38.035,0,0,1-5.825,4.066c-3.626,2.141-7.324,1.974-11-.033a39.971,39.971,0,0,1-11.831-10.434c-6.68-8.3-11.859-17.413-14.307-27.871-4.145-17.712,8.014-35.766,26-38.75.968-.161,1.932-.345,2.9-.518ZM690.67,2.61A12.943,12.943,0,1,0,703.645,15.5,12.962,12.962,0,0,0,690.67,2.61Z" transform="translate(-647.459 17.021)" fill="#888"/>
  <path id="Path_52" data-name="Path 52" d="M993.381,214.285H980.432c-3.135,0-4.98,1.479-5,4-.02,2.584,1.828,4.074,5.059,4.075q8.483,0,16.966,0c7.832.009,13.226,5.357,13.246,13.165.02,7.675.008,15.35,0,23.025,0,3.153-1.575,4.807-4.692,4.706-1.5-.049-2.164.3-2.666,1.886a15.251,15.251,0,0,1-15.117,10.524,15.444,15.444,0,0,1-14.348-11.244c-.261-.939-.633-1.257-1.547-1.145a9.37,9.37,0,0,1-1.614,0,4.052,4.052,0,0,1-3.9-3.883c-.012-.224-.007-.449-.007-.673q0-29.622,0-59.245c0-2.476,1.223-4.148,3.394-4.452a5.926,5.926,0,0,1,2.366.277,29.4,29.4,0,0,1,16.831,12.438C990.765,209.792,991.963,211.941,993.381,214.285Zm-12.022,45.884a7.4,7.4,0,1,0,7.494-7.372A7.415,7.415,0,0,0,981.359,260.169Z" transform="translate(-872.824 -137.783)" fill="#888"/>
  <path id="Path_53" data-name="Path 53" d="M765.54,85.66a4.864,4.864,0,1,1-4.963,4.78A4.862,4.862,0,0,1,765.54,85.66Z" transform="translate(-722.242 -57.95)" fill="#888"/>
</svg>
