<svg id="Group_3" data-name="Group 3" xmlns="http://www.w3.org/2000/svg" width="176.898" height="129.014" viewBox="0 0 176.898 129.014">
  <path id="Path_7" data-name="Path 7" d="M902.04,90.748c-.185.9-.331,1.963-.621,2.981q-15.808,55.486-31.643,110.964c-1.4,4.889-4.89,7.48-9.144,6.829a7.842,7.842,0,0,1-6.623-9.943c3.078-11.127,6.287-22.219,9.452-33.322q11.3-39.646,22.613-79.29c1.172-4.105,4.112-6.419,8.021-6.359a7.893,7.893,0,0,1,7.583,5.931C901.858,89.2,901.9,89.9,902.04,90.748Z" transform="translate(-789.342 -82.608)" fill="#888"/>
  <path id="Path_8" data-name="Path 8" d="M1048.821,185.99c-.714-.747-1.175-1.248-1.655-1.729q-12.378-12.407-24.763-24.808a7.856,7.856,0,0,1-2.213-8.284,7.66,7.66,0,0,1,6.116-5.515,7.458,7.458,0,0,1,7.1,2.106q16.222,16.159,32.356,32.407a7.828,7.828,0,0,1-.029,11.35q-16.05,16.2-32.223,32.273a7.875,7.875,0,0,1-11.332.013,8,8,0,0,1,.142-11.492q12.341-12.446,24.758-24.814C1047.561,187.008,1048.119,186.591,1048.821,185.99Z" transform="translate(-891.282 -121.186)" fill="#888"/>
  <path id="Path_9" data-name="Path 9" d="M706.1,185.894a20.093,20.093,0,0,1,2.029,1.51q12.4,12.383,24.769,24.8a7.826,7.826,0,0,1,2.159,8.3,7.655,7.655,0,0,1-6.144,5.48,7.49,7.49,0,0,1-7.085-2.147q-16.214-16.165-32.346-32.412a7.766,7.766,0,0,1-.037-11.2q16.1-16.273,32.344-32.412A8.01,8.01,0,1,1,733.051,159.2c-8.159,8.273-16.4,16.471-24.612,24.688C707.863,184.461,707.2,184.951,706.1,185.894Z" transform="translate(-687.076 -121.159)" fill="#888"/>
</svg>
