<svg id="Group_8" data-name="Group 8" xmlns="http://www.w3.org/2000/svg" width="136.945" height="150.178" viewBox="0 0 136.945 150.178">
  <path id="Path_19" data-name="Path 19" d="M657.8,284.332a5.322,5.322,0,0,1,3.251-3.3c1.306-.565,2.553-1.265,3.835-1.886,4.685-2.268,9.12-.806,11.469,3.833,2.535,5.005,5.016,10.037,7.52,15.058q6.141,12.313,12.279,24.627c2.584,5.189,1.123,9.476-4.093,12.076-1.7.849-3.394,1.722-5.091,2.583h-2.141a6.956,6.956,0,0,1-3.2-3.548q-7.7-15.544-15.5-31.04-4.145-8.272-8.328-16.526Z" transform="translate(-657.8 -187.141)" fill="#888"/>
  <path id="Path_20" data-name="Path 20" d="M729.108,246.769c4.834-4.45,9.766-8.747,16.283-10.578,10.094-2.837,19.244-1.041,27.181,5.917a8.464,8.464,0,0,0,6.139,2.312c6.285-.122,12.574-.087,18.861-.026a8.02,8.02,0,1,1-.059,16.034c-5.172.032-10.345-.015-15.518.019-3.092.02-5.03,2.7-3.968,5.45a3.693,3.693,0,0,0,3.591,2.539c6.331.045,12.665.107,18.994-.03a8.406,8.406,0,0,0,6.457-3.32q10.448-12.879,20.931-25.73a7.875,7.875,0,0,1,8.907-2.513,7.636,7.636,0,0,1,5.226,7.6,10.2,10.2,0,0,1-1.63,4.827c-7.692,11.206-15.41,22.4-23.341,33.436a22.917,22.917,0,0,1-19.277,9.809c-15.026.116-30.054.042-45.081,0a1.733,1.733,0,0,1-1.3-.749q-11.17-22.267-22.257-44.575A3.324,3.324,0,0,1,729.108,246.769Z" transform="translate(-705.207 -158.428)" fill="#888"/>
  <path id="Path_21" data-name="Path 21" d="M852.527,143.264a28.81,28.81,0,0,1,7.5,17.734c.129,2.042.079,4.1.058,6.146-.033,3.246-2,5.2-5.294,5.208-9.222.02-18.445.007-27.667.008q-9.951,0-19.9,0c-3.9,0-5.672-1.851-5.768-5.741-.139-5.664.217-11.244,2.927-16.36,1.3-2.452,2.914-4.739,4.436-7.181C820.881,155.976,840.542,156.175,852.527,143.264Z" transform="translate(-741.332 -103.703)" fill="#888"/>
  <path id="Path_22" data-name="Path 22" d="M864.678,65.788a19.743,19.743,0,0,1-19.435,19.726,19.752,19.752,0,1,1,.052-39.5A19.745,19.745,0,0,1,864.678,65.788Z" transform="translate(-755.638 -46.011)" fill="#888"/>
</svg>
