<svg id="Group_7" data-name="Group 7" xmlns="http://www.w3.org/2000/svg" width="170.688" height="148.951" viewBox="0 0 170.688 148.951">
  <path id="Path_13" data-name="Path 13" d="M621.251,269.526c9.352-17.868,28.043-23.207,44.569-11.834-18.123,17.629-13.677,40.617-14.3,63.7-10.533-1.87-21.916,4.486-30.272-6.506Z" transform="translate(-621.251 -182.974)" fill="#888"/>
  <path id="Path_14" data-name="Path 14" d="M754.9,332.143c-9.772,0-19.545.1-29.316-.027-9.919-.128-14.4-4.378-14.37-14.236.036-10.865.191-21.771,1.158-32.58.8-8.938,5.8-15.942,12.19-22.288,13.715-13.629,51.777-16.462,66.414,3.548,4.193,5.732,8.148,12.669,9.125,19.5,1.654,11.553,1.183,23.466.938,35.213-.125,5.983-3.79,10.04-10.208,10.133-11.974.175-23.953.05-35.93.05Z" transform="translate(-670.964 -183.228)" fill="#888"/>
  <path id="Path_15" data-name="Path 15" d="M775.908,98.086a29.058,29.058,0,1,1-28.934,28.838A29.369,29.369,0,0,1,775.908,98.086Z" transform="translate(-690.721 -98.085)" fill="#888"/>
  <path id="Path_16" data-name="Path 16" d="M902.028,257.667c11.108-6.574,21.687-7.075,32.076-2.594,9.865,4.255,13.234,12.9,12.971,23.372-.255,10.188.007,20.389-.077,30.583-.07,8.489-3.622,12.149-12.083,12.391-5.722.164-11.452.031-17.962.031C915.632,299.367,921.024,276.076,902.028,257.667Z" transform="translate(-776.401 -183.213)" fill="#888"/>
  <path id="Path_17" data-name="Path 17" d="M657.987,145.873a18.338,18.338,0,1,1-18.146,18.371A18.613,18.613,0,0,1,657.987,145.873Z" transform="translate(-631.523 -124.491)" fill="#888"/>
  <path id="Path_18" data-name="Path 18" d="M920.335,145.876A18.338,18.338,0,1,1,902,164.061,18.6,18.6,0,0,1,920.335,145.876Z" transform="translate(-776.386 -124.493)" fill="#888"/>
</svg>
