<svg xmlns="http://www.w3.org/2000/svg" width="149.735" height="159.489" viewBox="0 0 149.735 159.489">
  <g id="Group_14" data-name="Group 14" transform="translate(0 0)">
    <path id="Path_30" data-name="Path 30" d="M843.764,324.491q-19.524,0-39.047,0c-3.12,0-3.8-.66-3.769-3.814.055-6.42-.17-12.861.286-19.254,1.051-14.733,14.408-26.865,29.2-26.874q13.471-.009,26.941,0c14.773.015,28.027,12.064,29.051,26.783.468,6.733.257,13.516.273,20.277.005,2.052-1.066,2.877-3.373,2.879Q863.544,324.5,843.764,324.491Z" transform="translate(-768.965 -165.003)" fill="#888"/>
    <path id="Path_31" data-name="Path 31" d="M891.163,180.863c-.586,9.974-4.34,18.45-11.873,25.019-6.023,5.253-13.406,5.343-19.327-.024-8.276-7.5-12.615-16.918-11.435-28.235C849.6,167.4,859.1,159.464,869.6,159.5c10.75.033,19.872,7.835,21.234,18.173C890.971,178.736,891.055,179.811,891.163,180.863Z" transform="translate(-794.766 -102.378)" fill="#888"/>
    <path id="Path_32" data-name="Path 32" d="M881.841,55.785a10.756,10.756,0,0,1-10.608-10.863,10.864,10.864,0,1,1,10.608,10.863Z" transform="translate(-807.228 -34.143)" fill="#888"/>
    <path id="Path_33" data-name="Path 33" d="M752.434,283.6a10.735,10.735,0,0,1-10.82,10.819,10.858,10.858,0,1,1,10.82-10.819Z" transform="translate(-730.767 -164.003)" fill="#888"/>
    <path id="Path_34" data-name="Path 34" d="M1011.832,283.564a10.832,10.832,0,1,1,10.821,10.858A10.926,10.926,0,0,1,1011.832,283.564Z" transform="translate(-883.763 -164.003)" fill="#888"/>
    <path id="Path_35" data-name="Path 35" d="M741.481,133.591a10.833,10.833,0,0,1-.072-21.664,11.205,11.205,0,0,1,11.026,10.949A10.853,10.853,0,0,1,741.481,133.591Z" transform="translate(-730.768 -76.484)" fill="#888"/>
    <path id="Path_36" data-name="Path 36" d="M1022.6,133.591a10.7,10.7,0,0,1-10.764-10.863,10.883,10.883,0,0,1,10.71-10.806A11.261,11.261,0,0,1,1033.5,122.8,10.888,10.888,0,0,1,1022.6,133.591Z" transform="translate(-883.763 -76.481)" fill="#888"/>
    <path id="Path_37" data-name="Path 37" d="M817.815,66.751l2.131,4.758L784.21,92.268l-2.666-4.478Z" transform="translate(-758.407 -51.893)" fill="#888"/>
    <path id="Path_38" data-name="Path 38" d="M924.5,72.169c.727-1.614,1.4-3.1,2.139-4.745l36.195,20.717-2.666,4.483Z" transform="translate(-836.226 -52.259)" fill="#888"/>
    <path id="Path_39" data-name="Path 39" d="M754.094,212.063h-5.042V170.915h5.042Z" transform="translate(-740.72 -108.594)" fill="#888"/>
    <path id="Path_40" data-name="Path 40" d="M1030.117,170.911h5.036V212h-5.036Z" transform="translate(-893.716 -108.591)" fill="#888"/>
    <path id="Path_41" data-name="Path 41" d="M782.225,255.124l27.867-16.037,2.383,4.763-27.584,16.019Z" transform="translate(-758.778 -145.703)" fill="#888"/>
    <path id="Path_42" data-name="Path 42" d="M943.947,239.065l27.622,16.045-2.676,4.744-27.322-16.026Z" transform="translate(-845.516 -145.691)" fill="#888"/>
    <path id="Path_43" data-name="Path 43" d="M809.439,161.946l-2.169,5-25.675-14.67,2.668-4.742Z" transform="translate(-758.435 -95.864)" fill="#888"/>
    <path id="Path_44" data-name="Path 44" d="M949.907,167.016c-.651-1.664-1.267-3.237-1.944-4.966l24.86-14.405,2.462,4.716Z" transform="translate(-848.996 -95.927)" fill="#888"/>
    <path id="Path_45" data-name="Path 45" d="M894.618,117.946h-5.128V92.6h5.128Z" transform="translate(-817.167 -65.962)" fill="#888"/>
    <path id="Path_46" data-name="Path 46" d="M783.623,309.545l3.264,1.727-1.536,5.251-4.374-2.493Z" transform="translate(-758.098 -184.056)" fill="#888"/>
    <path id="Path_47" data-name="Path 47" d="M996.351,311.26l2.918-1.7,2.677,4.454-3.973,2.5Z" transform="translate(-875.336 -184.064)" fill="#888"/>
  </g>
</svg>
