<svg id="Group_12" data-name="Group 12" xmlns="http://www.w3.org/2000/svg" width="170.688" height="170.325" viewBox="0 0 170.688 170.325">
  <path id="Path_29" data-name="Path 29" d="M832.342,207.692V197.36c.2-1.478.362-2.96.6-4.432.444-2.776,1.883-4.061,4.646-4.317a49.234,49.234,0,0,0,5.278-.652,18.672,18.672,0,0,0,9.129-31.855c-2.323-2.349-2.5-4.786-.606-7.12a84.634,84.634,0,0,1,13.373-13.194,4.794,4.794,0,0,1,6.51.281c.58.518,1.119,1.086,1.725,1.569,5.252,4.18,11.194,5.647,17.662,3.864a18.136,18.136,0,0,0,13.4-17.135c.16-5.176,2.4-6.667,6.7-6.67,4.824,0,9.648-.022,14.472.022,4.467.041,6.833,1.653,6.61,6.661a8.116,8.116,0,0,0,.031.831,18.487,18.487,0,0,0,18.52,17.489,19.543,19.543,0,0,0,14.056-5.857c2.185-2.143,4.662-2.3,6.873-.514a84.265,84.265,0,0,1,13.207,13.36,4.737,4.737,0,0,1-.18,6.256c-.5.591-1.048,1.148-1.573,1.721-8.726,9.521-5.015,25.4,7.082,29.9a31.015,31.015,0,0,0,6.968,1.415c3.31.411,5.353,1.87,5.668,4.609a77.125,77.125,0,0,1-.1,19.105,4.685,4.685,0,0,1-4.55,4.07c-1.163.052-2.328.1-3.487.2a18.8,18.8,0,0,0-16.794,17.917,19.077,19.077,0,0,0,5.915,14.5c2.178,2.187,2.375,4.677.616,6.864a82.931,82.931,0,0,1-13.6,13.431,4.772,4.772,0,0,1-6.255-.248c-.588-.508-1.139-1.06-1.727-1.567-7.281-6.278-20.143-7.075-27.474,2.656a19.557,19.557,0,0,0-3.853,11.469c-.129,3.81-1.751,5.329-5.55,5.65-.986.084-1.965.249-2.946.378H912.348a20.966,20.966,0,0,0-2.433-.35c-4.5-.14-6.591-1.971-6.381-6.561a9.411,9.411,0,0,0-.036-1,18.491,18.491,0,0,0-18.581-17.424A19.421,19.421,0,0,0,871,268.468c-2.235,2.187-4.67,2.415-6.86.66a83.893,83.893,0,0,1-13.323-13.47,4.709,4.709,0,0,1-.273-5.594,24.17,24.17,0,0,1,2.081-2.377,18.813,18.813,0,0,0-13.559-31.316c-4.29-.16-6.123-2.01-6.384-6.228C832.634,209.321,832.459,208.509,832.342,207.692Zm111.685,36.446c-.21-.26-.331-.444-.484-.6-6.792-6.8-13.6-13.581-20.359-20.415-.779-.788-1.393-.543-2.2-.25a29.191,29.191,0,0,1-19.761.354A30.044,30.044,0,0,1,881.231,188c.348-1.653.782-3.155,2.62-3.686,1.781-.513,2.924.545,4.055,1.676,4.165,4.163,8.367,8.289,12.511,12.471a3.673,3.673,0,0,0,3.426,1.215c2.9-.471,5.807-.923,8.719-1.326a1.867,1.867,0,0,0,1.776-1.833q.612-4.281,1.316-8.549a3.884,3.884,0,0,0-1.317-3.7c-4.326-4.235-8.582-8.544-12.822-12.866-2.2-2.237-1.495-5.326,1.424-5.92a36.928,36.928,0,0,1,8.068-.99,30.053,30.053,0,0,1,27.841,40.535,1.958,1.958,0,0,0,.581,2.43q9.709,9.618,19.347,19.307c.341.339.713.647,1.083.98,11.2-17.721,9.776-45.455-10.5-62.642a49.264,49.264,0,0,0-66.25,2.6c-17.9,17.414-19.561,46.383-3.5,66.074A49.047,49.047,0,0,0,944.027,244.138Z" transform="translate(-832.342 -117.693)" fill="#888"/>
</svg>
