<svg id="Group_5" data-name="Group 5" xmlns="http://www.w3.org/2000/svg" width="156.907" height="146.72" viewBox="0 0 156.907 146.72">
  <path id="Path_11" data-name="Path 11" d="M653.8,147.548H810.707v2.292q0,42.685,0,85.371a15.865,15.865,0,0,1-13.887,16.111,24.843,24.843,0,0,1-3.711.283q-62.568.021-125.135.011c-8.416,0-13.758-5.144-14.145-13.608-.029-.648-.028-1.3-.028-1.947q0-43.335,0-86.67ZM779.422,175.8c0-2.051.031-4.1-.008-6.154a3.781,3.781,0,0,0-4.064-4.041q-5.912-.053-11.824,0a3.777,3.777,0,0,0-4.128,4q-.126,5.99,0,11.985a3.691,3.691,0,0,0,3.81,3.989q6.311.168,12.629-.023c2.414-.077,3.532-1.451,3.577-3.918C779.451,179.691,779.423,177.746,779.422,175.8ZM730.233,229.59c2,0,4,.024,5.993-.006,2.7-.041,4.028-1.235,4.09-3.933.092-3.993.086-7.991.008-11.984a3.787,3.787,0,0,0-4.056-4.091c-3.993-.073-7.991-.08-11.984.006-2.551.054-3.945,1.582-3.966,4.152q-.046,5.83,0,11.661c.02,2.7,1.511,4.154,4.248,4.191C726.454,229.613,728.344,229.592,730.233,229.59Zm49.183-9.926h.009V214c0-.108,0-.216,0-.324-.072-2.453-1.442-4.023-3.882-4.08q-6.152-.143-12.308,0a3.589,3.589,0,0,0-3.794,3.645q-.18,6.391.021,12.789a3.6,3.6,0,0,0,3.879,3.542q6.154.071,12.309-.005a3.466,3.466,0,0,0,3.756-3.747C779.461,223.769,779.417,221.716,779.417,219.665ZM720.31,175.521c0,1.944-.019,3.887,0,5.831.033,2.653,1.4,4.191,4.041,4.25q6.07.135,12.145-.015c2.49-.065,3.728-1.269,3.792-3.72q.165-6.23,0-12.468a3.671,3.671,0,0,0-3.978-3.791q-5.992-.057-11.985,0c-2.5.024-3.967,1.535-4.012,4.082C720.283,171.634,720.311,173.578,720.31,175.521Zm-38.621,44.046c0,1.945-.022,3.889.005,5.834.037,2.63,1.5,4.152,4.1,4.179q5.671.059,11.343,0c2.684-.024,4.484-1.594,4.56-4.237.115-3.993.1-7.995-.019-11.988a3.646,3.646,0,0,0-3.858-3.766c-4.1-.089-8.211-.1-12.313.009-2.427.062-3.777,1.643-3.814,4.135C681.666,215.677,681.689,217.622,681.688,219.567ZM691.724,165.6c-2,0-4-.028-6,.007a3.767,3.767,0,0,0-4.03,4.073q-.053,5.914,0,11.829c.02,2.4,1.342,3.978,3.714,4.054,4.046.131,8.1.124,12.148,0a4.044,4.044,0,0,0,4.133-4.15q.17-6.071-.03-12.15c-.076-2.285-1.652-3.611-3.944-3.656C695.722,165.567,693.723,165.6,691.724,165.6Z" transform="translate(-653.8 -104.897)" fill="#888"/>
  <path id="Path_12" data-name="Path 12" d="M810.412,81.427H654.262c0-6.861-.286-13.628.088-20.358a12.645,12.645,0,0,1,13.558-11.851c3.89.143,7.789.024,11.685.024h1.769v3.533c0,3.409-.007,6.817,0,10.225.01,3.558,1.925,5.781,4.942,5.762,2.967-.019,4.839-2.187,4.853-5.668.016-3.949,0-7.9,0-11.848V49.361h78.1c.031.582.086,1.154.087,1.727.009,4.22-.031,8.44.025,12.659a4.891,4.891,0,0,0,3.566,4.863,4.652,4.652,0,0,0,5.264-1.934,7.72,7.72,0,0,0,.914-3.52c.109-4,.042-8.006.042-12.009v-1.9c4.839,0,9.483-.136,14.114.058a21.1,21.1,0,0,1,6.781,1.294c5.307,2.1,9.1,5.744,10.24,11.617a4.258,4.258,0,0,1,.1.8C810.413,69.119,810.412,75.224,810.412,81.427Z" transform="translate(-654.002 -49.196)" fill="#888"/>
</svg>
