<svg id="Message" xmlns="http://www.w3.org/2000/svg" width="32" height="32" viewBox="0 0 32 32">
  <rect id="Rectangle" width="32" height="32" fill="#fff"/>
  <g id="Message-2" data-name="Message" transform="translate(5 6)">
    <path id="Path" d="M13.136,0,8.184,3.988A2.581,2.581,0,0,1,5,3.988L0,0" transform="translate(4.591 7.038)" fill="none" stroke="#4b40d7" stroke-linecap="round" stroke-linejoin="round" stroke-miterlimit="10" stroke-width="1.5"/>
    <path id="Path-2" data-name="Path" d="M5.675,0H16.622a5.756,5.756,0,0,1,4.157,1.846,5.825,5.825,0,0,1,1.54,4.3v7.58a5.825,5.825,0,0,1-1.54,4.3,5.755,5.755,0,0,1-4.157,1.846H5.675C2.285,19.874,0,17.116,0,13.727V6.147C0,2.758,2.285,0,5.675,0Z" transform="translate(0 0.581)" fill="none" stroke="#4b40d7" stroke-linecap="round" stroke-linejoin="round" stroke-miterlimit="10" stroke-width="1.5"/>
  </g>
</svg>
