<svg id="Notification" xmlns="http://www.w3.org/2000/svg" width="32" height="32" viewBox="0 0 32 32">
  <rect id="Rectangle" width="32" height="32" fill="#fff"/>
  <path id="Path" d="M0,14.178v-.263a4.557,4.557,0,0,1,.672-2.187A6.026,6.026,0,0,0,2.007,8.945c0-.8,0-1.615.065-2.417A7.425,7.425,0,0,1,9.457,0h.087a7.444,7.444,0,0,1,7.4,6.528c.065.8,0,1.615.054,2.417a6.132,6.132,0,0,0,1.334,2.794A4.439,4.439,0,0,1,19,13.915v.252a4.5,4.5,0,0,1-.943,2.875,4.9,4.9,0,0,1-3.188,1.649,46.829,46.829,0,0,1-10.746,0A4.956,4.956,0,0,1,.933,17.042,4.545,4.545,0,0,1,0,14.178Z" transform="translate(7 4)" fill="none" stroke="#4b40d7" stroke-linecap="round" stroke-linejoin="round" stroke-miterlimit="10" stroke-width="1.5"/>
  <path id="Path-2" data-name="Path" d="M0,0A3.378,3.378,0,0,0,2.117.981,3.669,3.669,0,0,0,4.456.439,2.839,2.839,0,0,0,5,0" transform="translate(14 26)" fill="none" stroke="#4b40d7" stroke-linecap="round" stroke-linejoin="round" stroke-miterlimit="10" stroke-width="1.5"/>
</svg>
