<svg xmlns="http://www.w3.org/2000/svg" width="19.589" height="20.722" viewBox="0 0 19.589 20.722">
  <g id="Bag" transform="translate(0.141 0.472)">
    <path id="Path" d="M4.874,14.682h8.348c3.066,0,5.419-1.108,4.751-5.565l-.778-6.041C16.782.851,15.364,0,14.119,0H3.94C2.677,0,1.341.915.865,3.076L.087,9.117C-.481,13.071,1.808,14.682,4.874,14.682Z" transform="translate(0.612 4.818)" fill="none" stroke="#a9b5e6" stroke-linecap="round" stroke-linejoin="round" stroke-miterlimit="10" stroke-width="1.5"/>
    <path id="Path-2" data-name="Path" d="M0,4.32A4.32,4.32,0,0,1,4.32,0h0A4.32,4.32,0,0,1,8.659,4.32h0" transform="translate(5.349 0.278)" fill="none" stroke="#a9b5e6" stroke-linecap="round" stroke-linejoin="round" stroke-miterlimit="10" stroke-width="1.5"/>
    <path id="Path-3" data-name="Path" d="M.477.5H.523" transform="translate(6.227 8.602)" fill="none" stroke="#a9b5e6" stroke-linecap="round" stroke-linejoin="round" stroke-miterlimit="10" stroke-width="1.5"/>
    <path id="Path-4" data-name="Path" d="M.477.5H.523" transform="translate(12.057 8.602)" fill="none" stroke="#a9b5e6" stroke-linecap="round" stroke-linejoin="round" stroke-miterlimit="10" stroke-width="1.5"/>
  </g>
</svg>
