<svg xmlns="http://www.w3.org/2000/svg" width="24.209" height="29.919" viewBox="0 0 24.209 29.919">
  <g id="star-fall-svgrepo-com" transform="translate(-3.234 -1.259)">
    <path id="Path_43" data-name="Path 43" d="M10.537,7.535C8.58,8.317,7.6,8.708,7.484,9.518s.7,1.5,2.343,2.891l.424.359a3.054,3.054,0,0,1,.833.86,3.169,3.169,0,0,1,.191,1.2l.035.564c.134,2.18.2,3.269.909,3.645s1.589-.212,3.35-1.386l.456-.3a2.861,2.861,0,0,1,1.037-.546,2.861,2.861,0,0,1,1.155.2l.528.146c2.039.565,3.059.848,3.615.27s.28-1.635-.273-3.747m.48-3.295c1.126-1.83,1.69-2.745,1.325-3.478s-1.416-.8-3.519-.93l-.544-.034a2.866,2.866,0,0,1-1.156-.194,3.044,3.044,0,0,1-.832-.861l-.347-.439c-1.343-1.7-2.015-2.545-2.8-2.419s-1.155,1.141-1.9,3.172" transform="translate(1.507 0)" fill="none" stroke="#690a5e" stroke-linecap="round" stroke-width="1.5"/>
    <path id="Path_44" data-name="Path 44" d="M8.942,7.241C5.594,9.69,3.03,14.374,4.356,22.669c1.174-3.457,4.712-6.227,8.664-7.56" transform="translate(0 2.274)" fill="none" stroke="#690a5e" stroke-linecap="round" stroke-linejoin="round" stroke-width="1.5"/>
    <path id="Path_45" data-name="Path 45" d="M11.27,16A7.38,7.38,0,0,0,13.3,18.68a7.379,7.379,0,0,0,3.307.59,7.38,7.38,0,0,0-2.68,2.026,7.379,7.379,0,0,0-.59,3.307,7.38,7.38,0,0,0-2.026-2.68A7.379,7.379,0,0,0,8,21.333a7.379,7.379,0,0,0,2.68-2.026A7.378,7.378,0,0,0,11.27,16Z" transform="translate(1.736 6.075)" fill="none" stroke="#690a5e" stroke-linejoin="round" stroke-width="1"/>
    <path id="Path_46" data-name="Path 46" d="M19.555,15a4.919,4.919,0,0,1-1.35,1.787,4.919,4.919,0,0,1-2.2.393,4.919,4.919,0,0,1,1.787,1.35,4.919,4.919,0,0,1,.393,2.2,4.919,4.919,0,0,1,1.35-1.787,4.919,4.919,0,0,1,2.2-.393,4.919,4.919,0,0,1-1.787-1.35A4.919,4.919,0,0,1,19.555,15Z" transform="translate(5.207 5.641)" fill="none" stroke="#690a5e" stroke-linejoin="round" stroke-width="1"/>
  </g>
</svg>
