<svg id="testimonial-svgrepo-com" xmlns="http://www.w3.org/2000/svg" width="29" height="29" viewBox="0 0 29 29">
  <rect id="Rectangle_6" data-name="Rectangle 6" width="29" height="29" fill="none"/>
  <g id="Group_3129" data-name="Group 3129" transform="translate(2.856 4.284)">
    <path id="Path_38" data-name="Path 38" d="M4.856,3H21.992a2.751,2.751,0,0,1,2.013.843,2.751,2.751,0,0,1,.843,2.013v10a2.877,2.877,0,0,1-2.856,2.856H20.564l-7.14,7.14v-7.14H4.856a2.751,2.751,0,0,1-2.013-.843A2.751,2.751,0,0,1,2,15.852v-10a2.751,2.751,0,0,1,.843-2.013A2.751,2.751,0,0,1,4.856,3ZM20.564,5.856H4.856V7.284H20.564Zm1.428,4.284H4.856v1.428H21.992Zm-4.284,4.284H4.856v1.428H17.708Z" transform="translate(-2 -3)" fill="#00535a"/>
  </g>
</svg>
