<svg xmlns="http://www.w3.org/2000/svg" width="33.34" height="24.337" viewBox="0 0 33.34 24.337">
  <g id="users-svgrepo-com" transform="translate(-2.25 -4.25)">
    <path id="Path_26" data-name="Path 26" d="M17.85,8.863A3.863,3.863,0,1,1,13.988,5,3.863,3.863,0,0,1,17.85,8.863Z" transform="translate(4.932 0)" fill="none" stroke="#2b5f07" stroke-linecap="round" stroke-linejoin="round" stroke-width="1.5" fill-rule="evenodd"/>
    <path id="Path_27" data-name="Path 27" d="M23.2,17.821c0,2.927-3.459,5.313-7.725,5.313S7.75,20.755,7.75,17.821s3.459-5.312,7.725-5.312S23.2,14.887,23.2,17.821Z" transform="translate(3.445 4.703)" fill="none" stroke="#2b5f07" stroke-linecap="round" stroke-linejoin="round" stroke-width="1.5" fill-rule="evenodd"/>
    <path id="Path_28" data-name="Path 28" d="M21.685,10.43a2.318,2.318,0,1,1-2.318-2.277,2.318,2.318,0,0,1,2.318,2.277Z" transform="translate(9.27 1.975)" fill="none" stroke="#2b5f07" stroke-linecap="round" stroke-linejoin="round" stroke-width="1.5" fill-rule="evenodd"/>
    <path id="Path_29" data-name="Path 29" d="M5.1,10.43A2.318,2.318,0,1,0,7.418,8.153,2.317,2.317,0,0,0,5.1,10.43Z" transform="translate(1.785 1.975)" fill="none" stroke="#2b5f07" stroke-linecap="round" stroke-linejoin="round" stroke-width="1.5" fill-rule="evenodd"/>
    <path id="Path_30" data-name="Path 30" d="M29.844,20.294a1.22,1.22,0,0,0-.218,2.43Zm4.526-2.581,1.212.133a1.215,1.215,0,0,0,0-.266ZM29.626,12.7a1.22,1.22,0,0,0,.218,2.43ZM8.214,22.723A1.22,1.22,0,1,0,8,20.294ZM3.47,17.713l-1.212-.133a1.22,1.22,0,0,0,0,.266ZM8,15.133a1.22,1.22,0,1,0,.218-2.43Zm21.63,7.59a5.5,5.5,0,0,0,5.956-4.878l-2.425-.266a3.059,3.059,0,0,1-3.314,2.714Zm5.956-5.144A5.5,5.5,0,0,0,29.626,12.7l.218,2.43a3.059,3.059,0,0,1,3.314,2.713ZM8,20.294A3.059,3.059,0,0,1,4.682,17.58l-2.425.266a5.5,5.5,0,0,0,5.956,4.878ZM4.682,17.846A3.059,3.059,0,0,1,8,15.133l.218-2.43a5.5,5.5,0,0,0-5.956,4.876Z" transform="translate(0 4.811)" fill="#2b5f07"/>
  </g>
</svg>
