<svg xmlns="http://www.w3.org/2000/svg" width="22.032" height="16.955" viewBox="0 0 22.032 16.955">
  <g id="_3_User" data-name="3 User" transform="translate(0.074 0.563)">
    <path id="Path" d="M0,5.8A2.9,2.9,0,0,0,2.9,2.9,2.9,2.9,0,0,0,0,0" transform="translate(16.595 1.129)" fill="none" stroke="#a9b5e6" stroke-linecap="round" stroke-linejoin="round" stroke-miterlimit="10" stroke-width="1.5"/>
    <path id="Path-2" data-name="Path" d="M0,0A9.436,9.436,0,0,1,1.423.206a2.337,2.337,0,0,1,1.712.978,1.381,1.381,0,0,1,0,1.184,2.361,2.361,0,0,1-1.712.984" transform="translate(17.929 10.085)" fill="none" stroke="#a9b5e6" stroke-linecap="round" stroke-linejoin="round" stroke-miterlimit="10" stroke-width="1.5"/>
    <path id="Path-3" data-name="Path" d="M2.9,5.8A2.9,2.9,0,1,1,2.9,0" transform="translate(2.388 1.129)" fill="none" stroke="#a9b5e6" stroke-linecap="round" stroke-linejoin="round" stroke-miterlimit="10" stroke-width="1.5"/>
    <path id="Path-4" data-name="Path" d="M3.268,0A9.437,9.437,0,0,0,1.845.206a2.334,2.334,0,0,0-1.711.978,1.375,1.375,0,0,0,0,1.184,2.358,2.358,0,0,0,1.711.984" transform="translate(0.688 10.085)" fill="none" stroke="#a9b5e6" stroke-linecap="round" stroke-linejoin="round" stroke-miterlimit="10" stroke-width="1.5"/>
    <path id="Path-5" data-name="Path" d="M6.021,0c3.247,0,6.021.491,6.021,2.457S9.286,4.932,6.021,4.932C2.773,4.932,0,4.441,0,2.475S2.756,0,6.021,0Z" transform="translate(4.917 10.71)" fill="none" stroke="#a9b5e6" stroke-linecap="round" stroke-linejoin="round" stroke-miterlimit="10" stroke-width="1.5"/>
    <path id="Path-6" data-name="Path" d="M3.858,7.717A3.859,3.859,0,1,1,7.717,3.858,3.845,3.845,0,0,1,3.858,7.717Z" transform="translate(7.079 0.188)" fill="none" stroke="#a9b5e6" stroke-linecap="round" stroke-linejoin="round" stroke-miterlimit="10" stroke-width="1.5"/>
  </g>
</svg>
