<svg xmlns="http://www.w3.org/2000/svg" width="24.574" height="29.53" viewBox="0 0 24.574 29.53">
  <g id="Group_3224" data-name="Group 3224" transform="translate(-4.823 -1.537)">
    <path id="Path_204" data-name="Path 204" d="M9.367,39.736c-.344-.073-.694-.125-1.03-.222A4.613,4.613,0,0,1,4.842,35.1a15.786,15.786,0,0,1,1.02-6.668,6.131,6.131,0,0,1,2.731-3.3,5.372,5.372,0,0,1,2.681-.644,2.053,2.053,0,0,1,.88.3c.437.238.842.534,1.266.8a6.544,6.544,0,0,0,7.4-.006c.342-.212.691-.417,1.012-.659a2.449,2.449,0,0,1,1.939-.394,5.46,5.46,0,0,1,4.173,3,12.348,12.348,0,0,1,1.341,4.789,23.816,23.816,0,0,1,.113,2.589,4.72,4.72,0,0,1-4.354,4.776,1.069,1.069,0,0,0-.187.054Zm7.745-1.73v0c2.437,0,4.874.021,7.31-.007a3.072,3.072,0,0,0,3.253-3.342,22.366,22.366,0,0,0-.123-2.3,10.628,10.628,0,0,0-1.1-3.941A3.812,3.812,0,0,0,23.7,26.263a1.27,1.27,0,0,0-1.107.217,8.328,8.328,0,0,1-.817.537,8.175,8.175,0,0,1-8.446.5c-.676-.333-1.293-.785-1.941-1.177a.625.625,0,0,0-.311-.124,3.512,3.512,0,0,0-2.437,1.009,5.62,5.62,0,0,0-1.227,1.964,14.865,14.865,0,0,0-.851,5.8,2.869,2.869,0,0,0,1.45,2.534,3.963,3.963,0,0,0,2.075.48Z" transform="translate(0 -8.669)" fill="#2d9800"/>
    <path id="Path_205" data-name="Path 205" d="M20.642,1.537c.383.077.769.142,1.149.232a7.156,7.156,0,0,1,5.194,5.779,6.917,6.917,0,0,1-1.015,4.9,6.949,6.949,0,0,1-5.546,3.287,7.122,7.122,0,0,1-6.946-4.18A7.21,7.21,0,0,1,14.556,4.05,7.053,7.053,0,0,1,18.5,1.684c.271-.055.544-.1.816-.147Zm4.7,7.149a5.375,5.375,0,1,0-5.41,5.354A5.366,5.366,0,0,0,25.345,8.686Z" transform="translate(-3.042 0)" fill="#2d9800"/>
  </g>
</svg>
