<svg xmlns="http://www.w3.org/2000/svg" width="30.651" height="33.303" viewBox="0 0 30.651 33.303">
  <g id="Group_3228" data-name="Group 3228" transform="translate(-5.182 -2.697)">
    <path id="Path_214" data-name="Path 214" d="M18.333,39.27a3.073,3.073,0,0,1-1.266-.756,5.879,5.879,0,0,0-2.9-1.327c-.021.094-.039.175-.056.256a1.05,1.05,0,0,1-1.014.851c-1.854.008-3.708.011-5.562,0A1.057,1.057,0,0,1,6.5,37.176c-.008-.976,0-1.951,0-2.927q0-3.871,0-7.741a1.124,1.124,0,0,1,1.274-1.281h4.944c.923,0,1.2.2,1.46,1.093.3-.269.565-.547.865-.783.713-.56,1.453-1.086,2.161-1.651a5,5,0,0,0,1.9-3.259,9.01,9.01,0,0,0,.12-1.717,1.9,1.9,0,0,1,1.551-1.752,2.015,2.015,0,0,1,2.3,1.311,8.921,8.921,0,0,1,.03,6.265c-.035.1-.067.2-.115.346h6.3a2.173,2.173,0,0,1,1.073,4.161.245.245,0,0,0-.049.041,2.274,2.274,0,0,1-.792,3.211,2.188,2.188,0,0,1,.384,1.746,2.4,2.4,0,0,1-1.046,1.449,6.182,6.182,0,0,1,.386.988A2.14,2.14,0,0,1,27.682,39.2c-.06.017-.118.046-.176.068ZM22.9,38.229c1.41,0,2.819.006,4.228,0a1.119,1.119,0,0,0,.137-2.231c-.075-.012-.152-.017-.225-.033a.5.5,0,0,1-.411-.542.489.489,0,0,1,.493-.469,2.267,2.267,0,0,1,.421.031,1.306,1.306,0,0,0,1.381-1.094A1.132,1.132,0,0,0,27.841,32.7a.865.865,0,0,1-.191-.032.486.486,0,0,1-.358-.549.466.466,0,0,1,.467-.453,3.9,3.9,0,0,1,.515.046,1.362,1.362,0,0,0,.384.01,1.333,1.333,0,0,0,.987-1.292A1.143,1.143,0,0,0,28.463,29.4a4.72,4.72,0,0,1-.777-.019.633.633,0,0,1-.415-.295.568.568,0,0,1,.059-.5.755.755,0,0,1,.506-.216c.573-.027,1.148,0,1.723-.015a1.116,1.116,0,1,0-.086-2.229c-2.385,0-4.769,0-7.154,0-.59,0-.817-.351-.558-.871a8.156,8.156,0,0,0,.844-3.081,7.841,7.841,0,0,0-.525-3.408.95.95,0,0,0-1.085-.575.807.807,0,0,0-.718.848c-.021.336-.054.67-.068,1.005A6.108,6.108,0,0,1,17.9,24.657c-.287.24-.664.373-.946.617-.909.787-1.795,1.6-2.679,2.416a.554.554,0,0,0-.138.37c-.008,2.591,0,5.181-.01,7.772,0,.215.067.293.281.337a7.32,7.32,0,0,1,3.625,1.784,1.186,1.186,0,0,0,.732.264C20.144,38.242,21.52,38.229,22.9,38.229ZM7.552,37.241h5.513V26.294H7.552Z" transform="translate(-0.298 -3.27)" fill="#00aaa6"/>
    <path id="Path_215" data-name="Path 215" d="M19.184,13.9c.125-.565.258-1.167.392-1.769.122-.549.229-1.1.376-1.645a.443.443,0,0,0-.179-.522c-.82-.708-1.627-1.431-2.442-2.145-.206-.18-.378-.367-.27-.669s.346-.344.622-.368c1.112-.1,2.221-.215,3.333-.309.193-.016.251-.115.315-.262.435-1.014.878-2.024,1.312-3.039.108-.254.236-.473.548-.474s.442.217.551.471c.434,1.015.882,2.023,1.309,3.041a.382.382,0,0,0,.38.265c1.134.1,2.265.211,3.4.317a.529.529,0,0,1,.506.387.543.543,0,0,1-.228.6c-.837.738-1.671,1.48-2.516,2.209a.431.431,0,0,0-.157.5c.244,1.021.463,2.047.691,3.072.014.063.025.128.042.19a.53.53,0,0,1-.2.634.542.542,0,0,1-.637-.029c-.948-.566-1.9-1.119-2.846-1.7a.483.483,0,0,0-.583,0c-.953.579-1.914,1.145-2.877,1.707A.528.528,0,0,1,19.184,13.9Zm-.378-6.177c.151.136.244.223.339.307.544.48,1.083.967,1.638,1.436a.711.711,0,0,1,.277.825c-.108.362-.172.737-.254,1.107-.1.47-.2.94-.321,1.486.816-.483,1.564-.914,2.3-1.365a.7.7,0,0,1,.815,0c.6.369,1.21.72,1.816,1.078l.489.287c-.206-.93-.38-1.777-.585-2.616a.694.694,0,0,1,.254-.773c.552-.472,1.093-.957,1.636-1.438.109-.1.213-.2.364-.333-.958-.094-1.839-.186-2.722-.262a.638.638,0,0,1-.582-.437c-.281-.668-.575-1.331-.864-2-.062-.143-.125-.285-.212-.483-.085.182-.142.3-.193.413-.288.665-.582,1.328-.858,2a.72.72,0,0,1-.67.513C20.613,7.535,19.753,7.631,18.806,7.723Z" transform="translate(-2.685)" fill="#00aaa6"/>
    <path id="Path_216" data-name="Path 216" d="M34.411,16.442c.189-.852.344-1.617.534-2.372a.5.5,0,0,0-.186-.585c-.555-.468-1.091-.958-1.639-1.434a.537.537,0,0,1,.33-.991c.713-.059,1.424-.14,2.137-.193a.523.523,0,0,0,.524-.374c.251-.646.547-1.273.817-1.911.111-.263.24-.5.568-.5.309,0,.438.229.544.482.282.668.579,1.33.856,2a.4.4,0,0,0,.379.282c.756.063,1.509.145,2.266.21a.544.544,0,0,1,.533.349.539.539,0,0,1-.209.631c-.571.5-1.136,1.007-1.712,1.5a.4.4,0,0,0-.144.451c.167.7.319,1.393.476,2.089.062.271.113.543-.152.742s-.507.082-.75-.065c-.593-.359-1.2-.7-1.785-1.067a.5.5,0,0,0-.61-.008c-.631.4-1.274.783-1.932,1.137a.719.719,0,0,1-.568.012C34.546,16.767,34.478,16.545,34.411,16.442Zm3.075-6.521c-.215.494-.424.923-.588,1.367a.788.788,0,0,1-.8.571c-.466.018-.929.086-1.458.138.439.388.813.732,1.2,1.059a.663.663,0,0,1,.234.724c-.06.252-.12.5-.176.759s-.1.489-.164.8c.462-.273.866-.483,1.237-.74a.82.82,0,0,1,1.041.009c.373.254.775.464,1.232.733-.12-.545-.211-1.021-.332-1.489a.729.729,0,0,1,.258-.834c.383-.311.743-.649,1.167-1.023-.533-.053-.991-.122-1.45-.136a.8.8,0,0,1-.824-.591C37.907,10.834,37.7,10.416,37.486,9.921Z" transform="translate(-6.276 -1.222)" fill="#00aaa6"/>
    <path id="Path_217" data-name="Path 217" d="M6.728,16.45c.192-.861.351-1.636.541-2.4a.48.48,0,0,0-.182-.556c-.547-.46-1.076-.943-1.615-1.413-.2-.173-.353-.358-.261-.644s.31-.355.58-.377c.724-.059,1.445-.14,2.169-.2a.463.463,0,0,0,.453-.326c.269-.673.571-1.333.854-2,.1-.244.244-.445.537-.446s.436.2.541.441c.288.677.588,1.349.868,2.03a.419.419,0,0,0,.4.3c.745.061,1.489.143,2.233.206a.548.548,0,0,1,.551.37.557.557,0,0,1-.231.626c-.556.484-1.1.98-1.663,1.458a.441.441,0,0,0-.172.5c.169.694.319,1.393.477,2.089.063.275.1.545-.176.734-.258.178-.489.067-.723-.074-.631-.38-1.269-.749-1.9-1.131a.345.345,0,0,0-.412,0c-.667.405-1.332.812-2.017,1.185a.728.728,0,0,1-.569.022C6.871,16.774,6.8,16.554,6.728,16.45Zm5.931-4.456c-.561-.053-1.042-.113-1.526-.141a.726.726,0,0,1-.713-.5c-.182-.465-.394-.917-.617-1.429-.225.52-.435.97-.615,1.433a.728.728,0,0,1-.717.5c-.482.027-.962.087-1.516.14.421.373.781.711,1.163,1.023a.731.731,0,0,1,.258.834c-.121.468-.212.944-.332,1.492.475-.279.895-.5,1.286-.763a.769.769,0,0,1,.956,0c.391.258.806.483,1.281.763-.128-.566-.23-1.05-.346-1.532a.7.7,0,0,1,.251-.778C11.857,12.72,12.221,12.381,12.659,11.994Z" transform="translate(0 -1.222)" fill="#00aaa6"/>
    <path id="Path_218" data-name="Path 218" d="M12.434,31.037a.508.508,0,0,1-.507.551.52.52,0,0,1-.529-.536.525.525,0,0,1,.514-.552A.508.508,0,0,1,12.434,31.037Z" transform="translate(-1.41 -6.303)" fill="#00aaa6"/>
  </g>
</svg>
