<svg xmlns="http://www.w3.org/2000/svg" width="35.327" height="37.381" viewBox="0 0 35.327 37.381">
  <g id="Group_3230" data-name="Group 3230" transform="translate(-1.785 -1.309)">
    <path id="Path_231" data-name="Path 231" d="M15.995,37.3c0-.29.017-.533,0-.772a2.084,2.084,0,0,1,2.22-2.336,2.273,2.273,0,0,0,.037-.286c0-.931.012-1.861-.008-2.791a.671.671,0,0,0-.215-.447,12.1,12.1,0,0,1-2.747-3.331.819.819,0,0,0-.435-.369,7.942,7.942,0,0,1-6.067-6.577,10.626,10.626,0,0,1-.111-3.357.524.524,0,0,1,.615-.53c1.021.009,2.042,0,3.063,0h.471c0-.771-.009-1.5,0-2.236.018-1.071.03-1.076,1.092-1.076H28.172c.607,0,.715.1.739.72.017.426.021.853.024,1.279s0,.847,0,1.313h2c.529,0,1.06,0,1.589,0,.28,0,.482.108.522.406.436,3.2-.489,7.028-3.741,9.029a18.471,18.471,0,0,1-2.372,1.009.975.975,0,0,0-.456.346,11.889,11.889,0,0,1-2.8,3.388c-.083.068-.185.178-.186.268-.013,1.069-.009,2.138-.009,3.241a2.1,2.1,0,0,1,1.924.925,4.075,4.075,0,0,1,.343,2.176c.312,0,.593,0,.875,0a1.93,1.93,0,0,1,2,2.007c0,.426,0,.853,0,1.28,0,.49-.142.615-.671.616H17.537q-1.9,0-3.8,0c-.488,0-.63-.138-.634-.614s-.009-.931,0-1.4A1.912,1.912,0,0,1,14.95,37.3C15.282,37.287,15.616,37.3,15.995,37.3ZM13.781,14.14a.908.908,0,0,0-.033.144,29.779,29.779,0,0,0,.944,9.1,12.55,12.55,0,0,0,4.267,6.846.741.741,0,0,1,.211.5c.027.541.009,1.085.009,1.628v1.819h3.378c0-.921.047-1.814-.014-2.7a1.575,1.575,0,0,1,.792-1.717.935.935,0,0,0,.173-.155A12.974,12.974,0,0,0,27,23.538a29.611,29.611,0,0,0,.989-9.283.4.4,0,0,0-.045-.115Zm.267,26.1H27.7v-.675c0-1.022-.32-1.343-1.34-1.343h-11a3.788,3.788,0,0,0-.464.018.96.96,0,0,0-.847.83C14.022,39.455,14.048,39.842,14.048,40.244ZM28.9,17.452A25.141,25.141,0,0,1,27.169,25.9c3.89-1.168,5.44-5.344,4.961-8.451ZM9.592,17.439c-.488,3.991,1.785,7.63,4.947,8.424-.032-.094-.063-.176-.088-.259a28.966,28.966,0,0,1-.925-3.067c-.3-1.553-.446-3.135-.657-4.705-.024-.18.037-.4-.278-.4C11.6,17.445,10.6,17.439,9.592,17.439Zm7.351,19.818H24.81c0-.386.019-.735,0-1.082a1.04,1.04,0,0,0-1.049-1.03q-2.885-.015-5.772,0a1.01,1.01,0,0,0-1.032.915A10.612,10.612,0,0,0,16.944,37.257Z" transform="translate(-1.435 -2.509)" fill="#9f49a3"/>
    <path id="Path_232" data-name="Path 232" d="M24.5,3.743c0,.606,0,1.212,0,1.817,0,.328-.106.563-.46.592-.286.023-.469-.208-.471-.578,0-1.224,0-2.448,0-3.673,0-.325.1-.564.459-.591.288-.021.468.2.471.577C24.5,2.506,24.5,3.124,24.5,3.743Z" transform="translate(-4.597)" fill="#9f49a3"/>
    <path id="Path_233" data-name="Path 233" d="M13.28,8.994a1.239,1.239,0,0,1-.316-.29c-.642-1.086-1.269-2.181-1.9-3.275a.448.448,0,0,1,.133-.674c.287-.174.52-.052.678.221.633,1.092,1.268,2.181,1.89,3.28C13.981,8.634,13.772,9.012,13.28,8.994Z" transform="translate(-1.939 -0.71)" fill="#9f49a3"/>
    <path id="Path_234" data-name="Path 234" d="M41.5,16.835c-.119-.114-.342-.227-.355-.361a.688.688,0,0,1,.215-.543c.4-.284.838-.5,1.262-.748.669-.387,1.336-.777,2.007-1.159.334-.189.592-.143.729.128.157.308.011.516-.254.67q-1.6.929-3.212,1.853A3.638,3.638,0,0,1,41.5,16.835Z" transform="translate(-8.306 -2.659)" fill="#9f49a3"/>
    <path id="Path_235" data-name="Path 235" d="M34.257,9c-.5,0-.687-.371-.474-.753.338-.607.693-1.2,1.041-1.807L35.653,5c.155-.268.366-.4.672-.256.264.127.313.408.127.734-.614,1.072-1.228,2.144-1.859,3.208A1.382,1.382,0,0,1,34.257,9Z" transform="translate(-6.735 -0.712)" fill="#9f49a3"/>
    <path id="Path_236" data-name="Path 236" d="M5.685,16.844a3.972,3.972,0,0,1-.4-.167c-1.071-.616-2.146-1.227-3.2-1.864a.7.7,0,0,1-.293-.483c-.009-.124.17-.312.308-.379a.549.549,0,0,1,.429.065C3.61,14.631,4.7,15.248,5.762,15.9a.734.734,0,0,1,.281.553C6.042,16.587,5.806,16.721,5.685,16.844Z" transform="translate(0 -2.663)" fill="#9f49a3"/>
    <path id="Path_237" data-name="Path 237" d="M22.84,17.962a2.958,2.958,0,0,1,.478.585c.312.764.6,1.538.874,2.316a.433.433,0,0,0,.462.35c.839.021,1.678.056,2.514.13a.713.713,0,0,1,.52.336c.054.133-.086.424-.226.544-.637.546-1.295,1.069-1.964,1.574a.425.425,0,0,0-.174.548c.224.754.421,1.516.634,2.274.074.266.168.536-.1.744-.3.228-.533.024-.768-.133-.668-.44-1.339-.877-2-1.329a.356.356,0,0,0-.477,0c-.691.474-1.4.929-2.1,1.393-.213.141-.428.26-.674.076s-.2-.421-.132-.668c.222-.8.428-1.6.665-2.385A.4.4,0,0,0,20.2,23.8c-.656-.5-1.3-1.026-1.945-1.538-.205-.162-.406-.368-.255-.613a.8.8,0,0,1,.551-.309c.849-.072,1.7-.087,2.551-.149a.493.493,0,0,0,.346-.256c.32-.789.6-1.594.92-2.382A3.062,3.062,0,0,1,22.84,17.962ZM24.8,25.926c-.18-.647-.311-1.185-.482-1.71a.7.7,0,0,1,.287-.9c.454-.327.877-.694,1.388-1.1-.665-.034-1.227-.086-1.789-.084a.686.686,0,0,1-.737-.537c-.179-.529-.388-1.047-.626-1.68l-.566,1.512c-.255.678-.255.674-.966.7-.508.021-1.015.054-1.614.088.533.428.989.8,1.456,1.162a.606.606,0,0,1,.237.742c-.176.569-.316,1.149-.493,1.8.559-.369,1.051-.678,1.524-1.011a.656.656,0,0,1,.848,0C23.744,25.241,24.234,25.55,24.8,25.926Z" transform="translate(-3.411 -3.515)" fill="#9f49a3"/>
  </g>
</svg>
