<svg xmlns="http://www.w3.org/2000/svg" width="29.706" height="28.101" viewBox="0 0 29.706 28.101">
  <g id="Group_30" data-name="Group 30" transform="translate(151.184 142.6)">
    <path id="Path_52" data-name="Path 52" d="M-126.987-136.516c-.085.074-.171.145-.253.222q-7.176,6.705-14.346,13.416a.522.522,0,0,1-.621.124q-3.805-1.322-7.621-2.614a1.758,1.758,0,0,1-1.347-1.562,1.735,1.735,0,0,1,1.091-1.812c.2-.1.4-.21.6-.316q12.67-6.649,25.34-13.3a1.741,1.741,0,0,1,2.626,1.107,3.627,3.627,0,0,1-.044,1.218q-1.088,7.267-2.2,14.532-.485,3.2-.971,6.4a1.759,1.759,0,0,1-2.393,1.5q-5.835-1.986-11.663-3.992c-.04-.014-.078-.036-.158-.074l12-14.818Z" fill="#fff"/>
    <path id="Path_53" data-name="Path 53" d="M-30.186,109.457l6.8,2.33c-.023.047-.03.08-.05.1-1.284,1.14-2.556,2.294-3.858,3.414a1.742,1.742,0,0,1-2.824-.812,2.031,2.031,0,0,1-.085-.574c-.007-1.425,0-2.851,0-4.276C-30.207,109.595-30.2,109.552-30.186,109.457Z" transform="translate(-110.502 -230.234)" fill="#fff"/>
  </g>
</svg>
