<svg xmlns="http://www.w3.org/2000/svg" width="30.679" height="30.048" viewBox="0 0 30.679 30.048">
  <g id="Group_3231" data-name="Group 3231" transform="translate(-126.981 -66.634)">
    <path id="Path_238" data-name="Path 238" d="M131.594,76.97a5.538,5.538,0,1,1,8.279-4.248,5.583,5.583,0,0,1,4.9,0,5.539,5.539,0,1,1,8.353,4.2,19.664,19.664,0,0,1,1.894,1.263,7.059,7.059,0,0,1,2.627,5.515c.033,2.238.009,4.475.008,6.713,0,.521-.226.746-.749.747q-3.4,0-6.807,0h-.416v.331q0,2.191,0,4.383c0,.589-.209.8-.784.8H135.742c-.564,0-.78-.216-.78-.777q0-2.191,0-4.383v-.358H127.8c-.6,0-.807-.2-.807-.812,0-2.125-.021-4.25,0-6.375a7.257,7.257,0,0,1,4.468-6.935C131.5,77.024,131.534,77,131.594,76.97Zm4.593,18.462h12.257c0-2.178,0-4.332,0-6.487a4.7,4.7,0,0,0-.109-.818,6.13,6.13,0,0,0-12.142,1.263c-.005,1.92,0,3.84,0,5.76Zm3.392-12.941c-.066-.052-.109-.092-.158-.124a5.509,5.509,0,0,1-2.576-3.981.42.42,0,0,0-.229-.27,5.814,5.814,0,0,0-3.3-.35,6.117,6.117,0,0,0-5.1,6.147q0,2.85,0,5.7v.306h6.754a7.424,7.424,0,0,1,4.61-7.427Zm16.839,7.431c0-2.171,0-4.305,0-6.439a4.991,4.991,0,0,0-.112-.879A6.149,6.149,0,0,0,148.05,78.1a.362.362,0,0,0-.271.317,5.441,5.441,0,0,1-2.456,3.887c-.082.055-.163.113-.269.186a7.456,7.456,0,0,1,3.526,2.974,7.588,7.588,0,0,1,1.1,4.462ZM142.331,73.383a4.291,4.291,0,1,0,4.28,4.3A4.3,4.3,0,0,0,142.331,73.383Zm7.727,3.066a4.341,4.341,0,0,0,4.479-4.883A4.339,4.339,0,1,0,146.9,74.6a4.383,4.383,0,0,0,.533.738A3.989,3.989,0,0,0,150.058,76.449Zm-15.7,0a4.075,4.075,0,0,0,2.865-1.125,6.732,6.732,0,0,0,.729-1.013,3.214,3.214,0,0,0,.392-.612,4.288,4.288,0,1,0-3.986,2.75Z" fill="#2d9800"/>
  </g>
</svg>
