<svg xmlns="http://www.w3.org/2000/svg" width="24.799" height="25.665" viewBox="0 0 24.799 25.665">
  <g id="Group_3226" data-name="Group 3226" transform="translate(-3.03 -2.682)">
    <path id="Path_211" data-name="Path 211" d="M14.085,2.682c.526.084,1.06.131,1.577.256a10.048,10.048,0,0,1,7.045,5.592,10.082,10.082,0,0,1-.8,10.438c-.082.125-.181.24-.271.359l-.29.379c.06.065.119.131.18.195l5.821,6.052a1.375,1.375,0,0,1,.275,1.754,1.34,1.34,0,0,1-2,.328,3.572,3.572,0,0,1-.271-.26q-2.911-3.025-5.82-6.052a1.144,1.144,0,0,1-.12-.164c-.664.349-1.255.716-1.888.983a9.99,9.99,0,0,1-8.466-.114A10.043,10.043,0,0,1,3.4,15.669,9.885,9.885,0,0,1,4.494,7.8a10.208,10.208,0,0,1,6.783-4.895c.477-.108.97-.153,1.455-.227Zm-.679,2.707a7.657,7.657,0,1,0,7.659,7.646A7.672,7.672,0,0,0,13.406,5.389Z" fill="#00a0cf"/>
  </g>
</svg>
