<svg xmlns="http://www.w3.org/2000/svg" width="30.328" height="30.309" viewBox="0 0 30.328 30.309">
  <g id="Group_3227" data-name="Group 3227" transform="translate(-1.44 -1)">
    <path id="Path_212" data-name="Path 212" d="M30,14.043a2.132,2.132,0,0,1,1.763,2.2,2.075,2.075,0,0,1-1.482,1.914.4.4,0,0,0-.344.362,13.153,13.153,0,0,1-2.248,5.426.312.312,0,0,0-.02.391,2.1,2.1,0,0,1-2.878,2.868.313.313,0,0,0-.391.029,13.226,13.226,0,0,1-5.4,2.242.4.4,0,0,0-.369.337,2.02,2.02,0,0,1-2.053,1.493,2.017,2.017,0,0,1-2.018-1.5.4.4,0,0,0-.372-.333,13.234,13.234,0,0,1-5.368-2.228.338.338,0,0,0-.417-.023,2.132,2.132,0,0,1-2.892-2.882.357.357,0,0,0-.032-.443,13.134,13.134,0,0,1-2.212-5.341.42.42,0,0,0-.342-.4,2.105,2.105,0,0,1,0-4.029.419.419,0,0,0,.342-.4A13.118,13.118,0,0,1,5.488,8.39a.374.374,0,0,0,.035-.472A2.1,2.1,0,0,1,8.391,5.067a.352.352,0,0,0,.444-.031,13.159,13.159,0,0,1,5.338-2.219.437.437,0,0,0,.408-.34,2.126,2.126,0,0,1,4.047-.007.439.439,0,0,0,.4.347,13.133,13.133,0,0,1,5.313,2.2.376.376,0,0,0,.47.039,2.1,2.1,0,0,1,2.523.381,2.126,2.126,0,0,1,.366,2.5c-.068.131-.139.228-.023.391a13.391,13.391,0,0,1,2.291,5.544C29.98,13.925,29.99,13.976,30,14.043ZM18.647,28.524a12.468,12.468,0,0,0,5.266-2.175,2.182,2.182,0,0,1,2.9-2.9,12.459,12.459,0,0,0,2.17-5.263,2.181,2.181,0,0,1,0-4.092,12.431,12.431,0,0,0-2.175-5.262,2.181,2.181,0,0,1-2.9-2.9A12.457,12.457,0,0,0,18.647,3.77a2.171,2.171,0,0,1-4.086,0A12.425,12.425,0,0,0,9.3,5.942a2.186,2.186,0,0,1-2.9,2.9,12.421,12.421,0,0,0-2.168,5.266,2.177,2.177,0,0,1,0,4.084A12.43,12.43,0,0,0,6.4,23.452a2.182,2.182,0,0,1,2.9,2.9,12.382,12.382,0,0,0,5.266,2.17,2.17,2.17,0,0,1,4.083,0Zm-2.031-.434a1.128,1.128,0,1,0,1.118,1.133A1.143,1.143,0,0,0,16.617,28.09Zm9.22-20.082a1.118,1.118,0,0,0,1.15-1.12,1.126,1.126,0,1,0-2.253-.011A1.111,1.111,0,0,0,25.837,8.007Zm4.95,8.131a1.144,1.144,0,0,0-1.133-1.122,1.131,1.131,0,0,0,.016,2.261A1.144,1.144,0,0,0,30.787,16.138ZM6.256,25.374a1.123,1.123,0,1,0,1.12-1.13A1.129,1.129,0,0,0,6.256,25.374ZM16.631,1.965a1.143,1.143,0,0,0-1.153,1.1,1.1,1.1,0,0,0,1.1,1.135,1.116,1.116,0,0,0,1.155-1.085A1.143,1.143,0,0,0,16.631,1.965ZM25.855,26.5a1.117,1.117,0,0,0,1.11-1.131A1.134,1.134,0,0,0,25.8,24.283a1.122,1.122,0,0,0-1.1,1.112A1.153,1.153,0,0,0,25.855,26.5ZM8.465,6.953a1.142,1.142,0,0,0-1.112-1.17,1.12,1.12,0,0,0-1.1,1.135,1.168,1.168,0,0,0,1.129,1.13A1.126,1.126,0,0,0,8.465,6.953ZM3.543,17.242a1.1,1.1,0,1,0-1.119-1.086A1.118,1.118,0,0,0,3.543,17.242Z" transform="translate(0)" fill="#9f49a3"/>
    <path id="Path_213" data-name="Path 213" d="M14.3,24.78a3.52,3.52,0,0,1-1.74-6.343,3.589,3.589,0,0,1,1.86-5.056c-.286-1.77.219-2.887,1.616-3.574,1.471-.723,2.71-.424,4.018.973,1.3-1.39,2.524-1.693,3.987-.985,1.415.685,1.923,1.793,1.644,3.588a3.567,3.567,0,0,1,1.847,5.043,3.521,3.521,0,0,1-1.72,6.354,3.163,3.163,0,0,1-5.755,1.963A3.172,3.172,0,0,1,14.3,24.78Zm12.562-5.543a10.185,10.185,0,0,1-.893.512.492.492,0,0,1-.691-.243.5.5,0,0,1,.287-.673c.083-.045.169-.084.251-.132a2.289,2.289,0,0,0,1.071-2.627,2.4,2.4,0,0,0-3.246-1.6.525.525,0,0,1-.724-.23.5.5,0,0,1,.342-.7,8.864,8.864,0,0,1,1.158-.277c.149-.028.245-.056.292-.218a2.119,2.119,0,0,0-1.828-2.621,2.092,2.092,0,0,0-2.323,2.161q0,5.175,0,10.351c0,.7-.012,1.41.005,2.114A2.106,2.106,0,0,0,22.094,27a2.073,2.073,0,0,0,2.3-.818,2.141,2.141,0,0,0-.357-2.807c-.3-.285-.344-.554-.131-.793a.52.52,0,0,1,.8.044,6.418,6.418,0,0,1,.74.929c.095.14.162.211.337.192a2.5,2.5,0,0,0,2.129-1.888A2.436,2.436,0,0,0,26.858,19.237Zm-13.609-.005a2.418,2.418,0,0,0-1.094,2.5,2.469,2.469,0,0,0,1.836,1.955c.5.116.471.1.763-.314a4.6,4.6,0,0,1,.8-.87.463.463,0,0,1,.673.12.489.489,0,0,1-.088.678c-.059.06-.126.112-.185.172a2.15,2.15,0,0,0-.363,2.533,2.063,2.063,0,0,0,2.242,1.036,2.124,2.124,0,0,0,1.711-2.155q0-6.105,0-12.21c0-.084,0-.169-.007-.252A2.011,2.011,0,0,0,17.077,10.5a1.991,1.991,0,0,0-1.7,2.486.327.327,0,0,0,.33.295,5.447,5.447,0,0,1,1.1.243.537.537,0,0,1,.375.747c-.122.261-.4.332-.765.189a2.357,2.357,0,0,0-1.545-.077,2.406,2.406,0,0,0-1.738,2.135,2.269,2.269,0,0,0,1.3,2.26c.386.2.512.454.372.741s-.449.36-.84.149C13.727,19.541,13.5,19.387,13.249,19.232Z" transform="translate(-3.443 -3.003)" fill="#9f49a3"/>
  </g>
</svg>
