<svg xmlns="http://www.w3.org/2000/svg" width="37.137" height="37.16" viewBox="0 0 37.137 37.16">
  <g id="Group_3233" data-name="Group 3233" transform="translate(-189.221 -66.316)">
    <path id="Path_241" data-name="Path 241" d="M206.919,66.316h1.958a2.29,2.29,0,0,0,.314.063,17.713,17.713,0,0,1,5.042,1.093,18.551,18.551,0,0,1-10.864,35.416c-7.635-2.019-12.234-7.07-13.859-14.805-.14-.67-.2-1.358-.29-2.037V83.8a1.18,1.18,0,0,0,.053-.209,18.351,18.351,0,0,1,1.228-5.45,1.992,1.992,0,0,0,.061-.448,3.88,3.88,0,0,0,.456-.729,18.326,18.326,0,0,1,13.606-10.35C205.38,66.464,206.154,66.412,206.919,66.316Zm-10.24,15.863c.255-.276.433-.484.627-.677.5-.492.912-.427,1.226.191.285.56.571,1.119.837,1.687a.415.415,0,0,0,.44.275c1.148-.012,2.3.006,3.445-.012a.87.87,0,0,1,.849.487c.452.784.936,1.55,1.388,2.335a.505.505,0,0,0,.52.286c.52-.017,1.04-.007,1.56,0,.685,0,.917.284.784.962-.128.651-.311,1.3-.385,1.952a2.694,2.694,0,0,1-1.031,1.91c-.235.186-.408.453-.649.631a2.226,2.226,0,0,0-.977,2.331.9.9,0,0,1-.457.915q-.914.652-1.8,1.35a.612.612,0,0,0-.206.412c-.02.785,0,1.571-.011,2.357-.006.651-.356.9-.971.7-.5-.163-1-.347-1.512-.5a.943.943,0,0,1-.65-.618c-.343-.889-.715-1.768-1.053-2.658a2.271,2.271,0,0,1-.143-.773c-.012-1.6-.006-3.191-.006-4.786v-.591c-.8-.158-1.564-.316-2.333-.459a.987.987,0,0,1-.8-.591,11.577,11.577,0,0,0-.666-1.327,4.285,4.285,0,0,1-.562-2.312,1.919,1.919,0,0,1,.736-1.737,1.167,1.167,0,0,0,.157-.174c-.109-.079-.2-.152-.3-.217-.855-.57-1.72-1.123-2.556-1.717a1.683,1.683,0,0,1-.508-.664c-.178-.39-.287-.812-.442-1.267a17.287,17.287,0,0,0,30.4,15.357c-.385-.373-.8-.73-1.155-1.137a1.268,1.268,0,0,1-.291-.7c-.043-.565.008-1.137-.023-1.7a2.334,2.334,0,0,0-.2-.86c-.449-.949-.881-1.912-1.415-2.813a5.762,5.762,0,0,1-.865-3.654c.017-.156-.038-.418-.142-.472-.477-.247-.8-.8-1.416-.763a1.12,1.12,0,0,0-.211.049c-.563.138-1.122.29-1.689.409a1,1,0,0,1-.56-.034c-1.4-.586-2.8-1.181-4.189-1.8a.833.833,0,0,1-.432-.52c-.229-1.394-.412-2.8-.611-4.194a.825.825,0,0,1,.265-.751c.553-.54,1.083-1.107,1.652-1.628a1.116,1.116,0,0,1,.667-.282c1.16-.028,2.32-.01,3.481-.016a.73.73,0,0,1,.666.358c.29.445.576.894.891,1.321a.774.774,0,0,0,.427.271c.531.114,1.068.193,1.605.278a4.147,4.147,0,0,0,1.458.183c1-.234,1.973-.627,3.026-.979L220.7,73.307c-.475.316-.877.608-1.3.855a1.027,1.027,0,0,1-.636.169,28.952,28.952,0,0,1-4.436-1.04,1.273,1.273,0,0,0-.794-.018,4.685,4.685,0,0,1-3.911-.122.444.444,0,0,0-.069-.02.639.639,0,0,1-.409-1c.374-.771.766-1.534,1.145-2.3a.7.7,0,0,1,.7-.414c.555.01,1.115-.035,1.667.012a3.419,3.419,0,0,0,1.682-.576,17.007,17.007,0,0,0-11.816-.407,2.5,2.5,0,0,0,.847.414c1.031.2,2.071.351,3.106.532.616.107.794.414.6,1.006-.163.5-.347,1-.5,1.512a.882.882,0,0,1-.634.631c-.368.114-.729.256-1.1.36a.846.846,0,0,0-.544.424q-.708,1.223-1.456,2.422a1.543,1.543,0,0,1-.474.478c-.9.56-1.816,1.1-2.735,1.64a1.774,1.774,0,0,1-.6.221q-1.414.225-2.832.412c-.824.109-.969.251-.771,1.062a1.594,1.594,0,0,0,.585.7,1.543,1.543,0,0,1,.635,1.516A2.3,2.3,0,0,0,196.679,82.179Zm26.457-5.266c-1.071.358-2.12.719-3.177,1.055a1.617,1.617,0,0,1-.706.062c-1.11-.167-2.215-.366-3.323-.544a.956.956,0,0,1-.707-.445c-.266-.417-.536-.833-.829-1.233a.542.542,0,0,0-.37-.2c-.882-.017-1.764-.015-2.646,0a.613.613,0,0,0-.378.148c-.4.371-.783.755-1.154,1.153a.518.518,0,0,0-.12.373c.138,1.053.3,2.1.439,3.156a.449.449,0,0,0,.312.42c1.1.461,2.194.945,3.3,1.4a.992.992,0,0,0,.551.033c.578-.123,1.152-.27,1.721-.425a1.05,1.05,0,0,1,.957.16c.461.331.93.653,1.416.943a.964.964,0,0,1,.519.952c-.022.591-.016,1.184,0,1.776a1.391,1.391,0,0,0,.131.551c.464.955.892,1.934,1.433,2.844a5.973,5.973,0,0,1,.908,3.857.472.472,0,0,0,0,.18.756.756,0,0,0,.119.286c.248.28.51.547.774.826A17.1,17.1,0,0,0,223.136,76.914Zm-21.57,21.918c.023-.046.033-.057.033-.067,0-.652.014-1.305,0-1.957a.854.854,0,0,1,.388-.768,10.672,10.672,0,0,1,1.02-.75,1.821,1.821,0,0,0,1.074-2.136.9.9,0,0,1,.34-.831c.658-.641,1.3-1.3,1.95-1.947.076-.077.192-.15.212-.242.156-.7.293-1.4.445-2.148-.561,0-1.054-.007-1.548,0a.824.824,0,0,1-.8-.456c-.467-.8-.957-1.594-1.424-2.4a.452.452,0,0,0-.459-.254c-1.16.012-2.32-.005-3.48.011a.82.82,0,0,1-.849-.533c-.229-.5-.491-.984-.76-1.516-.767.766-1.5,1.5-2.227,2.235a.531.531,0,0,0-.08.3,3.243,3.243,0,0,0,.477,2.175c.178.27.278.592.453.865a.72.72,0,0,0,.4.3c.776.176,1.561.315,2.341.477.524.109.665.287.666.822,0,1.172.065,2.349-.015,3.516a9.122,9.122,0,0,0,.878,4.588A1.1,1.1,0,0,0,201.567,98.832Zm4.166-28.3c-.466-.08-.9-.178-1.342-.224a5.3,5.3,0,0,1-3.115-1.194.446.446,0,0,0-.553-.047,17.286,17.286,0,0,0-8.687,8.653.762.762,0,0,0-.039.5c.238.772.5,1.538.769,2.3a.831.831,0,0,0,.287.386c.684.475,1.382.931,2.076,1.391.074.049.157.083.278.147,0-.319.017-.585-.007-.847a.5.5,0,0,0-.163-.335,2.546,2.546,0,0,1-1.069-2.68,2.244,2.244,0,0,0,0-.289c.006-.567.17-.771.717-.855.572-.089,1.149-.152,1.721-.245a9.014,9.014,0,0,0,3.407-.936,6.374,6.374,0,0,0,2.83-2.9,2.854,2.854,0,0,1,2.29-1.852.3.3,0,0,0,.137-.045c.079-.063.179-.125.216-.211C205.581,71.027,205.645,70.794,205.733,70.53Zm14.06,1.893A16.837,16.837,0,0,0,215.9,69.6a.481.481,0,0,0-.358.047c-.567.27-1.119.57-1.691.827a2.178,2.178,0,0,1-.76.18c-.518.028-1.039,0-1.558.014a.439.439,0,0,0-.327.139c-.24.428-.449.873-.672,1.319a2.065,2.065,0,0,0,1.689.2,9.853,9.853,0,0,1,1.472-.373,1.133,1.133,0,0,1,.6.02,25.15,25.15,0,0,0,4.242,1.061.651.651,0,0,0,.407-.051C219.224,72.825,219.486,72.629,219.793,72.423Z" fill="#ff3169"/>
  </g>
</svg>
