<svg xmlns="http://www.w3.org/2000/svg" width="19.941" height="22.102" viewBox="0 0 19.941 22.102">
  <g id="Group_3225" data-name="Group 3225" transform="translate(-4.888 -1.31)">
    <path id="Path_206" data-name="Path 206" d="M6.224,12.374c0,2.828.015,5.656-.009,8.484a1.127,1.127,0,0,0,1.226,1.229c1.282-.025,2.565-.008,3.848-.006a.667.667,0,0,1,.754.589.649.649,0,0,1-.607.732c-.2.014-.4.006-.6.006-1.174,0-2.349.007-3.524,0a2.351,2.351,0,0,1-2.4-2.019,2.7,2.7,0,0,1-.024-.439q0-8.588,0-17.176A2.356,2.356,0,0,1,6.823,1.351,3.1,3.1,0,0,1,7.4,1.312q7.083,0,14.165,0a2.355,2.355,0,0,1,2.449,1.873,3.058,3.058,0,0,1,.058.644q.006,3.013,0,6.026c0,.046,0,.093,0,.139a.686.686,0,0,1-.67.69.67.67,0,0,1-.662-.715c0-2.055,0-4.11-.008-6.166a1.473,1.473,0,0,0-.147-.642,1,1,0,0,0-.965-.522H19.257q-5.923,0-11.846,0a1.174,1.174,0,0,0-.839.265,1.047,1.047,0,0,0-.348.825c0,.85,0,1.7,0,2.55Z" transform="translate(0)" fill="#ff3169"/>
    <path id="Path_207" data-name="Path 207" d="M35.295,27.791a2.508,2.508,0,0,1-.8,1.835q-1.538,1.526-3.066,3.063c-.874.874-1.77,1.727-2.613,2.63a2.5,2.5,0,0,1-1.666.837c-.437.042-.869.135-1.3.213a1.328,1.328,0,0,1-1.613-1.612q.16-.888.3-1.78a1.487,1.487,0,0,1,.429-.851q3.026-3.02,6.049-6.044a2.488,2.488,0,0,1,4.265,1.363.813.813,0,0,1,.014.115C35.3,27.637,35.295,27.714,35.295,27.791Zm-9.756,7.3c.61-.112,1.179-.209,1.744-.326a.783.783,0,0,0,.374-.192q2.007-1.991,4-3.994a2.276,2.276,0,0,1,.225-.183L30.25,28.738a.3.3,0,0,0-.039.032q-2.122,2.121-4.243,4.243a.362.362,0,0,0-.111.17C25.749,33.8,25.648,34.428,25.539,35.093Zm7.314-5.757c.281-.27.584-.524.844-.817a1.127,1.127,0,0,0-.008-1.485,1.111,1.111,0,0,0-1.465-.218,11.21,11.21,0,0,0-.984.906Z" transform="translate(-10.465 -12.992)" fill="#ff3169"/>
    <path id="Path_208" data-name="Path 208" d="M19.312,11.5q-2.386,0-4.772,0a.661.661,0,0,1-.679-.865.64.64,0,0,1,.533-.456,1.6,1.6,0,0,1,.277-.016h9.29a1.6,1.6,0,0,1,.3.019.663.663,0,0,1-.106,1.317c-.4.008-.8,0-1.2,0Z" transform="translate(-4.841 -4.792)" fill="#ff3169"/>
    <path id="Path_209" data-name="Path 209" d="M19.307,19.7q-2.386,0-4.772,0a.665.665,0,0,1-.669-.436.618.618,0,0,1,.22-.742,1.093,1.093,0,0,1,.5-.149c.346-.022.694-.007,1.042-.007h8.292a2.33,2.33,0,0,1,.277.011.662.662,0,0,1-.069,1.322c-.849,0-1.7,0-2.548,0Z" transform="translate(-4.84 -9.235)" fill="#ff3169"/>
    <path id="Path_210" data-name="Path 210" d="M16.945,27.926c-.811,0-1.623.006-2.433,0a.654.654,0,0,1-.649-.867.612.612,0,0,1,.561-.448c.2-.016.4-.011.6-.011q2.074,0,4.148,0a1.472,1.472,0,0,1,.39.037.658.658,0,0,1-.186,1.286c-.633.011-1.267,0-1.9,0Z" transform="translate(-4.841 -13.697)" fill="#ff3169"/>
  </g>
</svg>
