<svg xmlns="http://www.w3.org/2000/svg" width="29.467" height="29.466" viewBox="0 0 29.467 29.466">
  <g id="Group_3229" data-name="Group 3229" transform="translate(-2.612 -3)">
    <path id="Path_219" data-name="Path 219" d="M8.021,4.963A1.767,1.767,0,0,1,8.5,3.385,1.431,1.431,0,0,1,9.476,3a1.27,1.27,0,0,1,1.193.623,7.287,7.287,0,0,1,.409,1.323h4.8c0-.165,0-.334,0-.5a1.472,1.472,0,0,1,2.944,0c0,.161,0,.323,0,.5h4.912c0-.151,0-.309,0-.467a1.472,1.472,0,1,1,2.945-.007c0,.151,0,.3,0,.491h.962c.625,0,1.249,0,1.872,0a2.455,2.455,0,0,1,2.567,2.568q0,8.609,0,17.219,0,2.563,0,5.126A2.457,2.457,0,0,1,29.5,32.465q-12.154,0-24.308,0a2.456,2.456,0,0,1-2.578-2.588q0-11.157,0-22.314a2.458,2.458,0,0,1,2.6-2.6C6.13,4.963,7.051,4.963,8.021,4.963Zm-4.427,6.89V12.2q0,8.809,0,17.618a1.5,1.5,0,0,0,1.664,1.67H29.446A1.49,1.49,0,0,0,31.1,29.83q0-8.825,0-17.649v-.328ZM18.818,5.96c0,.513.009,1,0,1.492A1.475,1.475,0,0,1,17.51,8.885a1.457,1.457,0,0,1-1.591-1.141,3.557,3.557,0,0,1-.045-.7c-.007-.363,0-.726,0-1.08H10.96c0,.506.009.995,0,1.483a1.47,1.47,0,0,1-2.94,0c-.011-.5,0-.993,0-1.5-1.049,0-2.051-.021-3.051.007A1.443,1.443,0,0,0,3.6,7.419c-.009,1.084,0,2.168,0,3.252a1.087,1.087,0,0,0,.023.164H31.1c0-1.136,0-2.25,0-3.363a1.467,1.467,0,0,0-1.531-1.524c-.879,0-1.759,0-2.639,0-.078,0-.155.013-.249.022,0,.458,0,.9,0,1.335a1.477,1.477,0,1,1-2.946.011c0-.447,0-.894,0-1.354ZM9.98,5.936c0-.46,0-.92,0-1.381,0-.357-.2-.577-.5-.571A.5.5,0,0,0,9,4.543q-.006,1.4,0,2.793c0,.355.2.577.5.571a.5.5,0,0,0,.481-.559C9.983,6.878,9.979,6.407,9.98,5.936Zm6.875.009c0,.46,0,.92,0,1.381,0,.361.192.581.489.581s.49-.221.491-.581q0-1.38,0-2.761c0-.361-.193-.581-.49-.581s-.488.219-.49.58C16.852,5.025,16.855,5.485,16.855,5.945Zm8.84.007c0-.46,0-.92,0-1.381,0-.364-.187-.583-.483-.588s-.5.216-.5.573q0,1.38,0,2.761c0,.364.187.584.482.589s.5-.222.5-.6C25.7,6.853,25.695,6.4,25.695,5.953Z" transform="translate(0)" fill="#00a0cf"/>
    <path id="Path_220" data-name="Path 220" d="M24.083,28.237c.116-.707.231-1.464.368-2.217a.587.587,0,0,0-.181-.6c-.5-.484-.974-.991-1.463-1.486a.517.517,0,0,1,.316-.949c.7-.1,1.394-.2,2.087-.33a.521.521,0,0,0,.326-.247c.332-.666.645-1.344.956-2.02a.512.512,0,0,1,.993,0c.308.668.629,1.328.931,2a.43.43,0,0,0,.379.285c.7.1,1.393.214,2.09.316a.542.542,0,0,1,.5.349.533.533,0,0,1-.185.577c-.5.511-.993,1.031-1.506,1.53a.542.542,0,0,0-.166.543c.129.734.24,1.471.363,2.207.039.233.009.468-.213.552a.783.783,0,0,1-.565-.023c-.647-.326-1.27-.7-1.913-1.033a.512.512,0,0,0-.41,0c-.652.339-1.288.708-1.936,1.056A.5.5,0,0,1,24.083,28.237Zm2.908-6.582c-.26.549-.5,1.031-.716,1.52a.626.626,0,0,1-.528.4c-.533.072-1.063.165-1.66.259.4.415.761.8,1.14,1.166a.773.773,0,0,1,.252.793c-.11.52-.172,1.05-.264,1.629.44-.243.84-.429,1.2-.673a.925.925,0,0,1,1.153,0c.365.244.767.433,1.2.671-.089-.55-.137-1.039-.253-1.513a.928.928,0,0,1,.328-1c.358-.325.68-.69,1.054-1.074-.582-.09-1.092-.183-1.607-.245a.707.707,0,0,1-.615-.472C27.467,22.647,27.239,22.183,26.99,21.655Z" transform="translate(-6.697 -5.706)" fill="#00a0cf"/>
    <path id="Path_221" data-name="Path 221" d="M18.862,22.967c0,.306.007.614,0,.92a.49.49,0,0,1-.538.532q-.936.01-1.872,0a.487.487,0,0,1-.532-.538q-.01-.936,0-1.872a.486.486,0,0,1,.538-.532q.936-.01,1.872,0a.489.489,0,0,1,.533.538C18.868,22.333,18.862,22.649,18.862,22.967Zm-1,.46v-.952h-.946v.952Z" transform="translate(-4.463 -6.198)" fill="#00a0cf"/>
    <path id="Path_222" data-name="Path 222" d="M41.035,22.948c0,.317.007.635,0,.951a.484.484,0,0,1-.52.519q-.951.012-1.9,0a.479.479,0,0,1-.518-.52q-.012-.952,0-1.9a.479.479,0,0,1,.519-.518q.951-.012,1.9,0a.483.483,0,0,1,.52.519C41.042,22.314,41.035,22.631,41.035,22.948Zm-1,.477v-.944h-.946v.944Z" transform="translate(-11.903 -6.198)" fill="#00a0cf"/>
    <path id="Path_223" data-name="Path 223" d="M8.526,30.31c0-.307-.007-.614,0-.92a.482.482,0,0,1,.517-.521q.952-.012,1.9,0a.479.479,0,0,1,.521.517q.013.952,0,1.9a.481.481,0,0,1-.518.521q-.951.013-1.9,0a.483.483,0,0,1-.521-.518C8.518,30.965,8.526,30.638,8.526,30.31Zm1,.5h.948v-.942H9.522Z" transform="translate(-1.983 -8.678)" fill="#00a0cf"/>
    <path id="Path_224" data-name="Path 224" d="M18.862,30.341c0,.317.007.635,0,.951a.483.483,0,0,1-.521.518q-.952.012-1.9,0a.479.479,0,0,1-.516-.521q-.012-.951,0-1.9a.478.478,0,0,1,.52-.517q.952-.012,1.9,0a.483.483,0,0,1,.518.521C18.868,29.707,18.862,30.024,18.862,30.341Zm-1.005.478v-.955h-.94v.955Z" transform="translate(-4.463 -8.678)" fill="#00a0cf"/>
    <path id="Path_225" data-name="Path 225" d="M41.036,30.35c0,.307.005.614,0,.92a.489.489,0,0,1-.531.54q-.936.012-1.872,0a.487.487,0,0,1-.539-.531q-.011-.936,0-1.872a.485.485,0,0,1,.53-.539q.936-.012,1.872,0a.5.5,0,0,1,.541.561C41.04,29.736,41.036,30.043,41.036,30.35Zm-1-.485h-.95v.944h.95Z" transform="translate(-11.903 -8.678)" fill="#00a0cf"/>
    <path id="Path_226" data-name="Path 226" d="M11.471,37.75c0,.3,0,.593,0,.89a.5.5,0,0,1-.541.561q-.936.011-1.872,0a.487.487,0,0,1-.531-.539q-.01-.936,0-1.872a.486.486,0,0,1,.539-.531q.936-.01,1.872,0a.488.488,0,0,1,.532.538C11.477,37.115,11.471,37.433,11.471,37.75Zm-1.006.461v-.955H9.526v.955Z" transform="translate(-1.983 -11.158)" fill="#00a0cf"/>
    <path id="Path_227" data-name="Path 227" d="M17.39,36.259c.317,0,.635-.007.951,0a.482.482,0,0,1,.518.52q.013.951,0,1.9a.481.481,0,0,1-.52.518q-.952.012-1.9,0a.479.479,0,0,1-.517-.52q-.013-.952,0-1.9a.48.48,0,0,1,.52-.518C16.755,36.251,17.073,36.259,17.39,36.259Zm-.475,1V38.2h.943v-.948Z" transform="translate(-4.463 -11.159)" fill="#00a0cf"/>
    <path id="Path_228" data-name="Path 228" d="M24.76,39.2c-.307,0-.614.006-.921,0a.489.489,0,0,1-.531-.54q-.01-.936,0-1.872a.486.486,0,0,1,.538-.531q.936-.01,1.872,0a.486.486,0,0,1,.531.538q.011.936,0,1.872a.49.49,0,0,1-.539.532C25.395,39.209,25.077,39.2,24.76,39.2Zm.5-1.942h-.944V38.2h.944Z" transform="translate(-6.943 -11.158)" fill="#00a0cf"/>
    <path id="Path_229" data-name="Path 229" d="M32.147,39.2c-.3,0-.593,0-.89,0a.5.5,0,0,1-.557-.544c-.007-.614-.005-1.228,0-1.841a.493.493,0,0,1,.544-.557q.921-.01,1.841,0a.5.5,0,0,1,.558.544q.01.92,0,1.841c0,.377-.189.553-.575.559C32.761,39.208,32.454,39.2,32.147,39.2Zm-.452-1h.948v-.942h-.948Z" transform="translate(-9.423 -11.158)" fill="#00a0cf"/>
    <path id="Path_230" data-name="Path 230" d="M38.09,37.7c0-.307-.007-.614,0-.92a.481.481,0,0,1,.518-.52q.951-.013,1.9,0a.48.48,0,0,1,.521.517q.013.952,0,1.9a.48.48,0,0,1-.517.521q-.952.013-1.9,0a.483.483,0,0,1-.521-.518C38.083,38.356,38.09,38.029,38.09,37.7Zm1.944.506v-.944h-.947v.944Z" transform="translate(-11.903 -11.158)" fill="#00a0cf"/>
  </g>
</svg>
