<svg id="Group_3" data-name="Group 3" xmlns="http://www.w3.org/2000/svg" width="157.839" height="157.861" viewBox="0 0 157.839 157.861">
  <path id="Path_11" data-name="Path 11" d="M-260.719-202.6H-207.7c2.662.837,5.3,1.848,6.891,4.26a42.7,42.7,0,0,1,2.666,5.605v72.443a1.082,1.082,0,0,0-.163.257c-1.905,6.625-5.769,9.529-12.693,9.53q-23.424,0-46.847-.017a16.365,16.365,0,0,1-3.964-.413c-5.388-1.366-8.686-5.86-8.693-11.776q-.025-21.652-.006-43.3c0-8.167-.018-16.335.007-24.5.016-5.359,2.779-9.519,7.46-11.322C-262.281-202.131-261.494-202.348-260.719-202.6Z" transform="translate(355.98 202.6)" fill="#a9b5e6"/>
  <path id="Path_12" data-name="Path 12" d="M-484.636-202.6c1.954.965,4.114,1.658,5.814,2.955,2.813,2.147,3.954,5.31,3.963,8.821.025,9.71.073,19.421-.014,29.13a11.411,11.411,0,0,1-11.73,11.706q-24.429.108-48.858,0c-6.906-.029-11.737-5.062-11.749-12q-.024-14.18,0-28.359c0-6.249,3.106-10.289,9.188-12.011a1.427,1.427,0,0,0,.367-.248Z" transform="translate(547.22 202.6)" fill="#a9b5e6"/>
  <path id="Path_13" data-name="Path 13" d="M-198.275,180.737c-.28.869-.491,1.768-.851,2.6-1.956,4.537-5.44,7.172-10.356,7.207-16.643.119-33.287.093-49.93.021a11.263,11.263,0,0,1-11.173-11.275c-.157-10.015-.173-20.036.006-30.049.119-6.638,5.194-11.248,11.984-11.269,11.61-.035,23.219-.01,34.828-.01,4.367,0,8.733-.008,13.1,0,6.42.015,10.524,3.186,12.173,9.384a1.909,1.909,0,0,0,.218.4Z" transform="translate(356.114 -32.768)" fill="#a9b5e6"/>
  <path id="Path_14" data-name="Path 14" d="M-547.208,56.234q0-16.87,0-33.741c0-7.382,4.857-12.265,12.251-12.273q23.958-.027,47.915,0c7.283.01,12.184,4.906,12.191,12.2q.03,33.818,0,67.636c-.005,7.4-4.89,12.252-12.272,12.256q-23.958.011-47.915,0c-7.293,0-12.164-4.883-12.171-12.178Q-547.219,73.182-547.208,56.234Z" transform="translate(547.213 55.524)" fill="#a9b5e6"/>
</svg>
