<svg xmlns="http://www.w3.org/2000/svg" width="164.335" height="181.176" viewBox="0 0 164.335 181.176">
  <g id="Group_24" data-name="Group 24" transform="translate(428.018 111.411)">
    <path id="Path_70" data-name="Path 70" d="M-399.614-111.411h107.553a8.963,8.963,0,0,0,1.176.32c15.264,2.069,27.08,15.172,27.12,30.587q.156,59.6,0,119.2a31.251,31.251,0,0,1-31.049,31q-51.023.142-102.046,0a31.272,31.272,0,0,1-31.056-31c-.106-39.674-.186-79.35.05-119.023.079-13.407,6.99-22.944,19.131-28.494C-405.893-110.118-402.664-110.57-399.614-111.411Zm53.936,134.795h-37.854c-1.592,0-3.188-.056-4.775.029a6.308,6.308,0,0,0-5.971,5.912,6.255,6.255,0,0,0,5.049,6.528,13.227,13.227,0,0,0,2.633.2q40.773.014,81.545,0a13.046,13.046,0,0,0,2.633-.2,6.24,6.24,0,0,0,5.029-6.2,6.319,6.319,0,0,0-5.139-6.131,13.129,13.129,0,0,0-2.465-.128Q-325.336,23.378-345.678,23.384Zm-.154-54.773q5.394,0,10.789,0c10.435,0,20.87.02,31.3-.027a6.229,6.229,0,0,0,6.291-5.354,6.212,6.212,0,0,0-4.148-6.816,11.685,11.685,0,0,0-3.482-.389q-40.767-.03-81.533-.013a19.187,19.187,0,0,0-2.119.073A6.232,6.232,0,0,0-394-35.9c.884,2.947,3.189,4.507,6.781,4.51Q-366.524-31.378-345.831-31.39Zm.083,21.1q-20.339,0-40.679,0c-.766,0-1.537-.017-2.3.057A6.269,6.269,0,0,0-394.1-2.555c.807,3.2,3.2,4.862,7.05,4.863q41.209.006,82.419,0a15.34,15.34,0,0,0,1.589-.061,6.236,6.236,0,0,0,5.017-8.922c-1.27-2.626-3.478-3.637-6.338-3.63Q-325.055-10.258-345.749-10.291Zm-21.317-54.775c6.954,0,13.909.021,20.864-.008,3.86-.017,6.672-2.7,6.694-6.288a6.353,6.353,0,0,0-6.632-6.361q-20.776-.05-41.551-.009a6.241,6.241,0,0,0-5.015,2.193,5.981,5.981,0,0,0-1.052,6.6,6.017,6.017,0,0,0,5.829,3.853C-380.976-65.04-374.021-65.07-367.066-65.066Z" transform="translate(0)" fill="#a9b5e6"/>
  </g>
</svg>
