<svg id="Group_11" data-name="Group 11" xmlns="http://www.w3.org/2000/svg" width="200.381" height="174.365" viewBox="0 0 200.381 174.365">
  <path id="Path_27" data-name="Path 27" d="M-424.448,57.729V-72.205c1.741-5.438,5.262-8.516,11.168-8.516q89.007.009,178.014.008c6.872,0,11.2,4.387,11.2,11.279q0,62.207,0,124.415c0,7.05-4.264,11.356-11.289,11.356q-88.909.006-177.819-.007a14.243,14.243,0,0,1-2.91-.241C-420.675,65.125-423.159,62.016-424.448,57.729Zm8.3-24.834h183.638c.035-.72.087-1.3.087-1.875q.006-49.992,0-99.985c0-2.884-.5-3.369-3.452-3.369q-88.342,0-176.684,0c-3.168,0-3.589.427-3.589,3.627q0,49.7,0,99.4Zm91.927,23.82a7.043,7.043,0,0,0,7-6.953A7.035,7.035,0,0,0-324.3,42.7a7.034,7.034,0,0,0-7,7.146A7.039,7.039,0,0,0-324.218,56.715Z" transform="translate(424.448 80.721)" fill="#a9b5e6"/>
  <path id="Path_28" data-name="Path 28" d="M-299.306,217.285v-8.472h49.011v8.469c3.383,0,6.556-.025,9.729.006a12.085,12.085,0,0,1,10.728,6.043c2.559,4.126.211,8.439-4.628,8.444q-40.281.046-80.561,0c-4.888,0-7.247-4.19-4.729-8.375a11.964,11.964,0,0,1,10.678-6.11C-305.9,217.25-302.718,217.285-299.306,217.285Z" transform="translate(374.98 -57.432)" fill="#a9b5e6"/>
  <path id="Path_29" data-name="Path 29" d="M-208.284,34.49q0-13.741,0-27.48c.006-4.167,1.517-5.651,5.711-5.665,2.219-.008,4.437,0,6.656,0,4.944,0,6.279,1.313,6.28,6.186q.005,25.978,0,51.955c0,1.073.022,2.148-.009,3.22-.093,3.186-1.735,4.847-4.962,4.914-2.861.06-5.726.056-8.587.005-3.443-.061-5.074-1.725-5.084-5.224C-208.3,53.1-208.284,43.792-208.284,34.49Z" transform="translate(279.225 39.717)" fill="#a9b5e6"/>
  <path id="Path_31" data-name="Path 31" d="M-91.111,46.476q0,11.269,0,22.539c0,4.119-1.57,5.674-5.729,5.7-2.289.017-4.579.008-6.869,0-4.711-.011-6.2-1.474-6.2-6.128q-.008-19.319,0-38.639c0-2.29-.048-4.581.015-6.869.09-3.242,1.881-5.028,5.108-5.091,2.789-.055,5.581-.041,8.371-.005,3.5.045,5.29,1.823,5.3,5.3C-91.095,31.02-91.111,38.748-91.111,46.476Z" transform="translate(237.297 32.633)" fill="#a9b5e6"/>
  <path id="Path_32" data-name="Path 32" d="M-140.452,64.037c0,5.218.011,10.436,0,15.655-.011,3.846-1.611,5.443-5.492,5.481-2.788.027-5.577.053-8.363-.015-3.056-.075-4.857-1.734-4.878-4.8q-.111-16.512,0-33.025c.021-3.143,1.881-4.779,5.073-4.819,2.788-.035,5.576-.026,8.364,0,3.667.03,5.288,1.694,5.3,5.445C-140.441,53.314-140.452,58.675-140.452,64.037Z" transform="translate(258.319 22.176)" fill="#a9b5e6"/>
  <path id="Path_33" data-name="Path 33" d="M-238.962,64.033c0,5.224.021,10.447-.008,15.671-.022,3.874-1.608,5.437-5.5,5.472-2.791.024-5.583.055-8.372-.021-3.056-.084-4.758-1.81-4.768-4.881q-.048-16.423,0-32.846c.009-3.181,1.746-4.863,4.945-4.911,2.575-.039,5.152-.014,7.729-.01,4.564.007,5.964,1.426,5.972,6.069Q-238.95,56.3-238.962,64.033Z" transform="translate(300.259 22.174)" fill="#a9b5e6"/>
  <path id="Path_35" data-name="Path 35" d="M-214.666-39.073c-3.032,2.913-5.917,5.673-8.79,8.448q-8.336,8.049-16.663,16.107c-.461.445-.924,1.139-1.453,1.207-.9.115-2.248.143-2.663-.381-.5-.631-.379-1.908-.207-2.846.1-.522.837-.931,1.3-1.378q13.119-12.67,26.244-25.337c2.149-2.075,3.106-2.017,5.05.3q12.357,14.7,24.712,29.4c.411.488.84.96,1.374,1.569.671-.437,1.319-.83,1.936-1.265q11.743-8.281,23.48-16.572c.466-.329.959-.9,1.428-.889.958.022,2.324.065,2.749.656.441.612.123,1.933-.17,2.844-.162.5-.943.824-1.466,1.194q-12.872,9.1-25.75,18.191c-2.657,1.874-3.27,1.788-5.346-.681q-12.289-14.615-24.576-29.233C-213.8-38.124-214.139-38.485-214.666-39.073Z" transform="translate(294.7 59.446)" fill="#a9b5e6"/>
  <path id="Path_39" data-name="Path 39" d="M-232.575,166.142a2.876,2.876,0,0,1-2.868,2.841,2.871,2.871,0,0,1-2.729-2.974,2.866,2.866,0,0,1,2.764-2.742A2.875,2.875,0,0,1-232.575,166.142Z" transform="translate(335.567 -35.699)" fill="#a9b5e6"/>
</svg>
