<svg id="Group_10" data-name="Group 10" xmlns="http://www.w3.org/2000/svg" width="200.381" height="174.365" viewBox="0 0 200.381 174.365">
  <path id="Path_27" data-name="Path 27" d="M-424.448,57.729V-72.205c1.741-5.438,5.262-8.516,11.168-8.516q89.007.009,178.014.008c6.872,0,11.2,4.387,11.2,11.279q0,62.207,0,124.415c0,7.05-4.264,11.356-11.289,11.356q-88.909.006-177.819-.007a14.243,14.243,0,0,1-2.91-.241C-420.675,65.125-423.159,62.016-424.448,57.729Zm8.3-24.834h183.638c.035-.72.087-1.3.087-1.875q.006-49.992,0-99.985c0-2.884-.5-3.369-3.452-3.369q-88.342,0-176.684,0c-3.168,0-3.589.427-3.589,3.627q0,49.7,0,99.4Zm91.927,23.82a7.043,7.043,0,0,0,7-6.953A7.035,7.035,0,0,0-324.3,42.7a7.034,7.034,0,0,0-7,7.146A7.039,7.039,0,0,0-324.218,56.715Z" transform="translate(424.448 80.721)" fill="#a9b5e6"/>
  <path id="Path_28" data-name="Path 28" d="M-299.306,217.285v-8.472h49.011v8.469c3.383,0,6.556-.025,9.729.006a12.085,12.085,0,0,1,10.728,6.043c2.559,4.126.211,8.439-4.628,8.444q-40.281.046-80.561,0c-4.888,0-7.247-4.19-4.729-8.375a11.964,11.964,0,0,1,10.678-6.11C-305.9,217.25-302.718,217.285-299.306,217.285Z" transform="translate(374.98 -57.432)" fill="#a9b5e6"/>
  <path id="Path_29" data-name="Path 29" d="M-208.284,31.55q0-12.522,0-25.044c.005-3.8,1.382-5.149,5.2-5.163,2.022-.007,4.044,0,6.066,0,4.505,0,5.722,1.2,5.723,5.638q0,23.675,0,47.348c0,.978.02,1.958-.008,2.935-.085,2.9-1.581,4.418-4.522,4.479-2.607.054-5.218.051-7.825,0-3.138-.055-4.624-1.572-4.633-4.761C-208.3,48.507-208.284,40.028-208.284,31.55Z" transform="translate(321.307 41.565)" fill="#a9b5e6"/>
  <path id="Path_30" data-name="Path 30" d="M-371.257-42.708c0,6.518.207,12.9-.054,19.269-.3,7.231,2.272,9.966,9.667,9.642,6.365-.278,12.752-.058,19.134-.058-.3,7.949-11.174,16.874-20.914,17.3a23.762,23.762,0,0,1-25.031-21.139C-389.811-28.68-381.727-40.615-371.257-42.708Z" transform="translate(407.345 62.583)" fill="#a9b5e6"/>
  <path id="Path_31" data-name="Path 31" d="M-92.779,43.947q0,10.27,0,20.54c0,3.754-1.431,5.171-5.221,5.2-2.086.015-4.173.007-6.26,0-4.293-.01-5.649-1.344-5.65-5.585q-.007-17.606,0-35.213c0-2.087-.044-4.175.014-6.26.082-2.954,1.714-4.582,4.655-4.64,2.542-.05,5.086-.037,7.629,0,3.189.041,4.821,1.661,4.831,4.833C-92.765,29.862-92.779,36.9-92.779,43.947Z" transform="translate(274.374 33.636)" fill="#a9b5e6"/>
  <path id="Path_32" data-name="Path 32" d="M-142.118,62.126c0,4.755.01,9.511,0,14.267-.01,3.5-1.468,4.961-5.005,4.995-2.54.025-5.082.048-7.621-.014-2.785-.068-4.426-1.58-4.445-4.376q-.1-15.048,0-30.1c.019-2.865,1.714-4.355,4.623-4.392,2.54-.032,5.082-.024,7.622,0,3.341.028,4.82,1.544,4.829,4.962C-142.108,52.354-142.118,57.24-142.118,62.126Z" transform="translate(297.905 21.931)" fill="#a9b5e6"/>
  <path id="Path_33" data-name="Path 33" d="M-240.617,62.123c0,4.76.019,9.521-.007,14.281-.02,3.53-1.465,4.955-5.011,4.986-2.543.022-5.088.05-7.629-.019-2.785-.076-4.337-1.65-4.345-4.448q-.044-14.967,0-29.933c.008-2.9,1.591-4.432,4.506-4.476,2.347-.036,4.7-.013,7.043-.009,4.159.007,5.435,1.3,5.442,5.531Q-240.607,55.08-240.617,62.123Z" transform="translate(344.851 21.928)" fill="#a9b5e6"/>
  <path id="Path_34" data-name="Path 34" d="M-334.452-18.991c-3.26,0-6.521.009-9.781,0-2.41-.008-3.068-.626-3.073-2.956q-.022-9.879,0-19.758c0-2.348.765-3.051,3.063-2.936a23.677,23.677,0,0,1,22.615,22.484c.138,2.389-.589,3.157-3.043,3.166C-327.931-18.982-331.191-18.991-334.452-18.991Z" transform="translate(387.644 63.512)" fill="#a9b5e6"/>
  <path id="Path_35" data-name="Path 35" d="M-217.319-39.576c-2.763,2.654-5.393,5.17-8.011,7.7q-7.6,7.335-15.186,14.678c-.42.405-.842,1.038-1.324,1.1-.816.1-2.049.131-2.427-.347a3.681,3.681,0,0,1-.189-2.594c.087-.475.763-.849,1.185-1.256q11.956-11.547,23.916-23.09c1.959-1.891,2.831-1.838,4.6.271q11.261,13.4,22.52,26.792c.374.445.766.875,1.252,1.429.612-.4,1.2-.756,1.765-1.153q10.7-7.547,21.4-15.1c.425-.3.874-.82,1.3-.81.873.02,2.118.06,2.5.6.4.557.112,1.761-.155,2.592-.148.46-.859.751-1.336,1.089q-11.73,8.294-23.467,16.578c-2.422,1.708-2.98,1.63-4.872-.621q-11.2-13.319-22.4-26.641C-216.528-38.712-216.839-39.041-217.319-39.576Z" transform="translate(338.628 63.559)" fill="#a9b5e6"/>
  <path id="Path_36" data-name="Path 36" d="M-364.673,89.518q-10.062,0-20.125,0c-.521,0-1.187.186-1.533-.065-.761-.551-1.87-1.316-1.882-2.011s1.078-1.489,1.824-2.056c.335-.255,1.01-.072,1.53-.072q20.125,0,40.25,0a12.651,12.651,0,0,1,1.366.022c1.276.14,2.258.912,2,2.13-.165.779-1.2,1.453-1.968,1.992-.353.247-1.013.061-1.534.061Q-354.708,89.519-364.673,89.518Z" transform="translate(407.158 1.528)" fill="#a9b5e6"/>
  <path id="Path_37" data-name="Path 37" d="M-364.783,61.925q10.173,0,20.346,0c.586,0,1.342-.178,1.72.114a3.477,3.477,0,0,1,1.465,2c.043.585-.772,1.4-1.4,1.812a3.883,3.883,0,0,1-1.914.163q-20.15.009-40.3,0c-.521,0-1.2.178-1.532-.078-.738-.559-1.825-1.366-1.8-2.031a2.786,2.786,0,0,1,1.912-1.879,35.076,35.076,0,0,1,5.463-.1Q-372.8,61.922-364.783,61.925Z" transform="translate(407.152 12.684)" fill="#a9b5e6"/>
  <path id="Path_38" data-name="Path 38" d="M-364.714,113.1q-10.075,0-20.15,0c-.65,0-1.457.17-1.914-.143-.664-.455-1.488-1.285-1.477-1.942s.865-1.453,1.542-1.89c.471-.3,1.267-.126,1.918-.127q20.053-.006,40.1,0c.521,0,1.189-.178,1.534.075.75.551,1.856,1.339,1.84,2.008s-1.109,1.707-1.9,1.908a17.014,17.014,0,0,1-4.085.115Q-356.008,113.1-364.714,113.1Z" transform="translate(407.178 -9.771)" fill="#a9b5e6"/>
  <path id="Path_39" data-name="Path 39" d="M-232.575,166.142a2.876,2.876,0,0,1-2.868,2.841,2.871,2.871,0,0,1-2.729-2.974,2.866,2.866,0,0,1,2.764-2.742A2.875,2.875,0,0,1-232.575,166.142Z" transform="translate(335.567 -35.699)" fill="#a9b5e6"/>
</svg>
