<svg xmlns="http://www.w3.org/2000/svg" width="148.227" height="191.562" viewBox="0 0 148.227 191.562">
  <g id="Group_26" data-name="Group 26" transform="translate(586.189 278.026)">
    <path id="Path_79" data-name="Path 79" d="M-468.628,103.7c0-1.255-.05-2.442.008-3.624.283-5.778-2.083-10.027-7.091-12.589a51.194,51.194,0,0,0,.446-5.719,11.2,11.2,0,0,0-3.57-7.683q-2.434-2.442-4.876-4.875a12.113,12.113,0,0,0-12.78-3.189l-.645.19a12.327,12.327,0,0,0-6.629-6.436,8.315,8.315,0,0,0-2.688-.737A95.475,95.475,0,0,0-517.283,59c-4.549.386-7.709,3.079-9.751,7.223a13.043,13.043,0,0,0-6.889-.6,11.981,11.981,0,0,0-6.224,3.283c-1.455,1.434-2.849,2.933-4.346,4.321-4.2,3.9-5.507,8.534-3.707,14.1-.3.176-.619.365-.94.551A11.942,11.942,0,0,0-555.53,98.5c-.044,1.731-.007,3.465-.007,5.328h-1.539q-12.642,0-25.283,0c-2.98,0-3.942-.942-3.819-3.9.324-7.821.528-15.652,1.095-23.457.5-6.9,1.92-13.644,5.349-19.8a37.317,37.317,0,0,1,12.023-12.654c7.344-4.99,15.5-8.273,23.8-11.245,2.6-.931,5.241-1.749,7.854-2.646a3.406,3.406,0,0,1,3.142.434q20.831,13.341,41.7.038a3.863,3.863,0,0,1,2.737-.556c9.682,2.682,19.211,5.8,27.984,10.832,7.04,4.041,12.935,9.232,16.616,16.634a45.164,45.164,0,0,1,4.52,16.781c.671,8.777.97,17.582,1.388,26.378a2.767,2.767,0,0,1-2.908,3.146c-9.066.025-18.132.007-27.2,0A3.859,3.859,0,0,1-468.628,103.7Z" transform="translate(0 -229.301)" fill="#a9b5e6"/>
    <path id="Path_80" data-name="Path 80" d="M-410.7-278.026a39.326,39.326,0,0,1,39.357,39.383A39.343,39.343,0,0,1-410.7-199.381,39.337,39.337,0,0,1-449.992-238.7,39.327,39.327,0,0,1-410.7-278.026Z" transform="translate(-101.415)" fill="#a9b5e6"/>
    <path id="Path_81" data-name="Path 81" d="M-445.593,208.283c-6.052-.791-9.161-4.33-9.162-10.251q0-2.873,0-5.746c.01-5.712,3.309-9.379,9.121-9.982-.25-.353-.449-.648-.662-.933a9.188,9.188,0,0,1,.728-12.032c1.684-1.747,3.414-3.448,5.141-5.152a9.177,9.177,0,0,1,12.6-.753c.132.1.27.194.535.384.1-.465.2-.846.258-1.232a9.12,9.12,0,0,1,8.908-7.8c2.468-.042,4.938-.028,7.406-.009a9.126,9.126,0,0,1,9.358,8.167c.038.247.09.493.1.554a31.185,31.185,0,0,1,4.863-1.984,8.574,8.574,0,0,1,8.187,2.479q2.661,2.575,5.239,5.235a9.174,9.174,0,0,1,.681,12.322c-.15.2-.3.4-.536.717.639.092,1.167.138,1.682.246a9.2,9.2,0,0,1,7.443,8.99c.067,2.51.073,5.024,0,7.533-.15,5.084-3.557,8.552-8.851,9.2a26.713,26.713,0,0,1,1.98,4.274,8.721,8.721,0,0,1-2.316,8.707c-1.7,1.785-3.464,3.518-5.231,5.242a9.179,9.179,0,0,1-12.42.706c-.165-.127-.328-.256-.61-.476-.1.447-.192.79-.243,1.14a9.18,9.18,0,0,1-9.053,7.947c-2.383.03-4.767.014-7.151.006a9.181,9.181,0,0,1-9.488-8.19c-.039-.249-.086-.5-.154-.88-.373.265-.665.467-.951.677a9.158,9.158,0,0,1-11.837-.658c-1.921-1.807-3.784-3.681-5.6-5.594a9.151,9.151,0,0,1-.618-12.033C-446.065,208.875-445.881,208.649-445.593,208.283Zm31.34-30.52a16.057,16.057,0,0,0-16.065,16.062,16.1,16.1,0,0,0,16.137,16.141,16.114,16.114,0,0,0,16.07-16.084A16.062,16.062,0,0,0-414.252,177.763Z" transform="translate(-97.868 -322.26)" fill="#a9b5e6"/>
  </g>
</svg>
