<svg xmlns="http://www.w3.org/2000/svg" width="164.069" height="174.176" viewBox="0 0 164.069 174.176">
  <g id="Group_12" data-name="Group 12" transform="translate(410.89 105.882)">
    <path id="Path_40" data-name="Path 40" d="M-226.353,68.294h-105.19c4.661-6.563,5.023-14.032,5.007-21.745q-.151-75.042-.051-150.085v-2.346h123.031V-23.82q0,33.182-.011,66.364a25.62,25.62,0,0,1-19.169,24.913C-223.932,67.773-225.147,68.017-226.353,68.294Zm2.178-102.557V-85.376h-81.76v51.113Zm-30.6,51.153h30.629V-23.819h-30.629Zm-51.216.231v10.05h40.8V17.121Zm40.815-40.97h-40.762v10.02h40.762Zm-.01,20.483h-40.743v10h40.743Z" transform="translate(-43.274)" fill="#a9b5e6"/>
    <path id="Path_41" data-name="Path 41" d="M-397.625,172.88c-2.362-1.031-4.941-1.74-7.039-3.161a13.718,13.718,0,0,1-6.175-11.728c-.085-23.876-.041-47.752-.041-71.628a4.215,4.215,0,0,1,.07-.475h30.665V87.9q0,34.113,0,68.226c0,8.966-4.089,14.234-12.8,16.542-.1.025-.167.14-.25.213Z" transform="translate(0 -104.586)" fill="#a9b5e6"/>
    <path id="Path_42" data-name="Path 42" d="M-191.406-7.636h-61.24V-38.243h61.24Z" transform="translate(-86.302 -36.888)" fill="#a9b5e6"/>
    <path id="Path_43" data-name="Path 43" d="M-130,117.346h-10.03V97.027H-130Z" transform="translate(-147.718 -110.661)" fill="#a9b5e6"/>
  </g>
</svg>
