<svg xmlns="http://www.w3.org/2000/svg" width="155.11" height="180.871" viewBox="0 0 155.11 180.871">
  <g id="Group_14" data-name="Group 14" transform="translate(397.625 78.948)">
    <path id="Path_44" data-name="Path 44" d="M-320.1-78.848v2.29q0,14.532,0,29.064c.018,11.872,8.323,20.2,20.173,20.222q14.535.027,29.069,0h2.315c.046.715.115,1.3.115,1.878.006,12.716-.017,25.432.037,38.147a2.836,2.836,0,0,1-1.5,2.714,37.37,37.37,0,0,0-5.5,4.391q-24.356,24.173-48.588,48.469a7.383,7.383,0,0,0-1.786,3.236c-2.461,9.493-4.819,19.012-7.21,28.523-.146.578-.316,1.15-.5,1.819h-1.678q-24.527,0-49.054-.007c-7.831-.012-13.4-5.53-13.405-13.316q-.024-77.1,0-154.2c0-7.525,5.477-13.279,12.8-13.3,21.264-.058,42.527-.019,63.791-.015C-320.825-78.931-320.625-78.9-320.1-78.848Zm-13.01,83.874q15.944,0,31.89.008a6.435,6.435,0,0,0,6.434-3.984c1.908-4.344-1.36-8.921-6.359-8.932-11.975-.027-23.951-.009-35.927-.009q-13.927,0-27.854,0a6.357,6.357,0,0,0-6.292,3.881C-373.19.333-369.99,4.995-365,5.014-354.374,5.053-343.743,5.026-333.113,5.026Zm-3.166,12.919q-14.33,0-28.66.006a6.487,6.487,0,0,0-6.382,4.057c-1.761,4.423,1.468,8.841,6.531,8.846q28.357.028,56.715.006c4.425,0,7.386-2.649,7.345-6.531-.041-3.8-2.977-6.379-7.291-6.382Q-322.151,17.936-336.279,17.945ZM-349.237,56.7c5.18,0,10.36.012,15.54,0,4.235-.013,7.176-2.73,7.126-6.546-.049-3.727-2.963-6.36-7.1-6.364q-15.539-.018-31.079,0c-4.12.006-7.013,2.685-7.022,6.436s2.908,6.454,7,6.471C-359.6,56.713-354.417,56.7-349.237,56.7ZM-352.3-33.727c-4.171,0-8.341-.017-12.512,0-4.094.021-6.984,2.739-6.959,6.5.025,3.658,2.911,6.394,6.86,6.406q12.512.038,25.024,0c3.954-.012,6.833-2.739,6.861-6.4.029-3.741-2.886-6.482-6.963-6.5C-344.1-33.743-348.2-33.727-352.3-33.727Z" fill="#a9b5e6"/>
    <path id="Path_45" data-name="Path 45" d="M-257.584,202.307c2.142-8.586,4.175-16.787,6.257-24.974a3.9,3.9,0,0,1,1.025-1.675q14.736-14.784,29.515-29.526c.14-.14.315-.245.251-.2l19.3,19.3c-.122.135-.5.588-.913,1q-14.186,14.194-28.41,28.349a7.053,7.053,0,0,1-3.076,1.669C-241.484,198.3-249.355,200.24-257.584,202.307Z" transform="translate(-62.515 -100.383)" fill="#a9b5e6"/>
    <path id="Path_46" data-name="Path 46" d="M-234.255-77.8l38.2,38.129h-1.662q-14.63,0-29.26,0c-4.678,0-7.268-2.57-7.273-7.211q-.017-14.728,0-29.456Z" transform="translate(-72.928 -0.51)" fill="#a9b5e6"/>
    <path id="Path_47" data-name="Path 47" d="M-153.724,138.449-173.266,118.9c3.249-2.987,6.359-6.48,10.077-9.116,5.288-3.747,12.688-2.5,17.077,2.238a13.321,13.321,0,0,1,1.1,17.212C-147.631,132.585-150.864,135.461-153.724,138.449Z" transform="translate(-100.154 -83.268)" fill="#a9b5e6"/>
  </g>
</svg>
