<svg id="Group_6" data-name="Group 6" xmlns="http://www.w3.org/2000/svg" width="116.673" height="167.403" viewBox="0 0 116.673 167.403">
  <path id="Path_23" data-name="Path 23" d="M-260.209-40.043h65.133v2.4q0,20.72,0,41.44c0,5.154,2.46,7.6,7.639,7.6q20.612.006,41.224,0h2.675v2.342q0,53.034,0,106.068c0,5.046-2.477,7.552-7.472,7.552q-53.571.006-107.141,0h-2.058Zm51.987,64.324q-15.981,0-31.961,0c-4.339,0-7.28,2.615-7.284,6.43s2.943,6.446,7.269,6.448q31.746.01,63.492,0c4.485,0,7.453-2.643,7.39-6.541-.061-3.816-2.98-6.336-7.375-6.339Q-192.457,24.273-208.222,24.281Zm.076,25.77q-16.2,0-32.39.007c-4,.007-6.882,2.689-6.931,6.35-.049,3.743,2.874,6.5,6.979,6.522,4.076.025,8.151.006,12.227.006q25.847,0,51.695.014c2.992.005,5.33-1.029,6.636-3.794,2.072-4.388-1.148-9.078-6.255-9.095C-186.839,50.027-197.493,50.051-208.147,50.05Zm-.279,38.653c10.8,0,21.593.022,32.389-.012a6.436,6.436,0,0,0,6.721-6.341,6.438,6.438,0,0,0-6.757-6.519q-32.283-.033-64.565.034a8.3,8.3,0,0,0-3.843,1.048,6.155,6.155,0,0,0-2.8,6.847,6.418,6.418,0,0,0,6.461,4.931C-230.019,88.722-219.223,88.7-208.426,88.7ZM-227.808,11.4c4.214,0,8.429.011,12.643,0,4.3-.015,7.239-2.686,7.2-6.511-.042-3.746-2.941-6.359-7.121-6.367q-12.644-.022-25.287,0c-4.153.007-7.067,2.662-7.089,6.4s2.9,6.453,7.015,6.476C-236.238,11.413-232.023,11.4-227.808,11.4Z" transform="translate(260.209 40.043)" fill="#a9b5e6"/>
  <path id="Path_24" data-name="Path 24" d="M-90.067,1.743h-33.971V-32.235Z" transform="translate(202.17 36.715)" fill="#a9b5e6"/>
</svg>
