<svg xmlns="http://www.w3.org/2000/svg" width="177.215" height="177.176" viewBox="0 0 177.215 177.176">
  <g id="Group_16" data-name="Group 16" transform="translate(523.178 143.934)">
    <path id="Path_48" data-name="Path 48" d="M-440.112-143.934h11.075c.444.1.885.22,1.333.286,4.042.6,8.129.971,12.121,1.8,37.065,7.712,65.936,40.265,69.222,77.92,1.527,17.491-1.264,34.241-9.761,49.637C-372.73,15.8-398.416,31.833-432.8,33.175a83.221,83.221,0,0,1-50.772-14.732Q-514.82-2.683-521.8-39.89c-.609-3.273-.926-6.6-1.377-9.9V-60.868c.1-.5.218-1,.3-1.5.7-4.49,1.121-9.046,2.142-13.462a88.37,88.37,0,0,1,71.068-66.776C-446.5-143.147-443.3-143.5-440.112-143.934ZM-445.921-14.1a13.575,13.575,0,0,0,9.779-4.548q17.092-17.521,34.25-34.978c6.986-7.121,14.014-14.2,20.985-21.336,4.971-5.088,5.167-12.595.533-17.628-4.965-5.393-13.11-5.337-18.587.205q-21.158,21.409-42.267,42.865c-3.547,3.6-6.882,3.6-10.472.014q-9.3-9.293-18.588-18.6a12.364,12.364,0,0,0-10.429-4.014,11.9,11.9,0,0,0-10.6,8.185c-1.78,4.939-.711,9.433,2.952,13.224,2.444,2.529,4.964,4.985,7.451,7.472q12.353,12.356,24.7,24.721A13.807,13.807,0,0,0-445.921-14.1Z" fill="#a9b5e6"/>
  </g>
</svg>
