<svg xmlns="http://www.w3.org/2000/svg" width="194.944" height="181.176" viewBox="0 0 194.944 181.176">
  <g id="Group_23" data-name="Group 23" transform="translate(402.379 75.065)">
    <path id="Path_56" data-name="Path 56" d="M-402.379,138.457V13.956h194.938V16.3q0,59.2,0,118.39c0,9.52-5.626,15.16-15.117,15.16H-387.2c-.571,0-1.142.009-1.713-.008a13.827,13.827,0,0,1-12.817-9.646C-401.921,139.608-402.162,139.037-402.379,138.457Zm47.385-65.567c0-4.821.032-9.643-.013-14.463-.024-2.584-1.209-3.689-3.762-3.7-.507,0-1.015.012-1.521.047-19.061,1.334-33.554,16.942-32.952,36,.468,14.835,7.788,25.682,21.356,31.475,13.666,5.834,26.439,3.258,37.676-6.492,2.593-2.25,2.566-3.776.157-6.189q-9.816-9.832-19.664-19.63a3.984,3.984,0,0,1-1.3-3.164C-354.949,82.152-354.991,77.52-354.994,72.89Zm128.778-20.018a15.582,15.582,0,0,0,2.069-.327,10.1,10.1,0,0,0,7.554-9.008,10.224,10.224,0,0,0-6.055-10.1,9.927,9.927,0,0,0-11.605,2.6A2.225,2.225,0,0,1-237,36.8q-4.926-1.432-9.912-2.652A2.159,2.159,0,0,1-248.8,32.24a9.946,9.946,0,0,0-10.989-8.088,9.915,9.915,0,0,0-9,10.034,1.866,1.866,0,0,1-1.334,1.94c-3.972,1.824-7.933,3.676-11.864,5.585-.944.458-1.493.16-2.354-.3a16.273,16.273,0,0,0-5.724-2.228,9.873,9.873,0,0,0-10.745,9.422A10.041,10.041,0,0,0-291.3,59.335a10.037,10.037,0,0,0,10.715-9.925,2.008,2.008,0,0,1,1.355-2.129c3.925-1.775,7.817-3.624,11.7-5.49a1.893,1.893,0,0,1,2.36.215c4.617,3.657,10.305,3.063,14.315-1.294a2.3,2.3,0,0,1,1.858-.6c3.635.865,7.252,1.814,10.834,2.874a2.481,2.481,0,0,1,1.391,1.588A10.392,10.392,0,0,0-226.216,52.872ZM-248.495,88.7q0-15.88-.008-31.761c-.006-3.055-1.51-4.557-4.555-4.587-3.423-.034-6.846-.011-10.27-.009-4.39,0-5.669,1.268-5.67,5.636q0,22.633,0,45.265c0,5.706-.028,11.412.013,17.117.023,3.256,1.578,4.777,4.792,4.8,3.487.021,6.973.01,10.46,0,3.9-.008,5.235-1.34,5.237-5.269Q-248.486,104.295-248.495,88.7Zm32.009,4.256q0-13.507,0-27.014c-.005-3.628-1.473-5.107-5.047-5.122q-5.136-.021-10.273,0c-3.679.013-5.158,1.5-5.173,5.229-.019,4.756,0,9.512,0,14.268q0,19.88.007,39.76c0,3.546,1.494,5.065,4.9,5.081,3.488.016,6.976.01,10.463,0,3.755-.009,5.129-1.387,5.133-5.19Q-216.474,106.462-216.486,92.955Zm-64,3.391c0-8.116.015-16.232-.008-24.348-.009-3.094-1.589-4.668-4.7-4.7-3.55-.037-7.1-.02-10.652-.006s-5.116,1.55-5.14,5.081c-.024,3.55-.006,7.1-.006,10.652q0,18.355,0,36.711c0,4,1.4,5.417,5.33,5.423q5.041.008,10.082,0c3.667-.01,5.081-1.4,5.086-5.037Q-280.472,108.235-280.487,96.346Zm-51.889-11.123c5.069,0,10.139.011,15.208,0,2.991-.009,4.027-1.066,3.983-3.988a35.14,35.14,0,0,0-34.468-34.322c-2.674-.032-3.807,1.049-3.812,3.787q-.029,15.3,0,30.608c0,2.874,1.036,3.9,3.881,3.914C-342.515,85.237-337.445,85.223-332.376,85.223Zm4.431,3.485c-5.072,0-10.145.011-15.217-.006-1.623-.006-3.069.312-3.773,1.969s.069,2.9,1.228,4.055q10.714,10.672,21.4,21.374c2.2,2.2,3.782,2.163,5.94-.17a35.12,35.12,0,0,0,9.5-22.838c.154-3.168-.993-4.371-4.243-4.381C-318.053,88.7-323,88.708-327.944,88.708Z" transform="translate(0 -43.741)" fill="#a9b5e6"/>
    <path id="Path_57" data-name="Path 57" d="M-402.379-35.877V-63.671a3.259,3.259,0,0,0,.344-.641c1.909-6.861,6.965-10.748,14.068-10.749q83.087-.008,166.174,0c8.455,0,14.325,5.9,14.347,14.395.02,7.614.007,15.228,0,22.842,0,.544-.075,1.087-.126,1.78h-2.768q-94.7,0-189.4.007C-400.618-36.036-401.5-35.932-402.379-35.877Zm140.5-21.274h-24.546c-3.679,0-7.358-.03-11.036.014a3.2,3.2,0,0,0-3.493,3.015c-.085,1.831,1.289,3.171,3.411,3.315.379.025.761.011,1.141.011q34.441,0,68.881-.008a8.707,8.707,0,0,0,2.255-.217,2.842,2.842,0,0,0,2.247-2.925,2.833,2.833,0,0,0-2.169-2.982,8.13,8.13,0,0,0-2.251-.215Q-244.66-57.16-261.881-57.151Zm-75.961,3.221a10.363,10.363,0,0,0-10.192-10.394,10.425,10.425,0,0,0-10.433,10.363,10.372,10.372,0,0,0,10.308,10.282A10.319,10.319,0,0,0-337.842-53.93Zm-48.969-.105a10.265,10.265,0,0,0,10.185,10.351,10.335,10.335,0,0,0,10.4-10.169A10.394,10.394,0,0,0-376.54-64.325,10.328,10.328,0,0,0-386.811-54.035Zm77.351.071a10.341,10.341,0,0,0-10.211-10.36,10.371,10.371,0,0,0-10.372,10.4,10.306,10.306,0,0,0,10.317,10.237A10.277,10.277,0,0,0-309.46-53.964Z" transform="translate(0 0)" fill="#a9b5e6"/>
    <path id="Path_58" data-name="Path 58" d="M-346.45,107.052v2.075c0,8.369.047,16.738-.036,25.107a5.984,5.984,0,0,0,1.923,4.7c5.969,5.865,11.856,11.814,17.769,17.736.481.482.938.987,1.4,1.479-7.17,6.593-20.582,9.024-31.582,3.057a28.97,28.97,0,0,1-14.573-31.87C-369.026,117.516-358.258,107.893-346.45,107.052Z" transform="translate(-14.82 -89.485)" fill="#a9b5e6"/>
    <path id="Path_59" data-name="Path 59" d="M-56.917,66.765a3.937,3.937,0,0,1-3.771,3.97,3.992,3.992,0,0,1-3.965-3.795A3.892,3.892,0,0,1-60.866,63,3.853,3.853,0,0,1-56.917,66.765Z" transform="translate(-165.944 -67.841)" fill="#a9b5e6"/>
    <path id="Path_60" data-name="Path 60" d="M-123.712,53.868a3.865,3.865,0,0,1-3.847-3.858,3.969,3.969,0,0,1,3.913-3.836,3.865,3.865,0,0,1,3.812,3.9A3.781,3.781,0,0,1-123.712,53.868Z" transform="translate(-135.035 -59.572)" fill="#a9b5e6"/>
    <path id="Path_61" data-name="Path 61" d="M-182.768,79.881a3.849,3.849,0,0,1-4.09,3.589,3.957,3.957,0,0,1-3.588-4.138,3.864,3.864,0,0,1,4.133-3.554A3.777,3.777,0,0,1-182.768,79.881Z" transform="translate(-104.13 -74.114)" fill="#a9b5e6"/>
    <path id="Path_62" data-name="Path 62" d="M-127.5,161.962v-60.03h7.7v60.03Z" transform="translate(-135.064 -86.969)" fill="#a9b5e6"/>
    <path id="Path_63" data-name="Path 63" d="M-56.824,170.326H-64.5v-51.55h7.672Z" transform="translate(-166.022 -95.245)" fill="#a9b5e6"/>
    <path id="Path_64" data-name="Path 64" d="M-190.334,131.505h7.7v45.026h-7.7Z" transform="translate(-104.19 -101.5)" fill="#a9b5e6"/>
    <path id="Path_65" data-name="Path 65" d="M-289.814,117.16V91.879c11.743.389,24.6,11.689,25.289,25.281Z" transform="translate(-55.31 -82.029)" fill="#a9b5e6"/>
    <path id="Path_66" data-name="Path 66" d="M-250.86,173.641a27.9,27.9,0,0,1-5.836,14.438l-14.368-14.438Z" transform="translate(-64.523 -122.204)" fill="#a9b5e6"/>
    <path id="Path_67" data-name="Path 67" d="M-299.529-41.471a4.011,4.011,0,0,1,3.933,4.023,4.066,4.066,0,0,1-3.995,3.985A4.028,4.028,0,0,1-303.6-37.6,3.98,3.98,0,0,1-299.529-41.471Z" transform="translate(-48.535 -16.507)" fill="#a9b5e6"/>
    <path id="Path_68" data-name="Path 68" d="M-351.5-37.571a3.983,3.983,0,0,1-3.84,4.107,4.082,4.082,0,0,1-4.172-4.011,4.039,4.039,0,0,1,3.984-3.991A3.93,3.93,0,0,1-351.5-37.571Z" transform="translate(-21.064 -16.509)" fill="#a9b5e6"/>
    <path id="Path_69" data-name="Path 69" d="M-243.807-41.466a3.993,3.993,0,0,1,4.038,3.921,4.044,4.044,0,0,1-4.087,4.081A4.028,4.028,0,0,1-247.79-37.5,3.974,3.974,0,0,1-243.807-41.466Z" transform="translate(-75.959 -16.509)" fill="#a9b5e6"/>
  </g>
</svg>
