<svg xmlns="http://www.w3.org/2000/svg" width="177.085" height="177.176" viewBox="0 0 177.085 177.176">
  <g id="Group_25" data-name="Group 25" transform="translate(439.865 96.651)">
    <path id="Path_71" data-name="Path 71" d="M-370.51-96.651a69.31,69.31,0,0,1,69.058,69.062,69.4,69.4,0,0,1-69.2,69.344,69.324,69.324,0,0,1-69.212-69.3A69.2,69.2,0,0,1-370.51-96.651Zm.015,8.367a60.7,60.7,0,0,0-61,60.437c-.156,33.618,26.87,61.1,60.234,61.241a60.864,60.864,0,0,0,61.435-60.868A60.808,60.808,0,0,0-370.495-88.284Z" fill="#a9b5e6"/>
    <path id="Path_72" data-name="Path 72" d="M-245.38,120.7c4.365-3.74,8.642-6.983,12.4-10.745,3.651-3.655,6.771-7.842,10.3-12,12.811,10.78,25.911,21.355,38.472,32.534,8.357,7.437,8.129,20.425.345,28.479-7.652,7.917-20.764,8.861-28.147.817C-223.631,147.117-234.39,133.662-245.38,120.7Z" transform="translate(-84.799 -84.85)" fill="#a9b5e6"/>
    <path id="Path_73" data-name="Path 73" d="M-333.04,59.442c-6.63-1.454-12.717-2.293-18.456-4.186-5.758-1.9-6.988-5.032-5.94-11a24.97,24.97,0,0,1,7.995-14.412c1.519-1.4,2.639-1.823,4.661-.47,7.717,5.168,15.655,5.134,23.386-.03,1.776-1.186,2.889-1.051,4.372.288a24.852,24.852,0,0,1,8.4,15.868c.594,4.89-.5,7.743-5.158,9.291C-320.114,56.9-326.791,57.983-333.04,59.442Z" transform="translate(-35.793 -54.583)" fill="#a9b5e6"/>
    <path id="Path_74" data-name="Path 74" d="M-387.3,46.457c-5.717-1.166-11.872-1.984-17.739-3.758-4.525-1.368-5.43-3.827-4.806-8.509a19.945,19.945,0,0,1,7.73-13.621c5.2,1.26,9.632,3.206,14.043,3.151,4.079-.051,8.132-2.244,12.88-3.7-3.12,4.6-6.144,8.059-7.983,12.059C-385.03,36.116-385.712,40.7-387.3,46.457Z" transform="translate(-13.013 -50.869)" fill="#a9b5e6"/>
    <path id="Path_75" data-name="Path 75" d="M-267.922,46.75c-.192-10.345-3.38-18.2-9.944-24.888,1.048.424,2.075.907,3.146,1.262,5.5,1.822,10.845,1.471,15.649-1.87,1.942-1.351,3.11-1.092,4.642.412a21.648,21.648,0,0,1,6.7,13.7c.329,3.278-.8,5.924-3.806,6.924C-256.72,44.019-262.089,45.2-267.922,46.75Z" transform="translate(-70.635 -51.026)" fill="#a9b5e6"/>
    <path id="Path_76" data-name="Path 76" d="M-322.681-.4a11.4,11.4,0,0,1-11.258-11.158,11.415,11.415,0,0,1,11.16-11.261,11.382,11.382,0,0,1,11.236,11.167A11.341,11.341,0,0,1-322.681-.4Z" transform="translate(-46.186 -32.191)" fill="#a9b5e6"/>
    <path id="Path_77" data-name="Path 77" d="M-269.059,1.463a9.487,9.487,0,0,1-9.361-9.5,9.6,9.6,0,0,1,9.523-9.394,9.542,9.542,0,0,1,9.54,9.751A9.456,9.456,0,0,1-269.059,1.463Z" transform="translate(-70.393 -34.541)" fill="#a9b5e6"/>
    <path id="Path_78" data-name="Path 78" d="M-379.86-17.431a9.428,9.428,0,0,1,9.032,9.783,9.287,9.287,0,0,1-10.038,9.1,9.439,9.439,0,0,1-8.9-9.909A9.586,9.586,0,0,1-379.86-17.431Z" transform="translate(-21.837 -34.538)" fill="#a9b5e6"/>
  </g>
</svg>
