<!DOCTYPE svg PUBLIC "-//W3C//DTD SVG 1.1//EN" "http://www.w3.org/Graphics/SVG/1.1/DTD/svg11.dtd">
<!-- Uploaded to: SVG Repo, www.svgrepo.com, Transformed by: SVG Repo Mixer Tools -->
<svg fill="#a9b5e6" height="800px" width="800px" version="1.1" id="Layer_1" xmlns="http://www.w3.org/2000/svg" xmlns:xlink="http://www.w3.org/1999/xlink" viewBox="0 0 512 512" xml:space="preserve" stroke="#a9b5e6">
<g id="SVGRepo_bgCarrier" stroke-width="0"/>
<g id="SVGRepo_tracerCarrier" stroke-linecap="round" stroke-linejoin="round"/>
<g id="SVGRepo_iconCarrier"> <g> <g> <path d="M422.72,42.667h-60.053V32.491C362.667,14.571,348.096,0,330.176,0H181.824c-17.92,0-32.491,14.571-32.491,32.491v10.176 H89.28c-25.707,0-46.613,20.907-46.613,46.613v376.107C42.667,491.093,63.573,512,89.28,512h333.44 c25.707,0,46.613-20.907,46.613-46.613V89.28C469.333,63.573,448.427,42.667,422.72,42.667z M192,42.667h128v42.667H192V42.667z M213.333,405.333H128V320h85.333V405.333z M213.333,256H128v-85.333h85.333V256z M362.667,384h-85.333 C265.557,384,256,374.443,256,362.667s9.557-21.333,21.333-21.333h85.333c11.776,0,21.333,9.557,21.333,21.333 S374.443,384,362.667,384z M362.667,234.667h-85.333c-11.776,0-21.333-9.557-21.333-21.333c0-11.776,9.556-21.334,21.332-21.334 h85.333c11.776,0,21.333,9.557,21.333,21.333S374.443,234.667,362.667,234.667z"/> </g> </g> </g>
</svg>