<!DOCTYPE svg PUBLIC "-//W3C//DTD SVG 1.1//EN" "http://www.w3.org/Graphics/SVG/1.1/DTD/svg11.dtd">
<!-- Uploaded to: SVG Repo, www.svgrepo.com, Transformed by: SVG Repo Mixer Tools -->
<svg fill="#a9b5e6" version="1.1" id="Capa_1" xmlns="http://www.w3.org/2000/svg" xmlns:xlink="http://www.w3.org/1999/xlink" width="800px" height="800px" viewBox="0 0 35.666 35.667" xml:space="preserve" stroke="#a9b5e6">
<g id="SVGRepo_bgCarrier" stroke-width="0"/>
<g id="SVGRepo_tracerCarrier" stroke-linecap="round" stroke-linejoin="round"/>
<g id="SVGRepo_iconCarrier"> <g> <g> <path d="M16.127,25.327L0,25.347c-0.005-3.267,2.246-4.613,5.382-5.043l1.809,3.532l0.281-2.299l-0.445-0.365l0.986-0.002h1.078 l-0.445,0.365l0.289,2.297l1.799-3.535C13.869,20.717,16.123,22.061,16.127,25.327z M4.676,16.306c0.009,0,0.017-0.01,0.025-0.014 c0.542,1.957,1.944,3.419,3.366,3.451c1.295-0.061,2.885-1.501,3.414-3.449c0.242,0.014,0.484-0.272,0.556-0.674 c0.067-0.416-0.081-0.79-0.332-0.832c-0.019-0.004-0.031,0.006-0.048,0.01c-0.078-3.226-1.607-4.354-3.536-4.402 c-1.985,0.013-3.765,1.396-3.647,4.41c-0.019-0.002-0.037-0.012-0.057-0.008c-0.249,0.043-0.398,0.414-0.327,0.832 C4.162,16.048,4.422,16.349,4.676,16.306z M28.564,28.297l-1.797,3.535l-0.289-2.297l0.444-0.365h-1.077l-0.986,0.002l0.445,0.365 l-0.281,2.299l-1.81-3.532c-3.136,0.43-5.387,1.776-5.382,5.043l16.127-0.021C33.956,30.061,31.702,28.717,28.564,28.297z M29.49,22.797c-0.078-3.225-1.607-4.354-3.536-4.4c-1.986,0.014-3.765,1.396-3.647,4.411c-0.019-0.002-0.037-0.013-0.057-0.011 c-0.249,0.045-0.396,0.416-0.327,0.834c0.072,0.416,0.332,0.72,0.586,0.677c0.011-0.002,0.017-0.011,0.025-0.015 c0.542,1.957,1.944,3.42,3.364,3.449c1.297-0.06,2.887-1.5,3.414-3.449c0.244,0.016,0.485-0.271,0.558-0.672 c0.067-0.416-0.081-0.791-0.332-0.832C29.521,22.786,29.507,22.795,29.49,22.797z M16.166,2.319v1h18.5v12.625h1V2.319H16.166z M18.083,17.361h-3.292V4.236h19v13.125H22.208l-4.125,4.125V17.361L18.083,17.361z M24.752,10.649h3.946 c-0.159-2.127-1.837-3.829-3.946-4.027V10.649z M19.712,11.144c0,2.417,1.96,4.378,4.379,4.378c2.363,0,4.281-1.872,4.368-4.212 h-4.452V6.771C21.628,6.815,19.712,8.755,19.712,11.144z"/> </g> </g> </g>
</svg>