<svg id="Group_8" data-name="Group 8" xmlns="http://www.w3.org/2000/svg" width="130.516" height="167.85" viewBox="0 0 130.516 167.85">
  <path id="Path_25" data-name="Path 25" d="M-291.538,58.986h-87.209a11.368,11.368,0,0,0-1.219-.345c-11.5-1.947-20.365-12.086-20.388-23.706q-.1-51.859.009-103.719a23.412,23.412,0,0,1,7.386-16.965,10.8,10.8,0,0,1,1.11-.824c0,2.006-.035,3.751.006,5.495.3,12.584,10.949,23.53,23.522,23.631q33.184.269,66.371,0c11.524-.085,21.747-9.477,23.2-20.885.341-2.668.323-5.381.479-8.235.471.411.852.7,1.182,1.039a23.649,23.649,0,0,1,7.155,16.905q.085,51.7.007,103.392a24.422,24.422,0,0,1-17.851,23.255C-289.021,58.377-290.284,58.667-291.538,58.986Zm-76.387-40.053c.87,1.206,1.587,2.223,2.328,3.224,1.892,2.553,4.8,3.12,7.137,1.4,2.272-1.673,2.634-4.564.86-7.117-1.151-1.656-2.306-3.313-3.533-4.914a1.472,1.472,0,0,1-.032-2.136c1.278-1.628,2.456-3.338,3.627-5.047,1.742-2.543,1.307-5.468-1.011-7.089s-5.206-1.032-7.022,1.427c-.762,1.031-1.514,2.069-2.37,3.241-.9-1.248-1.647-2.312-2.427-3.349a4.927,4.927,0,0,0-7.055-1.24,4.892,4.892,0,0,0-.914,6.986c1.206,1.751,2.529,3.424,3.669,5.216a2.031,2.031,0,0,1,.006,1.8c-1.17,1.837-2.529,3.553-3.754,5.357a4.855,4.855,0,0,0,.987,6.85,4.865,4.865,0,0,0,6.946-1.094C-369.649,21.372-368.881,20.249-367.925,18.932Zm-.264-47.587c-.724-1.414-1.285-2.588-1.914-3.723a4.89,4.89,0,0,0-6.562-2.2,4.861,4.861,0,0,0-2.2,6.55c1.689,3.538,3.431,7.054,5.276,10.513a4.783,4.783,0,0,0,8.068.966c4.442-5.17,8.772-10.436,13.126-15.681a4.673,4.673,0,0,0,1.042-4.284A4.7,4.7,0,0,0-355.1-40.2a4.8,4.8,0,0,0-4.945,1.814C-362.712-35.221-365.36-32.04-368.189-28.654Zm57.956-3.827c-4.582,0-9.164-.007-13.747,0-3.332.007-5.563,1.966-5.583,4.875s2.234,4.95,5.516,4.953q13.829.012,27.657,0c3.283,0,5.529-2.049,5.5-4.967-.027-2.864-2.226-4.849-5.434-4.859C-300.96-32.493-305.6-32.481-310.234-32.481Zm-.045,48.223q6.955,0,13.91,0c3.24-.007,5.424-1.927,5.481-4.8.058-2.9-2.208-5.022-5.457-5.029q-13.91-.028-27.82,0c-3.157.007-5.392,2.087-5.4,4.92-.007,2.88,2.184,4.893,5.375,4.9C-319.552,15.751-314.916,15.741-310.279,15.741Z" transform="translate(400.402 108.864)" fill="#a9b5e6"/>
  <path id="Path_26" data-name="Path 26" d="M-311.575-95.838q-15.568,0-31.137,0c-9.556,0-15.77-6.221-15.734-15.817.018-4.581-.221-9.212.356-13.731a14.126,14.126,0,0,1,13.9-12.04q32.612-.118,65.224,0c6.9.025,13.154,5.207,13.873,12.04a82.151,82.151,0,0,1,.049,17.14c-.775,7.317-7.044,12.354-14.412,12.392C-290.161-95.8-300.868-95.839-311.575-95.838Z" transform="translate(376.835 137.484)" fill="#a9b5e6"/>
</svg>
