<svg xmlns="http://www.w3.org/2000/svg" id="Layer_1" data-name="Layer 1" viewBox="0 0 150 150"><title>Clients</title><path d="M72.6,146.2c-1.6-.4-3.3-.6-5-1.1-13.2-3.7-21.7-16-20.8-30.2s11.6-24,24.6-25.8c15.3-2.1,29.9,8.6,32.2,23.6a28.6,28.6,0,0,1-23.1,33l-2.4.5Zm.1-29a26.1,26.1,0,0,0-2.2-2.4,4.2,4.2,0,0,0-5.7.1,4,4,0,0,0,0,5.6c1.7,1.9,3.5,3.6,5.3,5.3a4,4,0,0,0,5.7,0c3.5-3.6,6.8-7.3,10.2-11a3.5,3.5,0,0,0,.9-3.6,3.7,3.7,0,0,0-2.9-3,3.8,3.8,0,0,0-4,1.2Z" fill="#a9b5e6"/><path d="M38.5,116.4c-1.3-1.3-2.4-2.2-3.4-3.3a24.8,24.8,0,0,1-6.3-18.9c1.5-20,11.6-33.9,30.1-41.6l.4-.2c0-.1.1-.1.2-.2a25.4,25.4,0,1,1,31.7,0c1.5.7,3,1.2,4.4,2,16.8,8.7,25.8,22.6,26.4,41.6.3,7.8-2.8,14.3-8.6,19.5l-.9.7h-.3A36.7,36.7,0,0,0,98.1,88.6a36.6,36.6,0,0,0-48.3,2.5C42.8,97.9,39.1,106.2,38.5,116.4Z" fill="#a9b5e6"/></svg>