<svg xmlns="http://www.w3.org/2000/svg" id="Layer_1" data-name="Layer 1" viewBox="0 0 150 150"><title>Clients</title><path d="M65.6,5.2H84.4a6.9,6.9,0,0,1,3.4,3.9c.9,2,1.8,4,2.8,5.9a3,3,0,0,0,1.5,1.2,66.9,66.9,0,0,1,14.3,6.1,1.6,1.6,0,0,0,2,.1l5.3-2.7c2.3-1.1,3.8-.8,5.6.9l11.1,11.1c1.7,1.7,1.9,3.3.9,5.5l-2.8,5.6a1.8,1.8,0,0,0,.1,1.6,64.3,64.3,0,0,1,6.6,16,2,2,0,0,0,1.2,1.2l5.8,1.9c2.6.9,3.5,2.1,3.6,4.9V83.6c-.1,2.7-1,4-3.6,4.8l-5.8,1.9a2.5,2.5,0,0,0-1.2,1.3,63.1,63.1,0,0,1-5.9,14.5,2.5,2.5,0,0,0-.1,1.9c.7,2.4,1.5,4.8,2.3,7.1a4.7,4.7,0,0,1-1.2,5.3l-10.9,10.8a4.5,4.5,0,0,1-5.2,1.3l-7.1-2.3a2.5,2.5,0,0,0-1.9.1,70.9,70.9,0,0,1-14.6,5.9,2.4,2.4,0,0,0-1.3,1.3c-.7,1.9-1.3,3.9-1.9,5.9a4.4,4.4,0,0,1-4.7,3.3H67.3c-2.6,0-3.9-1-4.7-3.4s-1.2-4-2-5.9a1.8,1.8,0,0,0-1.2-1.2,66.8,66.8,0,0,1-14.7-6,2.9,2.9,0,0,0-1.6-.1l-7.2,2.4a4.6,4.6,0,0,1-5.3-1.3L19.7,120.4a4.8,4.8,0,0,1-1.2-5.4c.9-2.3,1.6-4.6,2.3-6.9a2.5,2.5,0,0,0-.1-1.9,66.7,66.7,0,0,1-5.5-13.3,1.9,1.9,0,0,0-1.1-1.2,46,46,0,0,0-5.9-2.9,7.9,7.9,0,0,1-4-3.4V66.6a7.4,7.4,0,0,1,4-3.4L14,60.3a2.7,2.7,0,0,0,1.2-1.4,61.4,61.4,0,0,1,6.2-14.4,1.7,1.7,0,0,0,0-1.9c-.9-1.7-1.8-3.5-2.6-5.3s-.9-3.9.9-5.6l11-11.1a4.2,4.2,0,0,1,5.5-.9c1.9.9,3.7,1.9,5.6,2.7a1.8,1.8,0,0,0,1.6,0A69.7,69.7,0,0,1,58,16.2a2.8,2.8,0,0,0,1.3-1.1c1-2,2-3.9,2.9-6A6.9,6.9,0,0,1,65.6,5.2Zm55,70.8a45.6,45.6,0,0,0-91.2-.1c-.2,24.9,20.4,45.6,45.5,45.7S120.5,101.1,120.6,76Z" fill="#a9b5e6"/><path d="M95.7,67.7A20.7,20.7,0,1,1,75,47,20.8,20.8,0,0,1,95.7,67.7Z" fill="#a9b5e6"/><path d="M54.9,88.6a29.2,29.2,0,0,0,40.3,0,33,33,0,0,1,6.4,9.2c1.1,2.2.8,3.6-1.1,5.2-9.3,8.3-19.9,11.8-32.2,9.6A35.8,35.8,0,0,1,48,101.4a1.4,1.4,0,0,1-.4-1.2A27.8,27.8,0,0,1,54.9,88.6Z" fill="#a9b5e6"/></svg>