<svg id="Layer_1" data-name="Layer 1" xmlns="http://www.w3.org/2000/svg" viewBox="0 0 150 120"><defs><style>.cls-1{fill:#2d9800;}</style></defs><title>Untitled-1</title><path class="cls-1" d="M19.9,81.5l.4-.3a5.9,5.9,0,0,1,2.8-3.4c3-2,6.1-3.8,9.1-5.9s6.4-2.2,9.2,1.2l7.4-4.7,8.1-5a9,9,0,0,1,7.5-.8l28.8,8.3a32.8,32.8,0,0,1,5.9,2.3c4.2,2.4,6.1,8.9,3.8,13.1a10.9,10.9,0,0,1-12.8,5.1c-5.1-1.8-10-4-15-6.1a2.9,2.9,0,0,1-2-3,2.9,2.9,0,0,1,2.3-2.6,4.6,4.6,0,0,1,2.3.5l12,5c1.6.7,3.3,1.3,5.2.6s3-1.9,3-3.7a4.6,4.6,0,0,0-3.1-4.6c-10.7-3.1-21.5-6.3-32.3-9.3a3.6,3.6,0,0,0-2.7.3C54.9,71.4,50,74.6,45,77.6l-.3.4,4.7,7c1.8,2.5,3.5,5,5.2,7.6.5.7,1,1,1.8.3s4.6-1.8,7.4-1c9.8,2.9,19.6,5.5,29.4,8.2a2.6,2.6,0,0,0,1.7-.3l32.8-22,1.5-1.3a2.4,2.4,0,0,0,.2-3.1,4,4,0,0,0-5.3-1.3c-3,1.8-5.8,3.7-8.6,5.7s-3,2.1-4.5,3.2a2.8,2.8,0,0,1-4.2-.5,2.8,2.8,0,0,1,.7-4.1c4.5-3.2,8.9-6.5,13.6-9.3a9.8,9.8,0,0,1,13.6,3.8,13.1,13.1,0,0,1,.9,2.8l.4.9v.6a4.7,4.7,0,0,0-.5,1,7.7,7.7,0,0,1-3.5,5.6c-4.4,3-8.8,6.2-13.3,9.2-7.1,4.8-14.3,9.5-21.5,14.2a5.1,5.1,0,0,1-4.3.9l-7-2-24-6.7a2.8,2.8,0,0,0-2.5.5.9.9,0,0,0-.5,1.3,5.4,5.4,0,0,1-2,6.7L46.1,113c-3.3,2.1-6.3,1.3-8.4-1.8l-14-21.1-3.8-5.8Zm16.4-5.3-9.9,6.3c-.7.5-.3.9,0,1.3,5.3,7.9,10.5,15.8,15.7,23.7.5.7.8.7,1.5.3l8.7-5.8c1.3-.8,1.2-.8.4-2l-11-16C40,81.4,38.2,78.9,36.3,76.2Z"/><path class="cls-1" d="M95.8,7.5c0,1.1.1,2.3,0,3.4s.4,1.4,1.3,1.6a15.2,15.2,0,0,1,8.1,4.7c1.2,1.4,2.2,3,3.4,4.6-1.9.8-3.4,1.5-5.1,2.1-.2.1-.8-.4-1-.7-1.4-2.6-3.7-4.1-6.6-5.1,0,.3-.1.5-.1.7V30.9c0,.6.2.9.9,1a16.2,16.2,0,0,1,8.5,3.9,11.5,11.5,0,0,1,2.1,13.9,15.4,15.4,0,0,1-10.9,8.2c-.2,0-.5.6-.6.9v4.1a1.1,1.1,0,0,1-.7.8H89.9V58C83.2,56.5,79,52.2,76.5,46.1c-.3-.7-.2-1,.6-1.2l3.6-1.1c.8-.3,1.1-.1,1.4.6a12.9,12.9,0,0,0,5.3,6.4A13.4,13.4,0,0,0,89.8,52a3.1,3.1,0,0,0,.1-.9c0-4.3,0-8.7.1-13,0-1-.4-1.3-1.3-1.5a14.5,14.5,0,0,1-7-3.5,11.8,11.8,0,0,1,4.3-20l3.3-1a1,1,0,0,0,.6-.8c.1-1.3.1-2.6.1-3.8Zm.1,44.4a8.3,8.3,0,0,0,5.8-4.1,6,6,0,0,0,1.2-4.3,7.1,7.1,0,0,0-7-5.6Zm-6-33.7a6.3,6.3,0,0,0-6.2,6c-.1,3.2,2.8,6.2,6.2,6.5Z"/></svg>