<svg id="Layer_1" data-name="Layer 1" xmlns="http://www.w3.org/2000/svg" viewBox="0 0 150 120"><defs><style>.cls-1{fill:#ff3169;}</style></defs><title>Untitled-1</title><path class="cls-1" d="M147,72.8c-1.4.6-2.7,1.4-4.1,1.9a2.6,2.6,0,0,1-2.3,0c-1.7-1.5-2.6-.4-3.3,1s-1.6,3.9-2.4,5.9-2.2,4.6-4.8,3.8a7,7,0,0,1-3.8-4.3c-1.2-5.1-1.7-10.3-2.5-15.8-4.5,3.6-9.4,4.6-13.6.6s-6-7.9-9.3-12.2c-1,1.3-2.3,2.9-3.5,4.7s-2.5,5-4.1,7.3c-4,5.8-10,6-14.5.6a27.3,27.3,0,0,1-3.2-5.5c-2-3.8-3.9-4.1-6.9-.9a12.3,12.3,0,0,0-2.3,3.6c-3.6,9.7-15.2,9-20.6,2.9-1.5-1.6-3-3.3-4.4-5.1a14,14,0,0,0-10.9-5.7C16.7,55.1,8,48.2,4.3,34.8l-.5-.4V31.1h6.8C12.2,41.9,17.8,48,28.7,48.7c8.7.6,15,4.4,20.1,11.1a13,13,0,0,0,3.5,3.5c3.2,2.1,6.1,1,8.2-2.2s3.6-5.8,6.1-7.8c4.5-3.8,9.6-2.8,13.1,1.9,1.4,2,2.3,4.4,3.7,6.4s3.3,2.5,5.1-.2,1.5-3,2.4-4.5a42.7,42.7,0,0,1,4.9-7.1c4-4.5,8.6-4,11.9,1.1,1.4,2.2,2.3,4.8,3.7,7.1,3.3,5.1,6.3,5.1,9.8.2a13.8,13.8,0,0,1,1.7-2.5c1.1-1,2.8-2.8,3.7-2.5a6,6,0,0,1,3.2,3.7c.7,3.1.7,6.4,1,9.6s.4,3.3.5,4.9h.8c5.5-5.9,9.1-5.7,14.9.7Z"/></svg>