<svg id="Layer_1" data-name="Layer 1" xmlns="http://www.w3.org/2000/svg" viewBox="0 0 150 120"><defs><style>.cls-1{fill:#2d9800;}</style></defs><title>Untitled-1</title><path class="cls-1" d="M140,16.9l4,1.6c-.7,2.3-1.4,4.7-2.2,7Q133.1,53,124.2,80.4a19.1,19.1,0,0,1-6.5,9.7c-4.1,3.3-8.2,3-12-.5a24.9,24.9,0,0,1-5.4-8.2,21.5,21.5,0,0,0-1.4-2.6c-.6-.9-1.4-1.1-2.1-.2a25.1,25.1,0,0,0-3.2,4.1c-1.2,2-2,4.4-3.4,6.3a26.1,26.1,0,0,1-4.7,4.7c-1.4,1.1-3,.8-4.5,0a14.9,14.9,0,0,1-6.6-7,15.9,15.9,0,0,0-2.2-3.5c-1-1.3-2.4-1.8-3.7-.7S65,85.2,64.2,87c-1.8,4.1-4.1,7.2-8.9,7.8v.3H52.9L50,94c-3.2-1.2-5.4-3.6-7.3-6.3-3.5-4.8-8.1-7.6-14.3-7.7C17.5,79.7,9.2,72.9,6.3,62.4a23.1,23.1,0,0,0-1-2.8V57.9a18.2,18.2,0,0,0,3.3-.1c1.1-.1,1.5.3,1.7,1.4a19.7,19.7,0,0,0,5.6,11.1,17.4,17.4,0,0,0,10.2,4.8l8.6,1.3c4.1.7,6.9,3.3,9.5,6.2s2.9,3.6,4.5,5.3,4.2,2.5,6.8,2.2A4.4,4.4,0,0,0,59,87.3a20,20,0,0,1,5.2-7.4c3-2.6,6.7-3.3,9.5-1.4a13.6,13.6,0,0,1,4.7,6.1,9.7,9.7,0,0,0,4,4.7,1.3,1.3,0,0,0,2-.2,41.5,41.5,0,0,0,3-4.3c1.8-3.3,3.3-6.7,6.1-9.4s4.6-2.7,6.4-1.4a11.9,11.9,0,0,1,3.6,3.8c1.5,2.2,2.5,4.9,4.1,7.1,2.9,4,6.6,3.9,9.3-.2a36.8,36.8,0,0,0,4-8.5c6-18.6,11.9-37.2,17.9-55.9.3-1.1.5-2.3.8-3.4Z"/></svg>