<svg id="Layer_1" data-name="Layer 1" xmlns="http://www.w3.org/2000/svg" viewBox="0 0 150 120"><defs><style>.cls-1{fill:#00aaa6;}</style></defs><title>Untitled-1</title><path class="cls-1" d="M10.1,54.2l3.8-.2c.3,0,.8.5.9.8a17.9,17.9,0,0,0,4.5,9.6,16.2,16.2,0,0,0,10.5,5.1l6.6.9c3.6.6,6.4,2.8,8.7,5.5L48.7,80A6.8,6.8,0,0,0,55,82.9a3.8,3.8,0,0,0,3.2-2.2c.5-1,.9-2,1.4-2.9a12,12,0,0,1,7-5.9c3.1-1.1,5.9.2,8.1,3.3.7,1,1.1,2.1,1.8,3.1a15.7,15.7,0,0,0,2,3c1.4,1.6,2.5,1.5,3.7-.3s1.8-3.3,2.9-4.9a48.9,48.9,0,0,1,4.5-6.4c2.7-2.9,6.5-2.3,8.7,1,.6,1,1.1,2.2,1.6,3.2a16.2,16.2,0,0,0,4.3,6,3.3,3.3,0,0,0,4.5.1,12.7,12.7,0,0,0,4.2-6c2.4-6.9,4.6-13.9,6.9-20.9q1.4-3.7,2.4-7.5a9.7,9.7,0,0,1,3.1-4.6h2.4a25.2,25.2,0,0,1,2.7,3,42.3,42.3,0,0,1,2.5,5.8,208.7,208.7,0,0,1,6.5,25.9c0,.3.3.6.5.9v1.3l-4.6.7c-1.2-5.4-2.3-10.8-3.6-16s-2.5-10.5-5-15.3a16.2,16.2,0,0,0-1.1,2.8l-7.2,22.4c-1.2,3.5-2.6,6.9-5.2,9.6s-5,4-8.5,3.1a9.6,9.6,0,0,1-5.5-3.9c-1.5-2.3-2.8-4.7-4.1-7.1s-1.7-2.3-3.1-.4a69.8,69.8,0,0,0-3.9,6.5,46.7,46.7,0,0,1-3,4.3c-2.3,2.7-5.2,3.3-8,1.4a22.6,22.6,0,0,1-4.2-4.5c-.7-1-1.1-2.3-1.7-3.3-1.6-2.6-2.9-2.7-5.3-.8A12.3,12.3,0,0,0,62.7,82a8.2,8.2,0,0,1-7.1,5.5L55,88h-.8a1.9,1.9,0,0,0-1-.5,11.1,11.1,0,0,1-7.4-3.8l-5.6-6.3a7.8,7.8,0,0,0-4.7-2.5c-2.3-.2-4.5-.6-6.8-.9A20.6,20.6,0,0,1,11,58.6a12.1,12.1,0,0,0-.9-2Z"/></svg>