<svg id="Layer_1" data-name="Layer 1" xmlns="http://www.w3.org/2000/svg" viewBox="0 0 150 120"><defs><style>.cls-1{fill:#fc3b70;}</style></defs><title>Untitled-1</title><path class="cls-1" d="M25.2,70.6c.3-1.5.6-2.9.8-4.4a52.3,52.3,0,0,1,8.4-22.4,40.4,40.4,0,0,1,8.7-9.3,5.3,5.3,0,0,0,1.3-1.3,9.2,9.2,0,0,1,4.4-4.1L56,26c1.6-.7,2.7-.2,3.2,1.1s-.2,2.1-1.7,2.7l-6.6,2.8a4.1,4.1,0,0,0-1.1.7c-2.2,1.4-2.5,2.7-.7,4.6s4.2,4,6.3,5.9a1.8,1.8,0,0,0,.7.5c4.7,2.9,6.2,7.3,6.2,12.6a73.6,73.6,0,0,0,.6,8.2c0,.2.1.3.1.5.6,3.3,1.8,4,4.8,2.4s5.7-3.4,8.4-5.3,6.6-3.2,10.5-1.8a67.5,67.5,0,0,0,9.1,2.4c3.9.9,5.1-.3,4.3-4.3-.5-2.5-1.1-5-1.7-7.5s0-2.5,1.3-2.9,2.2.2,2.6,1.8c.7,3.1,1.5,6.2,2,9.3.8,5.3-2.7,8.8-8,7.8s-7.8-1.8-11.7-2.9a6.7,6.7,0,0,0-5.5.9,78.3,78.3,0,0,1-10.4,6.4c-4.5,2.3-7.7.7-9.3-4.2l-.5-.8c-3.2,1.7-6.6,3.2-9.7,5C42.6,75.9,36.9,81,33,87.8c-.9,1.6-1.6,3.4-2.4,5.1s-.9,1.6-1.9,1.5a2.1,2.1,0,0,1-2.1-1.9c-.3-3-.7-5.9-1.1-8.8a1.9,1.9,0,0,0-.3-.8ZM44.5,38.8C31.9,49.1,27.9,68.1,30,84.5l.9-1.2c2.6-2.9,5-6.1,7.9-8.8A56.4,56.4,0,0,1,57.3,63.4a1.3,1.3,0,0,0,1.1-1.7,50.7,50.7,0,0,1-.4-6.8,7.4,7.4,0,0,0-2.9-6C51.4,45.8,47.5,42.9,44.5,38.8Z"/><path class="cls-1" d="M68,116c-.6-.9-1.3-1.6-1.9-2.5s-2.6-4-4.1-5.9-4.6-3.1-7.5-3.6a28.5,28.5,0,0,0-5.1-.3c-1.3-.1-2.4-.4-2.7-1.8s.7-1.9,1.7-2.4L53.7,96a10.4,10.4,0,0,0,4.6-7.8,56.7,56.7,0,0,0,.5-5.8c0-1.2.3-2.2,1.5-2.6s2,.4,2.6,1.5,2,3.4,3,5c2.5,3.8,6.4,5.1,10.7,5.4l3.9.2a1.9,1.9,0,0,1,2.1,1.7c.3,1.1-.3,1.7-1.2,2.2l-5.5,3.5c-3.3,2.1-4.6,5.3-5,9a18.4,18.4,0,0,0-.3,4.1,3.8,3.8,0,0,1-1.5,3.6Zm5.6-20.4a16.2,16.2,0,0,1-11.1-6.8,15.6,15.6,0,0,1-6.8,11c2.2.8,4.5,1.2,6.3,2.3s3.2,2.9,5,4.6A15.6,15.6,0,0,1,73.6,95.6Z"/><path class="cls-1" d="M74.5,5c5.6,2.8,8.6,8.2,12.4,12.7a5.2,5.2,0,0,0,3.6,1.9c4,.3,8,.6,11.9,1.1a12.8,12.8,0,0,1,3.9,1.3,5.4,5.4,0,0,1,2.8,6.6,85,85,0,0,1-3.8,8.1,26.1,26.1,0,0,1-1.7,2.8,1.8,1.8,0,0,1-2.7.4,1.9,1.9,0,0,1-.7-2.6c1.2-2,2.4-3.9,3.4-5.9a15.4,15.4,0,0,0,1.5-3.5c.4-1.5,0-2.4-1.5-2.7a35.3,35.3,0,0,0-5.5-1,48.7,48.7,0,0,0-6.6-.4c-3.7.1-6.3-1.5-8.5-4.5s-4.5-5.5-6.8-8.2A6.3,6.3,0,0,0,75,10c-1.6-1.2-2.7-1.1-3.6.7s-2.1,4.8-3.2,7.2c-.3.6-.4,1.3-.8,2a1.8,1.8,0,0,1-2.5.9,1.7,1.7,0,0,1-1.1-2.4c1.2-3.3,2.6-6.5,4.1-9.7S70.4,6,72,5Z"/><path class="cls-1" d="M114.8,90a2.8,2.8,0,0,1-2.9,1.7,9.7,9.7,0,0,0-2.4.1c-3.4.2-5.6,2.1-7.2,5a5.6,5.6,0,0,0-.5.8c-.6,1.2-1.1,2.5-2.8,2s-1.7-1.7-1.6-3c.2-4.7-1.9-7.9-6.1-9.8l-.9-.5a2,2,0,0,1-1-2.3,2,2,0,0,1,2-1.5h2.7c3.9-.1,6.3-2.3,7.9-5.5l.6-1.2a2.1,2.1,0,0,1,2.3-1.3c1.2.3,1.6,1.2,1.7,2.4a24,24,0,0,0,.3,3.7c.3,3.2,2.5,5,5.1,6.5l2.8,1.9ZM103,83.1l-5,3,3.1,5,5-3.1Z"/></svg>