<svg id="Layer_1" data-name="Layer 1" xmlns="http://www.w3.org/2000/svg" viewBox="0 0 150 120"><defs><style>.cls-1{fill:#00a0cf;}</style></defs><title>Untitled-1</title><path class="cls-1" d="M14,65l5.4-.6c.7,2,1,3.9,1.8,5.6,3,6.7,8.3,9.6,15.4,9.9s11.7,3.2,15.6,8.5a12.2,12.2,0,0,0,2.3,2.7,12,12,0,0,0,3.9,2c1.9.5,3.2-.4,4.2-2.1s2.1-4.1,3.7-5.7c3.5-3.6,7.2-4.7,10.8-2.4a12.8,12.8,0,0,1,4.6,5.7A19.4,19.4,0,0,0,84,91.9a1.4,1.4,0,0,0,2.3,0c.9-1.2,1.6-2.6,2.4-3.8a50.5,50.5,0,0,1,4.7-7.3c3.4-4.1,8.3-3.5,11,1.3.9,1.7,1.5,3.8,2.7,5.4,3.7,5.4,6.1,4.3,8.6.2a49.7,49.7,0,0,0,4.1-10.1c2.8-8,5.3-16.1,7.9-24.2l7.8-24.9a3.1,3.1,0,0,0,.1-1h1.1l3.2,1.3c.9.3,1.4.5,1,1.7-1.6,4.6-2.9,9.3-4.4,13.9-4.4,13.6-8.7,27.2-13.2,40.8a18.2,18.2,0,0,1-6,9.3c-2.4,1.9-4.9,2.9-8,1.9a12.9,12.9,0,0,1-6.8-5.3,63.6,63.6,0,0,1-3-5.8c-.8-1.7-1.2-1.8-2.3-.3s-1.9,3-2.8,4.4a57.3,57.3,0,0,1-3.9,6.4,6.7,6.7,0,0,1-9,1.5,14,14,0,0,1-5-6,13.8,13.8,0,0,0-1.7-2.9c-.8-1.2-1.7-1.1-2.8-.4s-3.1,3.1-4.1,5.1-3.2,5.1-6.6,5.6l-.4.4H56.6c-.2-.2-.3-.5-.5-.5A11.8,11.8,0,0,1,50,94.8c-1.8-2-3.4-4-5.2-5.9a7.4,7.4,0,0,0-4.6-2.6l-7.5-1c-9.5-1.3-15.7-8-18-16.5a7.5,7.5,0,0,0-.7-1.2Z"/></svg>