<svg id="Layer_1" data-name="Layer 1" xmlns="http://www.w3.org/2000/svg" viewBox="0 0 150 120"><defs><style>.cls-1{fill:#00a0cf;}</style></defs><title>Untitled-1</title><path class="cls-1" d="M73.7,9v9.2H36.4v84.2h84V74.3l9.6.5V112H27V9Z"/><path class="cls-1" d="M99.7,9l1.4.5a18.5,18.5,0,0,1,10.5,29.7l-.6.9c11.8,6.2,18.1,16,18.8,29.5h-9.3c-.4-7.9-3.4-14.3-9.8-18.9a22.9,22.9,0,0,0-15.2-4.4,23.7,23.7,0,0,0-22,23.3H64.3c.7-13.5,6.9-23.2,18.5-29.3a53.9,53.9,0,0,1-3.4-6.8,18.6,18.6,0,0,1,13.5-24L94.5,9Zm-12,18.5a9.4,9.4,0,0,0,9.4,9.6,9.6,9.6,0,0,0,9.4-9.3A9.4,9.4,0,0,0,97,18.3,9.2,9.2,0,0,0,87.7,27.5Z"/><path class="cls-1" d="M41.1,88.3V79.2h74.5v9.1Z"/><path class="cls-1" d="M68.9,27.9v9H41.1v-9Z"/><path class="cls-1" d="M59.5,55.6H41.1V46.5H59.5Z"/></svg>