<svg id="Layer_1" data-name="Layer 1" xmlns="http://www.w3.org/2000/svg" viewBox="0 0 150 120"><defs><style>.cls-1{fill:#00aaa6;}</style></defs><title>Untitled-1</title><path class="cls-1" d="M120,28.8V67.1c-.2.4-.4.6-.4,1s-.3,2.3-.5,3.5c-1.9,10.2-7.3,18.3-14.8,25.1S85.5,110,75.2,115.3H75l-2.6-1.1-8.2-4.5C56.1,105,48.2,100,41.8,93S32,79.5,30.6,70.9c-.1-.8-.4-1.6-.6-2.5V28.6a12.7,12.7,0,0,1,2.5-2.2L68.9,9.3l5-2.6h1.8l.4.3,37.1,17.5C115.6,25.6,118.5,26.2,120,28.8ZM113.4,49h.1c0-4.6-.2-9.1.1-13.6.1-2.8-.6-4.3-3.3-5.5-11.6-5.2-23-10.7-34.5-16.1a2.5,2.5,0,0,0-1.9.1L37.4,31a1.8,1.8,0,0,0-1.2,1.9V62.4a61.3,61.3,0,0,0,.9,8.5c1.5,8.4,6.1,15.1,12.3,20.8s16,11.6,24.8,16.3a2.5,2.5,0,0,0,1.7-.1c4.1-2.3,8.2-4.6,12.2-7,7.1-4.3,13.6-9.3,18.5-16.1s6.5-11.5,6.7-18.3S113.4,54.8,113.4,49Z"/><path class="cls-1" d="M101.2,84.2H84.6a4.8,4.8,0,0,1-1.8-.8L81.4,82c-2.2-1.7-3.5-3.7-2.9-6.6.2-.9-.3-1.2-1.3-1.1H72.9c-.8,0-1.1-.4-1.1-1.2s.1-3.5.1-5.5c-1.2,0-2.3-.1-3.3,0a2.8,2.8,0,0,1-2.6-1,6.3,6.3,0,0,0-4.7-2.5A17.6,17.6,0,0,1,45.6,47.8a18,18,0,1,1,35.9-2.1,2.6,2.6,0,0,0,.9,1.9l18,18.1a3,3,0,0,1,.8,2c.1,5,0,10,0,15Zm-23-16.3h5.4c.9,0,1.2.3,1.2,1.2s0,4.3,0,6.4a2.3,2.3,0,0,0,2.4,2.4h6.7c1,0,1.2-.4,1.2-1.3s0-4.2-.1-6.3a3.6,3.6,0,0,0-.8-2L76,50.2a3,3,0,0,1-1-2.7A11.5,11.5,0,0,0,63.2,34.8C56.3,35,51.7,40.1,51.8,47s5.7,11.5,11.6,11a5.3,5.3,0,0,1,5.1,2.1,1,1,0,0,0,.4.5,4.9,4.9,0,0,0,1.9.7h6.3c.8-.1,1.1.2,1.1,1.1Z"/><path class="cls-1" d="M63.7,41.9a4.6,4.6,0,0,1,4.8,4.6,4.8,4.8,0,1,1-4.8-4.6Z"/></svg>