<svg id="Layer_1" data-name="Layer 1" xmlns="http://www.w3.org/2000/svg" viewBox="0 0 150 120"><defs><style>.cls-1{fill:#9f49a3;}</style></defs><title>Untitled-1</title><path class="cls-1" d="M144,78.7,140.3,81l-2-1.8a1.5,1.5,0,0,0-2.3.2,26.1,26.1,0,0,0-1.7,2.8c-.6,1.4-1,2.8-1.6,4.1a14.2,14.2,0,0,1-.8,1.8c-.7,1-1.5,2-3,1.9a3.2,3.2,0,0,1-2.7-2.5,24.7,24.7,0,0,1-1.1-4.7c-.5-4.3-.9-8.7-1.4-13.3a8.1,8.1,0,0,1-1,.9c-2.3,2.3-4.9,3.9-8.3,3.2a11.1,11.1,0,0,1-6.3-4.2,27.5,27.5,0,0,1-4.3-7.2c-1.7-3.8-2.4-3.4-4.5-.8A48.6,48.6,0,0,0,96,66.8a52.4,52.4,0,0,1-3,5.1c-3.5,4.6-8.2,4.8-11.9.3a25.2,25.2,0,0,1-2.8-4.4c-.8-1.1-1.4-2.3-2.2-3.3s-2.2-1.3-3.7-.5-4,3.6-5.1,6.2-3.6,5.4-7.1,5.8a11.7,11.7,0,0,1-9.8-3,38,38,0,0,1-4.6-5.2c-3.4-4.5-8-6.1-13.5-6.4-9.8-.6-16.8-5.5-20.5-14.7-.6-1.3-.9-2.7-1.4-4a1.8,1.8,0,0,0-.5-.7V39.3h4.7c.3,6.8,5.3,14.8,13.2,16.7a82.8,82.8,0,0,0,8.7,1.2,18.3,18.3,0,0,1,11.8,6.6c1.4,1.8,2.9,3.5,4.4,5.1a7.2,7.2,0,0,0,5.5,2.6A4.7,4.7,0,0,0,63,68.7c1.1-2.3,2-4.7,4-6.3a23.1,23.1,0,0,1,5.2-3.1c2.3-1,4.5-.2,6.3,1.4a14.6,14.6,0,0,1,4.1,5.7,15.3,15.3,0,0,0,2.9,3.8,1.8,1.8,0,0,0,3-.1A21.3,21.3,0,0,0,91,66.7c1.7-2.8,3.2-5.7,5.1-8.5A8.8,8.8,0,0,1,99,55.7a4.9,4.9,0,0,1,6.4.8c1.6,1.5,2.4,3.5,3.3,5.5a17,17,0,0,0,4.3,6,4.1,4.1,0,0,0,5.5.1,16.7,16.7,0,0,0,4.2-5.3,4.6,4.6,0,0,1,1.4-1.7,2,2,0,0,1,3.1.9,7.2,7.2,0,0,1,.7,2.5c.4,4.2.8,8.5,1.1,12.7.2,1.3.3,2.6.5,4.2a26.6,26.6,0,0,1,2.4-3.9,10.2,10.2,0,0,1,3.3-2.9c2.7-1.2,6,.1,8,2.9l.8.9Z"/></svg>