<svg xmlns="http://www.w3.org/2000/svg" id="Layer_1" data-name="Layer 1" viewBox="0 0 150 150"><title>Clients</title><path d="M3.7,73.9c2.7-4.1,5.1-8.4,8.1-12.4A88.3,88.3,0,0,1,37,37.6a68.6,68.6,0,0,1,31.5-9.9c11.3-.8,22.4.3,33.1,4.3,12.3,4.6,22.2,12.5,30.8,22.3a131.5,131.5,0,0,1,12.7,17.2,5.7,5.7,0,0,1,.3,6.6c-7.2,11.6-15.6,22.2-26.7,30.5a69.3,69.3,0,0,1-38.9,13.8,78.8,78.8,0,0,1-29.4-3.7c-11.4-3.8-20.9-10.4-29.2-19A130.5,130.5,0,0,1,4.7,78.4a16,16,0,0,1-1-2.3Zm72,30.8c16.7-.7,29.7-14.4,29-30.5S90.3,44.7,74.1,45.3a29.7,29.7,0,0,0,1.6,59.4Z" fill="#a9b5e6"/><path d="M3.7,8.5C4.9,4.9,7.4,3.6,11,3.7H27.5a6,6,0,0,1,5.8,5.2,5.9,5.9,0,0,1-4,6.4,11.8,11.8,0,0,1-2.7.3h-11V26.8c0,3.5-1.9,5.9-4.9,6.5A6,6,0,0,1,3.9,29l-.2-.2Z" fill="#a9b5e6"/><path d="M3.7,121.2a6.8,6.8,0,0,1,4.2-4.4,6.1,6.1,0,0,1,7.7,6v11.6H27.8A6,6,0,0,1,29.5,146l-.8.3H8.4a6.7,6.7,0,0,1-4.7-4.7Z" fill="#a9b5e6"/><path d="M121.2,146.3a6.5,6.5,0,0,1-4.4-4.3c-1.1-3.9,1.7-7.5,6-7.6h11.6v-1.5c0-3.4-.1-6.8,0-10.2a6.1,6.1,0,0,1,4.3-5.9,5.6,5.6,0,0,1,6.5,2.5,7.5,7.5,0,0,1,1,3.6c.1,5.4,0,10.7.1,16,.1,3.7-1.2,6.2-4.8,7.4Z" fill="#a9b5e6"/><path d="M134.4,15.6H121.6a5.9,5.9,0,0,1-5-6.1,5.7,5.7,0,0,1,5.7-5.6h18.3a5.8,5.8,0,0,1,5.7,5.7V27.7a5.9,5.9,0,0,1-11.8.8,12.1,12.1,0,0,1-.1-1.9Z" fill="#a9b5e6"/><path d="M57.2,74.9A17.8,17.8,0,1,1,74.9,92.8,17.8,17.8,0,0,1,57.2,74.9Z" fill="#a9b5e6"/></svg>