<svg xmlns="http://www.w3.org/2000/svg" id="Layer_1" data-name="Layer 1" viewBox="0 0 150 150"><title>Untitled-1</title><path d="M43,78.2c5,0,9.8-.2,14.6.1,1.5.1,3.1,1.2,4.4,2.2a28.2,28.2,0,0,1,3.3,3.6A12,12,0,0,0,74.2,88H88.7A8.6,8.6,0,0,1,97,93.4a8.9,8.9,0,0,1-1.3,9.6,9.3,9.3,0,0,1-7.4,3.2c-6.9-.1-13.9,0-20.8,0H65.9a2.1,2.1,0,0,0-1.6,2.1,2.1,2.1,0,0,0,1.8,2.1H88.5a15.6,15.6,0,0,0,4.8-.8l43.6-14.2c5-1.6,9.7,1.7,9.4,6.7a6.8,6.8,0,0,1-3.8,5.8l-19.6,11.3L91.6,137.4c-9.7,5.6-19.4,5.6-29.1.1L44,127a1.9,1.9,0,0,1-1.1-1.9c.1-3.4.1-6.9.1-10.4.1-11.5,0-23.1,0-34.7Z" fill="#a9b5e6"/><path d="M5.5,100.6V77.9c0-4.2,2.4-6.6,6.6-6.6h20c4.1,0,6.6,2.5,6.6,6.6v45.7c0,4.1-2.5,6.6-6.6,6.6H11.9c-4,0-6.4-2.5-6.4-6.5Zm10,14.8a5.5,5.5,0,1,0,11,0,5.4,5.4,0,0,0-5.4-5.5A5.3,5.3,0,0,0,15.5,115.4Z" fill="#a9b5e6"/><path d="M90.2,72.6H72.1c-5.5-.1-8.5-4.7-6.4-9.8a26.5,26.5,0,0,1,49.2.2c2,4.9-1,9.5-6.2,9.5Z" fill="#a9b5e6"/><path d="M106.9,46.6A22.7,22.7,0,0,1,145,53.1c1.7,4.3-.9,8.3-5.5,8.4H120.2c-.5,0-1.3-.3-1.4-.6a31.7,31.7,0,0,0-11.7-13.9C107,46.9,107,46.7,106.9,46.6Z" fill="#a9b5e6"/><path d="M74,46.5l-1,.7A30.8,30.8,0,0,0,62,60.4a1.5,1.5,0,0,1-1.7,1.1H41.5c-4.8,0-7.4-4-5.5-8.5a22.8,22.8,0,0,1,37.2-7.3A5.9,5.9,0,0,0,74,46.5Z" fill="#a9b5e6"/><path d="M77.7,27.4a12.6,12.6,0,0,1,25.2.1,12.6,12.6,0,1,1-25.2-.1Z" fill="#a9b5e6"/><path d="M57,34A10.8,10.8,0,1,1,67.8,23.3,10.8,10.8,0,0,1,57,34Z" fill="#a9b5e6"/><path d="M123.9,34a10.8,10.8,0,1,1,10.8-10.7A10.8,10.8,0,0,1,123.9,34Z" fill="#a9b5e6"/></svg>