<svg xmlns="http://www.w3.org/2000/svg" id="Layer_1" data-name="Layer 1" viewBox="0 0 150 150"><title>Untitled-1</title><path d="M82.5,2.8c1.3,4.3,2.7,8.5,3.9,12.7a4,4,0,0,0,3.5,3.4,46.8,46.8,0,0,1,13.5,5.5,2.3,2.3,0,0,0,2.6.1l12.2-5.9a1.3,1.3,0,0,1,1.9.4l8.2,8.1a1.4,1.4,0,0,1,.3,1.8l-6,12.4a2.1,2.1,0,0,0,.1,2.3,57.2,57.2,0,0,1,6.7,15.9,1.8,1.8,0,0,0,1.5,1.5L145,65.5V79.4l-9.6,3.1-4.6,1.4c-.8.2-1.1.6-1.2,1.5s-.7,2.8-1.1,4.3l-.5.2a41.2,41.2,0,0,0-2.8-3.1l-7.9-8a2,2,0,0,1-.7-1.9c1.8-16.2-4.1-29-17.1-38.5-8.3-6.2-17.9-8.5-28.1-7.5A40.6,40.6,0,0,0,42.8,46.6,39.2,39.2,0,0,0,34,68a41.3,41.3,0,0,0,30.6,44.7,43.4,43.4,0,0,0,18.3,1,1.7,1.7,0,0,1,1.4.3l10.2,10.2.3.5L89,126.4a1.7,1.7,0,0,0-1.4,1.4l-4.8,13.1a1.4,1.4,0,0,1-1.6,1.2H69.8a1.6,1.6,0,0,1-1.8-1.2q-2.2-6.3-4.8-12.6a2.9,2.9,0,0,0-1.1-1.1A55,55,0,0,1,47,120.6a2.9,2.9,0,0,0-3-.2l-11.9,5.8a1.5,1.5,0,0,1-2.1-.4l-8.1-8a1.4,1.4,0,0,1-.3-1.8l6-12.6a1.8,1.8,0,0,0,0-2A66.2,66.2,0,0,1,21.4,86c-.1-.5-.4-1.1-.8-1.2L5.9,79.5V65.4h.4l14.1-5.1a2.2,2.2,0,0,0,1-1.3,53.5,53.5,0,0,1,6.2-15.5,2.5,2.5,0,0,0,0-1.9c-1.9-4.1-3.9-8.3-5.9-12.4a1.5,1.5,0,0,1,.4-2.1l8-7.4a1.3,1.3,0,0,1,1.8-.3l12.5,6a2,2,0,0,0,2.2-.1,50.9,50.9,0,0,1,13.6-6.3A4.5,4.5,0,0,0,64,15.4c1.3-4.3,2.9-8.4,4.4-12.6Z" fill="#a9b5e6"/><path d="M49,64.9l1.1.9L62.2,77.3c4.4,4.2,12.3,4.7,17.1.9,3.1-2.5,5.4-5.5,5.8-9.8a13.5,13.5,0,0,0-3.7-10.8c-3.8-4-7.8-7.8-11.7-11.7a5.4,5.4,0,0,0-1.2-.9l.2-.5a36.9,36.9,0,0,1,4.6-.8c11.6-.7,20.4,4,26.4,13.8,4.8,7.7,5.3,16,1.8,24.5-.4.9.1,1.3.6,1.8l39.5,39.5c3.5,3.5,4.3,9.2,1.6,13.2-3.7,5.6-10.5,6.9-15.5,2.7l-1.7-1.6L86.9,98.5a1.9,1.9,0,0,0-2.3-.6,27.4,27.4,0,0,1-35-16.6,25.1,25.1,0,0,1-.8-15.8Z" fill="#a9b5e6"/></svg>