<svg xmlns="http://www.w3.org/2000/svg" id="Layer_1" data-name="Layer 1" viewBox="0 0 150 150"><title>Untitled-1</title><path d="M38.9,3.7h5c6.4,3.3,4.3,9.6,4.9,14.9h52.3c.5-5.4-1.6-11.7,5-14.9h5c6.6,3.2,4.6,9.5,5.1,15.1h12.6c10.7,0,16.3,5.6,16.3,16.3v94.5c0,10.9-5.6,16.4-16.4,16.4H21.3c-10.8,0-16.4-5.5-16.4-16.4V35.4c0-11.1,5.5-16.6,16.6-16.6H33.8a57.9,57.9,0,0,0,0-5.9C33.4,8.6,35,5.6,38.9,3.7ZM21.1,129.8H128.9V53.3H21.1Z" fill="#a9b5e6"/><path d="M56.5,108c.6-3.1,1.3-6.8,1.7-10.6A4.6,4.6,0,0,0,57,93.9c-2.2-2.6-5-4.7-7.1-7.4a7.8,7.8,0,0,1-1.6-5.1c.1-2.1,2-3.1,4.1-3.4s7-.9,10.4-1.6a4.5,4.5,0,0,0,2.9-2.1c1.7-3,3.2-6.2,4.8-9.3s2.4-3.6,4.4-3.1A7.9,7.9,0,0,1,79.4,65a49.7,49.7,0,0,1,4.4,8.6,4.4,4.4,0,0,0,4.1,3c3,.2,6,.8,9.1,1.3s4.1,1,4.9,3.4-.4,4.1-2,5.7-4.4,4.5-6.8,6.5a4.2,4.2,0,0,0-1.4,4.4c.6,3.2,1.1,6.4,1.7,9.6s.1,4.1-1.9,5.4-3.8.9-5.7-.1-5.9-3.2-8.9-4.5a4.7,4.7,0,0,0-3.7,0c-3.4,1.5-6.6,3.4-9.9,4.9S56.4,112.6,56.5,108Z" fill="#a9b5e6"/></svg>