<svg xmlns="http://www.w3.org/2000/svg" id="Layer_1" data-name="Layer 1" viewBox="0 0 150 150"><title>Untitled-1</title><path d="M143.8,14.8V78c-.1,0-.1.1-.1.2-1.7,5.8-5.1,8.3-11.1,8.3H91.8a13.4,13.4,0,0,1-3.5-.4c-4.7-1.2-7.6-5.1-7.6-10.4V17a4.9,4.9,0,0,1,.1-1.2c.4-5.4,4.5-9.5,9.7-9.5H134a9.8,9.8,0,0,1,9.3,6.9C143.5,13.7,143.6,14.3,143.8,14.8Z" fill="#a9b5e6"/><path d="M60.8,143.8H14.9c-6.2-1.4-8.8-6-8.7-12.1.2-19.1.1-38.2.1-57.3,0-6.7,4.2-10.9,10.8-10.9H58.6c6.5,0,10.7,4.3,10.7,10.8v58.8c0,4.4-1.8,7.7-5.7,9.7Z" fill="#a9b5e6"/><path d="M89.3,143.8a24.9,24.9,0,0,1-2.9-1.1,9.5,9.5,0,0,1-5.6-8.9c-.1-8.7-.1-17.3,0-25.9a9.9,9.9,0,0,1,10.3-10H133c5.6,0,9.2,2.8,10.6,8.2,0,.1.1.2.2.3v28.8a27.7,27.7,0,0,1-2.2,4.6c-1.4,2.3-3.8,3.3-6.4,4Z" fill="#a9b5e6"/><path d="M37.9,6.2H58.7c6.3,0,10.6,4.3,10.6,10.6V41.5c0,6.3-4.3,10.6-10.5,10.6h-42c-6.3,0-10.5-4.3-10.5-10.6V16.8c0-6.3,4.2-10.6,10.5-10.6Z" fill="#a9b5e6"/></svg>