<svg xmlns="http://www.w3.org/2000/svg" id="Layer_1" data-name="Layer 1" viewBox="0 0 150 150"><title>Untitled-1</title><path d="M143.1,130.4c-.9,5.2-4.8,8.3-8.4,11.4s-10.9,3.4-15.3-1L93.6,115l-.7-.7,5.9-5.9L90,99.6c-3.1,1.9-6.2,4-9.5,5.6-29.4,14.5-65-2.4-72-34.5A50.7,50.7,0,0,1,50.1,9.4L54,8.8h8l5.7.9c36.9,7.1,53.7,50.6,31,80.6a10.5,10.5,0,0,0-.8,1.1l.4-.2,8.8,9.1,6-6.1a5.8,5.8,0,0,0,1,1.2c7.7,7.8,15.4,15.5,23.2,23.2,2.7,2.7,5.2,5.4,5.8,9.4ZM58.2,99.2A39.6,39.6,0,1,0,18.7,59.7,39.6,39.6,0,0,0,58.2,99.2Z" fill="#a9b5e6"/></svg>