<svg xmlns="http://www.w3.org/2000/svg" id="Layer_1" data-name="Layer 1" viewBox="0 0 150 150"><title>Untitled-1</title><path d="M72.3,110.5a24.7,24.7,0,0,0-2.1,2.7,11,11,0,0,0-1.5,10.5,38.2,38.2,0,0,0,7.7,13.2,10.8,10.8,0,0,0,10,3.8l3.1-.3,1.6,3.8H31.7c-9,0-16-5.3-18-13.7a17.5,17.5,0,0,1-.5-4.6V24c0-10.7,7.6-18.3,18.3-18.3H85.8a11.9,11.9,0,0,1,9,3.8c9.1,9.2,18.3,18.3,27.5,27.4a12.5,12.5,0,0,1,3.8,9.1c-.1,10.9,0,21.8-.1,32.8v1.4c-1.4.6-2.2.3-2.7-1.1-1.7-5.1-5.2-7.8-10.5-8.5a42,42,0,0,0-13.7.3,11.7,11.7,0,0,0-8.8,7.7c-.8,2.1-.8,2.1-3,1.7a11.6,11.6,0,0,0-11.7,4.6,39.7,39.7,0,0,0-7.1,12.9,11.1,11.1,0,0,0,1.5,9.7Zm-12.4-50H37.6a4.9,4.9,0,1,0-.1,9.7H82.4a5.4,5.4,0,0,0,3-1,4.3,4.3,0,0,0,1.7-5.2,4.7,4.7,0,0,0-4.7-3.4ZM117.6,46a23,23,0,0,0-1.6-2L87.7,15.7a18.9,18.9,0,0,0-1.9-1.4V39c0,4.4,2.6,7,7.1,7h24.7ZM52,37.8H37.8c-3.1,0-5.2,2-5.2,4.8a4.9,4.9,0,0,0,5.2,4.9H65.9c3.2,0,5.4-2.1,5.4-4.9s-2.3-4.8-5.4-4.8Zm-3.4,55H59.9a4.8,4.8,0,1,0-.1-9.6c-7.5,0-14.9-.1-22.4.1a5.3,5.3,0,0,0-3.3,1.3,4.1,4.1,0,0,0-1.2,5.1,4.5,4.5,0,0,0,4.6,3.1Zm0,22.5H59.4a8.2,8.2,0,0,0,2.8-.6,4.6,4.6,0,0,0,2.4-5.3,4.8,4.8,0,0,0-5-3.8H37.7c-3.1,0-5.2,2.1-5.1,4.9a4.8,4.8,0,0,0,5.1,4.8Z" fill="#a9b5e6"/><path d="M127.7,134.3l-3.6-.5c-3.1-.4-4.5.4-5.7,3.2s-1,2.5-1.6,3.8a4.7,4.7,0,0,1-3.6,2.9,35,35,0,0,1-12.9,0,5.1,5.1,0,0,1-3.6-2.9c-.5-1.3-1-2.5-1.6-3.8s-2.7-3.6-5.6-3.2l-1.6.2c-3.8,1.1-6.6-.2-8.4-3.5s-3.1-5.6-4.5-8.5a4.9,4.9,0,0,1,.7-5.4,18.6,18.6,0,0,1,2.2-2.7,4.9,4.9,0,0,0-.1-6.9c-.6-.6-1-1.4-1.6-2a5.8,5.8,0,0,1-1-6.8A37.8,37.8,0,0,1,81,88.5a4.8,4.8,0,0,1,5-1.8l4.8.6c1.1.2,3.3-1.1,3.8-2.2s1.4-3.1,2-4.7a4.9,4.9,0,0,1,4-3.2,32.3,32.3,0,0,1,12.4,0,4.8,4.8,0,0,1,3.9,3.1l1.5,3.5c1.2,2.9,2.4,3.7,5.6,3.3l3.6-.5a5.1,5.1,0,0,1,4.9,1.8,35.1,35.1,0,0,1,6.2,11,4.7,4.7,0,0,1-.7,4.7l-2.4,3.1c-1.9,2.5-1.9,4.1,0,6.6a21.1,21.1,0,0,0,1.9,2.3,5.8,5.8,0,0,1,.9,6.4,35.3,35.3,0,0,1-5.8,9.9A5.6,5.6,0,0,1,127.7,134.3Zm-20.9-31.9a8.1,8.1,0,0,0-.1,16.1,8.1,8.1,0,1,0,.1-16.1Z" fill="#a9b5e6"/></svg>