<svg xmlns="http://www.w3.org/2000/svg" id="Layer_1" data-name="Layer 1" viewBox="0 0 150 150"><title>Untitled-1</title><path d="M146.8,130.9a19.9,19.9,0,0,1-.9,2.6c-1.6,4.2-4.6,6.7-9.1,8V114.2h-5.1v27.4H106.6c2.6-3.4,2.6-7.2,2.5-11V113.9c0-4.1.2-8.2-1.3-12.3h20.8c9.3,0,16.2,5.8,17.9,14.9l.3.5Z" fill="#a9b5e6"/><path d="M36.4,43l-8.9-8.9c-2-2-2-3,0-5.1l9.3-9.3c1.8-1.7,3-1.7,4.7,0l8.7,8.8,11.9-5.1,2.1-.7c2.2-.6,2.2-.6,2.2-2.7V9.4c0-2.5.8-3.3,3.3-3.3H83.4c2.2,0,3.1.9,3.1,3.1V21c0,.7,0,1.2.9,1.4a47.6,47.6,0,0,1,14.5,6.1l.5.2c3-2.9,6-5.9,8.9-8.9s3-1.8,4.8,0,6.4,6.3,9.5,9.5,1.7,2.9,0,4.6l-9.1,9a50,50,0,0,1,6.7,16h12.3c3.1,0,3.7.6,3.7,3.7V75.5c0,2.6-.8,3.4-3.4,3.5h-.3c-1.5.2-2.3-.3-3-1.8a14.9,14.9,0,0,0-19.3-7.1l-1.6.7c.2-12.9-4.7-23.4-15.2-30.8a33.6,33.6,0,0,0-22.3-6.2A35.2,35.2,0,0,0,41.3,70.6,52.6,52.6,0,0,0,36,69.1a14.8,14.8,0,0,0-15.9,8.5A1.8,1.8,0,0,1,18,79H16.6c-2,0-2.9-.9-2.9-2.9-.1-4.8-.1-9.5,0-14.3,0-2,.9-2.8,2.9-2.8,4.3-.1,8.7,0,13.2,0A49.2,49.2,0,0,1,36.4,43Z" fill="#a9b5e6"/><path d="M94,141.7V106.6H89.1v35H63.9v-35h-5v34.8c-5.6,1.3-10.1-2.2-10.1-7.8V109.3c.1-9.8,7-17.3,16.9-17.7,7.1-.4,14.3-.3,21.4,0,9.8.4,16.8,7.8,17,17.6.1,8.2,0,16.4,0,24.6-.1,4.8-3.2,7.8-8,7.9Z" fill="#a9b5e6"/><path d="M63.2,81.5H49.8c-.4,0-.9-.6-1.1-1a29.1,29.1,0,0,1,.9-25.1A30.1,30.1,0,0,1,106,63a29.2,29.2,0,0,1-1.8,17.5,1.8,1.8,0,0,1-1.2.9H89.6a15.1,15.1,0,0,0,1-12.6,14.7,14.7,0,0,0-5.7-7.3,15.2,15.2,0,0,0-17.5.4C61.5,66.3,60.2,72.4,63.2,81.5Z" fill="#a9b5e6"/><path d="M44.8,101.6c-1.9,10.9-.6,21.8-1,32.6-.1,2.5.6,4.1,2.4,7.4H21.3V114.2H16.2v27.3c-4.4-1.2-7.4-3.6-9-7.6a10.4,10.4,0,0,1-1-4.2,99.6,99.6,0,0,1,.3-13.4,16.9,16.9,0,0,1,16.1-14.7c7.2-.2,14.4-.1,21.6-.1Z" fill="#a9b5e6"/><path d="M109.1,84a10.1,10.1,0,1,1,10.1,10A10.1,10.1,0,0,1,109.1,84Z" fill="#a9b5e6"/><path d="M43.8,83.9a10.1,10.1,0,1,1-10.1-10A10.1,10.1,0,0,1,43.8,83.9Z" fill="#a9b5e6"/><path d="M76.5,63.9a10,10,0,1,1-10.1,10A10,10,0,0,1,76.5,63.9Z" fill="#a9b5e6"/></svg>