<svg xmlns="http://www.w3.org/2000/svg" id="Layer_1" data-name="Layer 1" viewBox="0 0 150 150"><title>Clients</title><path d="M77.1,3.2a5.5,5.5,0,0,1,2.7,2.9c1.2,2.9,2.6,5.7,3.9,8.6a1.6,1.6,0,0,0,1.7,1.2l10,1.1a3.4,3.4,0,0,1,3.1,2.3,3.3,3.3,0,0,1-1.1,3.8c-2.4,2.2-4.8,4.5-7.3,6.6a2.6,2.6,0,0,0-.8,2.6c.8,3.2,1.3,6.4,2,9.6a3.4,3.4,0,0,1-5,3.8l-9-5.1a1.7,1.7,0,0,0-2,0l-8.7,4.9a3.5,3.5,0,0,1-4,.1,3.5,3.5,0,0,1-1.3-3.8c.8-3.2,1.3-6.4,2-9.6a2.2,2.2,0,0,0-.7-2.4l-7.3-6.7a3.3,3.3,0,0,1-1.2-3.8A3.5,3.5,0,0,1,57.3,17l10.1-1.1a1.5,1.5,0,0,0,1.5-1.1l4-8.7a5,5,0,0,1,2.6-2.9Z" fill="#a9b5e6"/><path d="M86,87.3h30.9a9.5,9.5,0,0,1,9.6,10.3c-.1,1.9-.7,3.2-2.6,6,2.8,5.4,2.5,8.8-1.4,13.2,2.5,4.8,1.8,9.1-2.3,13a9.6,9.6,0,0,1-8.6,14.5H61.9c-3.2-.1-3.6-.5-3.6-3.6V83.2a3.9,3.9,0,0,1,1-2.7A53.1,53.1,0,0,0,71.7,52.8c.6-4.7,4.3-6.8,8.6-4.8,5.8,2.7,8.6,7.5,9.5,13.7s-.6,14.5-2.6,21.5C86.9,84.5,86.5,85.8,86,87.3Z" fill="#a9b5e6"/><path d="M51.7,114.7v24.2c0,3.4-1.9,5.4-5.4,5.5H23.8c-4.2,0-6.9-2.7-6.9-7q-.1-22.8,0-45.6c0-4.3,2.7-7,6.9-7H45.7a7.8,7.8,0,0,1,3.7.9,3.7,3.7,0,0,1,2.3,3.8C51.6,98,51.7,106.3,51.7,114.7Zm-22-14.4H31a3.3,3.3,0,0,0,.1-6.6,13.1,13.1,0,0,0-2.8,0,3.2,3.2,0,0,0-3,3.5,3.3,3.3,0,0,0,3.2,3.1Z" fill="#a9b5e6"/><path d="M106.6,50.4c.5-2.3,1-5,1.6-7.7a1.9,1.9,0,0,0-.7-2.2c-1.9-1.6-3.6-3.3-5.5-5a3.5,3.5,0,0,1-1.2-3.7,3.3,3.3,0,0,1,3.1-2.3c2.6-.3,5.1-.7,7.7-.9a1.5,1.5,0,0,0,1.5-1.1l3.1-6.9a3.4,3.4,0,0,1,6.4,0c1,2.3,2.1,4.5,3.1,6.8a1.6,1.6,0,0,0,1.7,1.2l7.4.9a3.3,3.3,0,0,1,3.2,2.3,3.5,3.5,0,0,1-1.2,3.7c-1.8,1.7-3.6,3.4-5.5,5a2.1,2.1,0,0,0-.7,2.2c.6,2.4,1,4.8,1.5,7.3a3.3,3.3,0,0,1-5,3.7l-6.7-3.8a1.8,1.8,0,0,0-2,0q-3.5,2.1-6.9,3.9C109.1,55.1,106.5,53.4,106.6,50.4Z" fill="#a9b5e6"/><path d="M33.7,18.3a3.2,3.2,0,0,1,2.6,2.1l3.3,7.1a1.4,1.4,0,0,0,1.5,1.1c2.5.2,5,.6,7.5.9a3.3,3.3,0,0,1,3.2,2.4,3.2,3.2,0,0,1-1.2,3.6l-5.5,5.1a1.8,1.8,0,0,0-.7,2c.6,2.4,1,4.8,1.5,7.1s.2,2.9-1.1,3.9a3.6,3.6,0,0,1-4.2,0L34.3,50a1.8,1.8,0,0,0-2.1-.1c-2.1,1.3-4.3,2.5-6.5,3.7a3.3,3.3,0,0,1-4,0,3.5,3.5,0,0,1-1.2-3.8c.6-2.5,1.1-5,1.5-7.4a2.6,2.6,0,0,0-.5-1.7c-1.8-1.7-3.6-3.4-5.5-5a3.5,3.5,0,0,1-1.3-3.9c.5-1.7,1.9-2.2,3.5-2.4l7.2-.8a2.4,2.4,0,0,0,1.4-1c1.2-2.4,2.2-4.8,3.3-7.1A3.5,3.5,0,0,1,33.7,18.3Z" fill="#a9b5e6"/></svg>