<svg xmlns="http://www.w3.org/2000/svg" id="Layer_1" data-name="Layer 1" viewBox="0 0 150 150"><title>Clients</title><path d="M19.7,59.6a44.8,44.8,0,0,1,3.1-6.2A85.5,85.5,0,0,1,28.9,46a17.2,17.2,0,0,0,4.5-11.1c.2-3.1.5-6.2.8-9.3a10.3,10.3,0,0,1,9.6-9.4l9.9-.8a16.4,16.4,0,0,0,9.6-3.9l7.6-6.4c4.5-3.7,9.5-3.7,13.9-.1,1.7,1.4,3.5,2.7,5,4.2a21.4,21.4,0,0,0,15.8,6.5c2.1,0,4.2.3,6.3.5,5.4.5,9.2,4,9.7,9.4.5,3.8.8,7.5,1.1,11.2a15.4,15.4,0,0,0,3.9,8.8c2.2,2.5,4.4,5.1,6.5,7.7a10.1,10.1,0,0,1,0,13.4c-2,2.5-4,5-6.1,7.3a18,18,0,0,0-4.6,11.4c-.1,2.9-.4,5.9-.7,8.8-.7,5.6-4.3,9.1-9.8,9.7l-9.7.8a15.9,15.9,0,0,0-9.8,4L84.9,115c-4.5,3.7-9.5,3.7-14,0a51.5,51.5,0,0,1-5-4.3,21.8,21.8,0,0,0-15.8-6.4,40.5,40.5,0,0,1-7.8-.8,9.8,9.8,0,0,1-8.1-8.9c-.4-3.8-.7-7.6-1-11.4a15.8,15.8,0,0,0-3.9-8.7l-6.6-7.8a9.8,9.8,0,0,1-2.4-6.8ZM77.9,99.8A39.8,39.8,0,1,0,38.1,60.1,39.8,39.8,0,0,0,77.9,99.8Z" fill="#a9b5e6"/><path d="M53.8,148.6l-3.4-7.7-5.7-13.4c-1.3-2.9-1.6-3.1-4.8-2.8L20.1,127l-3.1.3,14.6-25.2c2.4,3.1,5.2,5.5,8.9,6.3a69,69,0,0,0,7.8.9,30.7,30.7,0,0,1,5.2.6,19.5,19.5,0,0,1,6.2,2.4c3.5,2.6,6.7,5.5,10.2,8.4Z" fill="#a9b5e6"/><path d="M124.2,102c4.9,8.5,9.7,16.7,14.6,25.3l-10.3-1.1-13.4-1.6a3.1,3.1,0,0,0-3.6,2.2l-9.4,21.8L86,120.7c3.6-3,7-6.2,10.8-8.8,1.8-1.3,4.2-1.7,6.5-2.1a35,35,0,0,1,6.5-.7C115.6,109,120.6,107.2,124.2,102Z" fill="#a9b5e6"/><path d="M62.3,65.2a29.3,29.3,0,0,0-12,15.3C42.4,71.7,39,51.9,51.9,37.2a34.5,34.5,0,0,1,49.1-3c14.9,13.3,14.4,34.3,4.6,46.4A29.9,29.9,0,0,0,93.5,65.1a19,19,0,0,0,2.2-16.2,18.2,18.2,0,0,0-7.1-9.7,18.8,18.8,0,0,0-22.8,1.2C60.2,45.1,56.2,54.6,62.3,65.2Z" fill="#a9b5e6"/><path d="M77.8,94.7a34.5,34.5,0,0,1-22.1-8,2.6,2.6,0,0,1-1-3.1,24.1,24.1,0,0,1,9.7-13.7,2,2,0,0,1,2.8,0,18.5,18.5,0,0,0,21.4.1c1.1-.8,1.8-.9,2.9-.1a24.3,24.3,0,0,1,9.6,13.5,2.6,2.6,0,0,1-1,3.3A34.1,34.1,0,0,1,77.8,94.7Z" fill="#a9b5e6"/><path d="M91.5,54.7A13.6,13.6,0,1,1,77.9,41,13.5,13.5,0,0,1,91.5,54.7Z" fill="#a9b5e6"/></svg>