<svg xmlns="http://www.w3.org/2000/svg" id="Layer_1" data-name="Layer 1" viewBox="0 0 150 150"><title>Clients</title><path d="M21.4,75V25.1c0-9.4,5.8-16.8,14.8-18.9a24.2,24.2,0,0,1,4.7-.5H93.3a18.8,18.8,0,0,1,13.5,5.2l18.8,17.3a18.8,18.8,0,0,1,6.2,14.4c0,27.4.1,54.8,0,82.2,0,11.4-8.2,19.5-19.5,19.5H41.1c-11.5,0-19.7-8.1-19.7-19.6Zm49-18.3.5.2V76.1c0,3.9,2.3,6.4,5.8,6.4s5.7-2.5,5.7-6.3V58.4c0-.5.1-1,.1-1.6l.4-.2c1.5,1.6,2.9,3.2,4.4,4.6a5.7,5.7,0,1,0,8.2-8c-4.8-4.9-9.7-9.9-14.7-14.7-2.6-2.6-5.8-2.5-8.4.1-4.8,4.7-9.6,9.5-14.3,14.3-2.6,2.6-2.7,6.1-.3,8.4s5.8,2.3,8.4-.2Zm6.2,56.6H98.1a7.4,7.4,0,0,0,2.6-.3,5.7,5.7,0,0,0,4-6.3,5.8,5.8,0,0,0-5.6-4.9H53.5a5.8,5.8,0,0,0-5,6.2,5.7,5.7,0,0,0,5.6,5.3Z" fill="#a9b5e6"/></svg>