<svg id="Group_9" data-name="Group 9" xmlns="http://www.w3.org/2000/svg" width="149.582" height="214.539" viewBox="0 0 149.582 214.539">
  <path id="Path_26" data-name="Path 26" d="M906.019,313.118c-2.191,4.773-5.978,6.145-11.088,6.13-45.039-.129-90.078-.075-135.117-.075h-3.378V104.71h83.525v2.833q0,26.693,0,53.386c0,6.419,3.2,9.611,9.641,9.614q28.206.01,56.413,0ZM822.88,187.061q-20.618,0-41.238-.006c-3.765,0-6.586,1.593-8.13,5.016-2.543,5.637,1.691,11.487,8.3,11.493q41.1.035,82.2,0c5.295,0,9.017-3.518,8.965-8.336s-3.77-8.157-9.137-8.164Q843.362,187.04,822.88,187.061Zm.32,33.028q-20.756,0-41.513.01c-5.122.01-8.817,3.455-8.873,8.149-.057,4.8,3.687,8.319,8.955,8.348,5.956.032,11.913.007,17.869.007q32.029,0,64.057.018c3.836.007,6.83-1.327,8.5-4.871,2.649-5.627-1.483-11.627-8.033-11.647C850.509,220.06,836.854,220.089,823.2,220.089Zm-.613,49.541c13.929,0,27.858.029,41.788-.016,4.925-.015,8.544-3.525,8.6-8.137.062-4.715-3.616-8.288-8.671-8.35-3.665-.046-7.331-.01-11-.01q-35.6,0-71.2-.021c-3.842-.007-6.83,1.333-8.507,4.863-2.665,5.61,1.473,11.634,8.024,11.657C795.278,269.663,808.933,269.631,822.587,269.63Zm-24.418-115.6c-5.585,0-11.17-.041-16.755.013-4.891.047-8.537,3.548-8.6,8.131-.064,4.687,3.633,8.334,8.652,8.355q16.617.07,33.234,0c5.086-.018,8.752-3.556,8.737-8.272s-3.693-8.184-8.79-8.22C809.155,154,803.661,154.032,798.169,154.032Z" transform="translate(-756.437 -104.71)" fill="#888"/>
  <path id="Path_27" data-name="Path 27" d="M936.065,156.046H892.7V112.692Z" transform="translate(-792.493 -106.822)" fill="#888"/>
</svg>
