<svg id="Group_10" data-name="Group 10" xmlns="http://www.w3.org/2000/svg" width="196.238" height="221.442" viewBox="0 0 196.238 221.442">
  <path id="Path_28" data-name="Path 28" d="M136.014,87.255c1.732,17.973,7.2,26.116,17.167,25.986,9.645-.125,14.472-7.41,17.064-26.068H261.4c3.255,19.019,7.875,25.9,17.285,26.065,9.718.169,14.936-7.489,17.288-25.37,13.127-2.469,17.259.616,17.277,13.521q.111,83.053.006,166.107c-.013,12.227-2.842,14.871-15.372,14.876q-82.576.035-165.152,0c-13.058-.006-15.63-2.523-15.64-15.559q-.062-81.621-.01-163.243C117.086,88.523,119.785,86.124,136.014,87.255ZM297.379,130.14H133.024V266.389H297.379Z" transform="translate(-117.066 -60.948)" fill="#888"/>
  <path id="Path_29" data-name="Path 29" d="M164.089,59.659c0-3.814-.276-7.654.063-11.438.623-6.953,4.482-11.4,11.609-11.392,6.723.006,10.672,4.364,11.079,10.833a208.564,208.564,0,0,1,.048,24.773c-.367,6.508-4.319,10.786-11.031,10.868-7.161.088-11.063-4.3-11.7-11.253C163.779,67.952,164.087,63.792,164.089,59.659Z" transform="translate(-139.607 -36.83)" fill="#888"/>
  <path id="Path_30" data-name="Path 30" d="M429.242,60.149c0,4.448,1.425,9.621-.371,13.155-2.106,4.144-6.6,8.852-10.807,9.731-6.193,1.293-10.857-3.39-11.236-10.091-.466-8.238-.391-16.53-.087-24.781.262-7.1,4.384-11.367,11.5-11.3,6.7.062,10.4,4.358,11,10.9.375,4.1.07,8.257.07,12.389Z" transform="translate(-256.165 -36.845)" fill="#888"/>
  <path id="Path_31" data-name="Path 31" d="M203.726,356.667V381H179.9c-.466-1.369-1.03-2.232-1.009-3.081C179.515,352.834,172.615,354.993,203.726,356.667Z" transform="translate(-146.661 -190.102)" fill="#888" opacity="0.4"/>
  <path id="Path_32" data-name="Path 32" d="M203.675,278.75v24.721c-6.813,0-13.375.456-19.8-.279-1.919-.219-4.676-3.626-4.934-5.822-.691-5.871-.236-11.877-.236-18.62Z" transform="translate(-146.618 -153.096)" fill="#888" opacity="0.4"/>
  <path id="Path_33" data-name="Path 33" d="M282.8,278.32H307v24.368H282.8Z" transform="translate(-196.718 -152.89)" fill="#888" opacity="0.4"/>
  <path id="Path_34" data-name="Path 34" d="M384.938,302.526v-24.3H408.48c.575.932,1.178,1.452,1.173,1.965C409.4,306.52,415.737,303.928,384.938,302.526Z" transform="translate(-245.805 -152.846)" fill="#888" opacity="0.4"/>
  <path id="Path_35" data-name="Path 35" d="M282.445,355.978h24.2v24.368h-24.2Z" transform="translate(-196.547 -190.212)" fill="#888" opacity="0.4"/>
  <path id="Path_36" data-name="Path 36" d="M384.582,380.184v-24.3h23.542c.575.932,1.178,1.452,1.173,1.965C409.04,384.178,415.381,381.586,384.582,380.184Z" transform="translate(-245.634 -190.168)" fill="#888" opacity="0.4"/>
  <path id="Path_37" data-name="Path 37" d="M384.784,221.851V198.145c1.3-.453,2.167-1.031,3.011-1.006,24.669.747,23.04-6.727,21.262,24.712Z" transform="translate(-245.731 -113.742)" fill="#888" opacity="0.4"/>
  <path id="Path_38" data-name="Path 38" d="M306.688,222.675H282.445V198.246h24.243Z" transform="translate(-196.547 -114.406)" fill="#888" opacity="0.4"/>
  <path id="Path_39" data-name="Path 39" d="M203.887,197.823v23.965H179.78a8.294,8.294,0,0,1-.894-2.615C179.582,194.42,172.366,196.134,203.887,197.823Z" transform="translate(-146.655 -113.791)" fill="#888"/>
</svg>
