<svg xmlns="http://www.w3.org/2000/svg" id="Layer_1" data-name="Layer 1" viewBox="0 0 150 150"><defs fill="#a9b5e6"><style>.cls-1{stroke:#ffffff;stroke-miterlimit:10;stroke-width:3px;}.cls-2{font-size:61.58px;fill:#ffffff;font-family:MyriadPro-Bold, Myriad Pro;font-weight:700;}</style></defs><title>Untitled-1</title><path d="M52.9,144.1h-29c-5.8,0-9.9-2.9-11.4-7.8a14,14,0,0,1-.6-2.8c0-9-.3-18.1.1-27.1.6-15.5,7.7-27,21.7-34.1a37.9,37.9,0,0,1,15.2-3.8c6.8-.4,13.6-.6,20.2,1.1,14.7,3.6,27.2,17.8,28.2,32.9.7,10.4.3,20.9.3,31.4a11.7,11.7,0,0,1-1.3,4.4,7.4,7.4,0,0,1-6.3,4.9c-5.3.6-10.7.9-16.1,1.1h-21Z" fill="#a9b5e6"/><path d="M54.8,2.4A27.7,27.7,0,1,1,27.2,30.1,27.6,27.6,0,0,1,54.8,2.4Z" fill="#a9b5e6"/><circle class="cls-1" cx="112" cy="118" r="29.6" fill="#a9b5e6"/><text class="cls-2" transform="translate(94.2 134)" fill="#a9b5e6">+</text></svg>