<svg id="Layer_1" data-name="Layer 1" xmlns="http://www.w3.org/2000/svg" viewBox="0 0 150 150"><defs><style>.cls-1{fill:#a9b5e6;}</style></defs><title>Clients</title><path class="cls-1" d="M36.3,122.5c-5.6-9-11.1-18-16.6-27l5.8-4a76.3,76.3,0,0,1,9.8-6.1,33.5,33.5,0,0,1,8.1-2.7,34.8,34.8,0,0,1,8.5-1.1,31.2,31.2,0,0,1,11.7,1.9,59.2,59.2,0,0,0,14.5,2.9c6.3.4,12.7.6,19,.6a14.1,14.1,0,0,1,4.1.7,5.5,5.5,0,0,1,3.7,6.6,7.4,7.4,0,0,1-5.3,5.7,14,14,0,0,1-4.1.6l-7.5.2H68.6c-3.6-.1-7.1-.4-10.6-.7a1.3,1.3,0,0,0-1.4,1,1.2,1.2,0,0,0,1.1,1.5c2.6.2,5.2.5,7.8.5,5.6.2,11.3.3,16.9.3s9.6-.1,14.4-.3a10.8,10.8,0,0,0,9.6-5.7,8.4,8.4,0,0,0,1-5.8.8.8,0,0,1,.3-.9l13.4-10.8,15.2-12.2a8,8,0,0,1,8.1-1.5,6.7,6.7,0,0,1,3.7,9.7,20.7,20.7,0,0,1-2.8,3.8,129.2,129.2,0,0,1-11.7,11.7l-5.5,4.8a214.5,214.5,0,0,1-17.8,13.6L96,119.3a29.3,29.3,0,0,1-6,3.3A24.1,24.1,0,0,1,78.1,124l-19.5-3-10.5-1.6A15,15,0,0,0,38,121.6l-1.5.8Z"/><path class="cls-1" d="M57.3,79.4c.3-1.4.6-2.8,1-4.1a56.6,56.6,0,0,1,3.6-10.5,30.1,30.1,0,0,1,5.3-8A15,15,0,0,1,78.3,52H95.6a49.3,49.3,0,0,1,5.4.5,15.6,15.6,0,0,1,8.6,5.3,35,35,0,0,1,6.9,12.5c.9,2.6,1.5,5.2,2.2,7.8.1.3,0,.5-.3.8l-11.1,8.9-.5.4c-.4.3-.7.4-1.1-.1a8.6,8.6,0,0,0-6.9-3.4c-3.3-.2-6.5-.1-9.8-.2a152.6,152.6,0,0,1-16.5-1.2,61,61,0,0,1-8.4-2.2l-6.4-1.6Z"/><path class="cls-1" d="M70.8,29.2a16.8,16.8,0,0,1,10.8-15,15.7,15.7,0,0,1,15.5,1.5,17,17,0,0,1,7.6,11.2,17.9,17.9,0,0,1-8.9,19.4A16.9,16.9,0,0,1,74,40.8C71.9,37.7,70.8,34.3,70.8,29.2Z"/><path class="cls-1" d="M22.8,134.8a1,1,0,0,1-.5-.4l-3.2-5.1C14.6,121.8,10,114.4,5.5,107l-3.6-5.8c-.5-.8-.4-1.2.4-1.7l11.3-6.9c.9-.5,1.2-.4,1.8.5,2.5,4.2,5.1,8.4,7.7,12.6l8.5,14,3.9,6.3c.4.7.3,1.1-.3,1.5l-11.5,7Zm.4-4.2,2.1-1.4-3.5-5.5-2,1.3Z"/></svg>