<svg xmlns="http://www.w3.org/2000/svg" id="Layer_1" data-name="Layer 1" viewBox="0 0 150 150"><title>Clients</title><path d="M39.9,146.5c-2.9,0-5.7.2-8.4,0a7.6,7.6,0,0,1-6.8-7.4V23.1c0-5.9,2.9-8.9,8.8-8.9H50.1v9.4c0,6.8,4.2,11,11,11h34c6.8,0,11-4.2,11-11V14.2h17.3c4.9.1,8.1,3.2,8.1,8.2V138.3c0,5.1-3.2,8.2-8.2,8.3h-7v-4.7c-.1-3.1-1.3-4.8-4.3-5.7a4.4,4.4,0,0,1-2.5-6.3c1.3-2.6,1.1-4.8-1-6.9l-6.8-6.8a5.2,5.2,0,0,0-6.9-1,4.4,4.4,0,0,1-6.3-2.6c-1-2.9-2.6-4.2-5.6-4.2H73.3c-3,0-4.7,1.3-5.6,4.2a4.4,4.4,0,0,1-6.3,2.6,5.2,5.2,0,0,0-6.9,1l-6.7,6.7a5.5,5.5,0,0,0-1.1,7,4.4,4.4,0,0,1-2.5,6.3c-3,.9-4.2,2.6-4.3,5.7ZM93.4,49.9H78.7c-2,0-3.1.9-3.1,2.5s1.1,2.5,3.1,2.6h29.2c2-.1,3.2-1,3.2-2.6s-1.2-2.5-3.1-2.5Zm-.2,25.4H108c1.9,0,3.1-1,3.1-2.6s-1.2-2.5-3.2-2.5H78.7c-2,0-3.1,1-3.1,2.6s1.1,2.5,3.1,2.5Zm.2,15.3H78.8c-2.1,0-3.2.9-3.2,2.5s1.1,2.6,3.1,2.6h29.2c2,0,3.2-1,3.2-2.6s-1.2-2.5-3.1-2.5ZM52.6,53.9l-3.1-3.2a2.6,2.6,0,0,0-3.7-.1,2.5,2.5,0,0,0,.1,3.7q2.3,2.4,4.8,4.8a2.5,2.5,0,0,0,3.9.1c1.1-1,2-2.1,3-3.1l6.9-6.8a2.3,2.3,0,0,0,.4-3.2,4.2,4.2,0,0,0-2.4-1.2,3,3,0,0,0-2,1.2Zm0,20.4-3.1-3.2a2.6,2.6,0,1,0-3.7,3.5c1.6,1.7,3.3,3.4,5,5a2.4,2.4,0,0,0,3.7,0L64.7,69.4a2.3,2.3,0,0,0-.2-3.5,2.4,2.4,0,0,0-3.4-.1L59.9,67C57.5,69.3,55.2,71.7,52.6,74.3Zm0,20.4c-1.1-1.2-2.1-2.3-3.1-3.2a2.5,2.5,0,0,0-3.7-.2,2.6,2.6,0,0,0,0,3.7l5,4.9a2.4,2.4,0,0,0,3.7.1c3.4-3.4,6.8-6.7,10.1-10.2a2.4,2.4,0,0,0-.4-3.8c-1.3-.9-2.5-.5-3.5.6C58.1,89.2,55.4,91.8,52.6,94.7Z" fill="#a9b5e6"/><path d="M78,29.5H60.9c-3.6,0-5.7-2-5.7-5.6V9.6c0-3.5,2.1-5.5,5.6-5.5H95.4c3.5,0,5.6,2,5.6,5.5V24.1c0,3.3-2.1,5.4-5.5,5.4Z" fill="#a9b5e6"/><path d="M111.2,146.5H98.5c-.4-6.5-2.6-12.2-8-16.2a20.2,20.2,0,0,0-13-3.9c-11.4.5-17.6,6.8-19.9,20.1H45.2v-5.4c3.5-.3,5.2-2.5,6.4-5.6s1.5-5.8-.4-8.4l7.5-7.7c2.7,2.4,5.4,1.7,8.5.6a8.1,8.1,0,0,0,5.6-6.5H83.5c.3,3.5,2.5,5.3,5.6,6.5s5.9,1.6,8.5-.4c2.6,2.5,5,4.9,7.5,7.2v.4c-3.1,4-1,7.7,1,11.2.6,1.2,2.5,1.8,3.9,2.4s1.3.7,1.2,1.7S111.2,145,111.2,146.5Z" fill="#a9b5e6"/><path d="M93.3,146.5H63c-.8-7.3,6.3-14.8,14.2-15.2A15.3,15.3,0,0,1,93.3,146.5Z" fill="#a9b5e6"/></svg>