<svg xmlns="http://www.w3.org/2000/svg" id="Layer_1" data-name="Layer 1" viewBox="0 0 150 150"><title>Clients</title><path d="M81.8,146.8H34.7c-4.4,0-6.5-2.3-5.8-6.6,3.4-22.1,15.9-36.5,36.8-44,5.3-1.8,10.6-3.2,16.2-3,19.4.4,34.3,8.9,45,24.9a51.8,51.8,0,0,1,8,21.8c.6,4.4-1.6,6.9-6,6.9Z" fill="#a9b5e6"/><path d="M108.4,57.7a26.6,26.6,0,0,1-53.1.1A26.3,26.3,0,0,1,81.6,31.2,26.7,26.7,0,0,1,108.4,57.7Z" fill="#a9b5e6"/><path d="M47.5,69c4.9,10.3,4.9,10.3,14.1,18.5l-6.7,2.8a62.3,62.3,0,0,0-30,30.1,1.9,1.9,0,0,1-2,1.2H11.2c-4.3,0-6.4-2.4-5.8-6.6C8.2,96,18,82.1,35.1,73.2A47.7,47.7,0,0,1,47.5,69Z" fill="#a9b5e6"/><path d="M76.5,22.1A36.5,36.5,0,0,0,52.7,36.9a35,35,0,0,0-6.3,27.3A26.2,26.2,0,0,1,30.7,39.6,26.6,26.6,0,0,1,49,14.8C60.2,11.2,71.2,15.7,76.5,22.1Z" fill="#a9b5e6"/><path d="M116,18.6v-8a6.3,6.3,0,1,1,12.6-.2c.1,2.7,0,5.3,0,8.2,2.8,0,5.5-.1,8.2,0a6.3,6.3,0,1,1-.2,12.6c-2.1.1-4.2,0-6.4,0h-1.6V39c-.1,3.5-2.1,6-5.2,6.6a6.3,6.3,0,0,1-7.4-6c-.1-2.7,0-5.4,0-8.3h-1.6c-2.5,0-4.9.1-7.3-.1a6.3,6.3,0,0,1,.6-12.5C110.4,18.5,113.1,18.6,116,18.6Z" fill="#a9b5e6"/></svg>