<svg xmlns="http://www.w3.org/2000/svg" id="Layer_1" data-name="Layer 1" viewBox="0 0 150 150"><title>Clients</title><path d="M30.8,146.8c-2-.9-2.6-2.4-2.6-4.6.1-36.4,0-72.7,0-109.1,0-3.4,1.2-4.5,4.6-4.5h17V38.7a7.4,7.4,0,0,0,7.6,7.6h43.7c4.6-.1,7.6-3.1,7.6-7.6V29c0-.1.1-.2.1-.4h17.3c2.9,0,4.1,1.3,4.1,4.1,0,36.7,0,73.5.1,110.2a4,4,0,0,1-2.6,3.9ZM38,115.4v11.7c.1,2.8,1.2,4,3.9,4H64.3c2.9,0,4.3-1.4,4.3-4.3v-23c0-2.9-1.3-4.2-4.1-4.2H42c-2.7,0-3.9,1.3-4,4Zm0-45.6V81.5c0,2.7,1.2,3.8,3.9,3.8H64.5c2.7,0,4.1-1.4,4.1-4v-23c0-2.9-1.3-4.2-4.1-4.2H42c-2.8,0-3.9,1.2-4,3.9ZM97.8,54.1H77a1.8,1.8,0,0,0-1.9,2A1.9,1.9,0,0,0,77,58.3a5.6,5.6,0,0,0,1.3,0h25.3c4.8,0,9.5.1,14.3,0a3,3,0,0,0,2.2-1.1c1-1.5-.1-3.1-2.1-3.1Zm0,9H77a1.9,1.9,0,0,0-1.9,2.1A1.9,1.9,0,0,0,77,67.3h26.9c4.7,0,9.3.1,14,0a3,3,0,0,0,2.2-1.1c1-1.5-.1-3.1-2.1-3.1Zm0,63.8H78.1a4.6,4.6,0,0,0-1.7.1,3.8,3.8,0,0,0-1.3,1.6,3.3,3.3,0,0,0,.9,2.1,4.2,4.2,0,0,0,2,.4h40.1a2,2,0,0,0,2.2-1.4c.6-1.6-.4-2.8-2.3-2.8Zm0-50.6h20.3c1,0,2-.2,2.2-1.3a3.8,3.8,0,0,0-.6-2.3,3.2,3.2,0,0,0-2-.6H76.8a2.2,2.2,0,0,0-1.7,2.7,2.3,2.3,0,0,0,2.5,1.4Zm0,9h20.3c1.5,0,2.3-.7,2.3-1.9a2.1,2.1,0,0,0-2.2-2.3H76.6a2,2,0,0,0-1.5,2.4c.2,1.4,1.2,1.7,2.5,1.7Zm0,18.5h20.3c1.1,0,2.1-.3,2.2-1.3a4.8,4.8,0,0,0-.9-2.5,3.2,3.2,0,0,0-1.8-.4H84.3c-2.2,0-4.5-.1-6.7.1a2.8,2.8,0,0,0-2.1,1,2.1,2.1,0,0,0-.2,2,3.3,3.3,0,0,0,2.2,1.1C84.3,103.9,91.1,103.8,97.8,103.8Zm-.1,9h20.4c1.1,0,2.1-.3,2.2-1.4a4.4,4.4,0,0,0-.9-2.4c-.3-.4-1.2-.4-1.8-.4H78.1c-.4,0-1-.1-1.3.1a4.4,4.4,0,0,0-1.7,1.9,2.4,2.4,0,0,0,.9,1.8,2.7,2.7,0,0,0,1.8.4Zm0,9h20.4c1.5,0,2.3-.7,2.3-1.9a2.1,2.1,0,0,0-2.2-2.3H76.6a2,2,0,0,0-1.5,2.4c.2,1.3,1.1,1.7,2.3,1.7Z" fill="#a9b5e6"/><path d="M81.5,3l2.5.7c6.9,2.1,11.3,6.7,12.9,13.8a5.6,5.6,0,0,0,.4,1.2h3.8a3.5,3.5,0,0,1,3.6,3.7c.1,5.4.1,10.7,0,16.1a3.4,3.4,0,0,1-3.6,3.7H57.4a3.4,3.4,0,0,1-3.7-3.7v-16c0-2.7,1.2-3.8,4-3.9h3c1.3-2.8,2.2-5.5,3.8-7.8A16.5,16.5,0,0,1,76.4,3.3L77,3ZM69.4,22.7a9.9,9.9,0,0,0,9.8,10.1A10.1,10.1,0,0,0,89.3,22.7a10.2,10.2,0,0,0-10-10.1A10,10,0,0,0,69.4,22.7Z" fill="#a9b5e6"/><path d="M64.3,126.8H42V103.9H64.3Zm-14-9.7-1.8-2a2.3,2.3,0,0,0-3.2-.2,2.1,2.1,0,0,0,.2,3.1l3,3c1.4,1.4,2.6,1.4,4,0l8.7-8.9a1.9,1.9,0,0,0,.2-2.8,2.2,2.2,0,0,0-2.9-.3,5,5,0,0,0-1.1,1Z" fill="#a9b5e6"/><path d="M64.3,81.3H42V58.5H64.3ZM50.4,71.5l-1-.9-1-1a2.3,2.3,0,0,0-3.1-.2,2.2,2.2,0,0,0,.2,3.1l3.1,3.1c1.3,1.3,2.5,1.3,3.9,0l8.8-9.2a2.3,2.3,0,0,0,.4-2,2.3,2.3,0,0,0-1.8-1.2,2.6,2.6,0,0,0-2.1,1C55.3,66.5,52.9,69,50.4,71.5Z" fill="#a9b5e6"/><path d="M79.3,28.6a5.9,5.9,0,1,1,5.8-5.9A5.8,5.8,0,0,1,79.3,28.6Z" fill="#a9b5e6"/></svg>