<svg xmlns="http://www.w3.org/2000/svg" width="24.373" height="26.346" viewBox="0 0 24.373 26.346">
  <path id="user-check-alt-svgrepo-com" d="M16.956,24.1l2.332,2.221L24.73,21.14M20.2,17.774a3.883,3.883,0,0,0-1.256-.459,3.162,3.162,0,0,0-.318-.039,3.9,3.9,0,0,0-.632-.019,2.207,2.207,0,0,0-.511.09,12.37,12.37,0,0,0-1.2.513,7.8,7.8,0,0,1-6.407,0,12.377,12.377,0,0,0-1.208-.515,2.222,2.222,0,0,0-.511-.09,3.888,3.888,0,0,0-.632.019,3.155,3.155,0,0,0-.324.04,3.887,3.887,0,0,0-3.133,3.133A9.761,9.761,0,0,0,4,22.029v2.223a3.219,3.219,0,0,0,.142,1.366,1.3,1.3,0,0,0,.566.566,3.219,3.219,0,0,0,1.366.142h6.349m5.833-18.14A5.183,5.183,0,1,1,13.07,3a5.183,5.183,0,0,1,5.185,5.186Z" transform="translate(-2.478 -1.5)" fill="none" stroke="#007582" stroke-linecap="round" stroke-linejoin="round" stroke-width="3"/>
</svg>
