<svg id="financial-report-svgrepo-com" xmlns="http://www.w3.org/2000/svg" width="29.571" height="26.82" viewBox="0 0 29.571 26.82">
  <path id="Path_1" data-name="Path 1" d="M132.182,232.335a4.155,4.155,0,1,1,4.155-4.155,4.155,4.155,0,0,1-4.155,4.155Zm0-7.854a3.7,3.7,0,1,0,3.7,3.7,3.7,3.7,0,0,0-3.7-3.7Z" transform="translate(-124.328 -218.939)" fill="#000e6a"/>
  <path id="Path_2" data-name="Path 2" d="M132.182,396.4a4.164,4.164,0,0,1-4.155-4.155.231.231,0,0,1,.462,0,3.7,3.7,0,0,0,7.392,0,.231.231,0,1,1,.462,0A4.163,4.163,0,0,1,132.182,396.4Z" transform="translate(-124.328 -382.076)" fill="#000e6a"/>
  <path id="Path_3" data-name="Path 3" d="M128.255,307.015a.231.231,0,0,1-.231-.231v-.925a.231.231,0,0,1,.462,0v.925a.231.231,0,0,1-.23.231Zm7.854,0a.231.231,0,0,1-.231-.231v-.925a.231.231,0,1,1,.462,0v.925a.231.231,0,0,1-.23.231Zm-3.928.693a1.848,1.848,0,1,1,1.848-1.848,1.848,1.848,0,0,1-1.848,1.848Zm0-3.234a1.386,1.386,0,1,0,1.386,1.386,1.386,1.386,0,0,0-1.386-1.386Z" transform="translate(-124.328 -296.622)" fill="#000e6a"/>
  <path id="Path_4" data-name="Path 4" d="M172.424,57.962a.231.231,0,0,1-.222-.165,1.387,1.387,0,0,0-2.657,0,.231.231,0,1,1-.443-.132,1.849,1.849,0,0,1,3.544,0,.231.231,0,0,1-.156.283A.241.241,0,0,1,172.424,57.962Zm-2.707-1.62a.23.23,0,0,1-.163-.068l-1.62-1.62a.231.231,0,1,1,.327-.327l1.621,1.621a.231.231,0,0,1-.163.395Zm1.158,5.084a.231.231,0,0,1-.231-.231V58.886a.231.231,0,0,1,.462,0V61.2a.23.23,0,0,1-.231.231Zm7.392-12.008h-.925a.23.23,0,0,1-.231-.231v-.925a.23.23,0,0,1,.231-.231h.925a.23.23,0,0,1,.231.231v.925a.23.23,0,0,1-.231.231Zm-.693-.462h.462v-.462h-.462Z" transform="translate(-163.019 -48.031)" fill="#000e6a"/>
  <path id="Path_5" data-name="Path 5" d="M59.521,162.039H32.261a.231.231,0,0,1-.231-.231V144.253a.231.231,0,0,1,.231-.231h27.26a.231.231,0,0,1,.231.231v17.558A.231.231,0,0,1,59.521,162.039Zm-27.03-.462h26.8V144.484h-26.8Z" transform="translate(-31.105 -141.252)" fill="#000e6a"/>
  <path id="Path_6" data-name="Path 6" d="M29.371,82.336H.263A.231.231,0,0,1,.032,82.1V80.257a.231.231,0,0,1,.231-.231H29.371a.23.23,0,0,1,.231.231v1.848a.231.231,0,0,1-.231.231ZM.494,81.874H29.14V80.488H.494Z" transform="translate(-0.032 -79.104)" fill="#000e6a"/>
  <path id="Path_7" data-name="Path 7" d="M74.6,112.486H48.261a.231.231,0,1,1,0-.462H74.6a.231.231,0,1,1,0,.462Zm-6.931,24.488a.234.234,0,0,1-.1-.025l-6.238-3.116a.231.231,0,0,1,.207-.414l6.238,3.116a.231.231,0,1,1-.1.437Zm1.848,0a.233.233,0,0,1-.1-.025l-8.086-4.043a.231.231,0,0,1,.207-.414l8.086,4.043a.231.231,0,1,1-.1.437Z" transform="translate(-46.643 -110.179)" fill="#000e6a"/>
  <path id="Path_8" data-name="Path 8" d="M240.419,824.484H238.57a.231.231,0,0,1,0-.462h1.848a.231.231,0,0,1,0,.462Zm-14.323,0a.231.231,0,0,1-.1-.438l6.233-3.116a.231.231,0,1,1,.207.414L226.2,824.46a.235.235,0,0,1-.1.024Zm-1.848,0a.231.231,0,0,1-.1-.438L232.229,820a.231.231,0,1,1,.207.414l-8.086,4.043a.234.234,0,0,1-.1.025Z" transform="translate(-217.547 -797.689)" fill="#000e6a"/>
  <path id="Path_9" data-name="Path 9" d="M226.1,758.454H224.25a.231.231,0,0,1,0-.462H226.1a.231.231,0,0,1,0,.462Zm5.776-3.811a.23.23,0,0,1-.231-.231v-2.195a.231.231,0,0,1,.462,0v2.195a.23.23,0,0,1-.231.233Zm.925,0a.23.23,0,0,1-.231-.231v-2.195a.231.231,0,0,1,.462,0v2.195a.231.231,0,0,1-.231.233Zm0,3.811a.231.231,0,0,1-.231-.231v-2.888a.231.231,0,0,1,.462,0v2.888a.231.231,0,0,1-.231.231Z" transform="translate(-217.55 -731.658)" fill="#000e6a"/>
  <path id="Path_10" data-name="Path 10" d="M489.156,960.434h-.925a.231.231,0,1,1,0-.462h.925a.231.231,0,1,1,0,.462Z" transform="translate(-473.909 -933.638)" fill="#000e6a"/>
  <path id="Path_11" data-name="Path 11" d="M488.233,214.659a.231.231,0,0,1-.231-.231V211.54a.231.231,0,0,1,.462,0v2.888a.231.231,0,0,1-.23.231Zm.462-7.392a.23.23,0,0,1-.231-.231V192.251a.231.231,0,1,1,.462,0v14.785a.231.231,0,0,1-.23.231Zm2.541-5.544a.231.231,0,0,1-.231-.231v-7.854a.231.231,0,0,1,.462,0v7.854a.23.23,0,0,1-.23.23Z" transform="translate(-473.91 -187.864)" fill="#000e6a"/>
  <path id="Path_12" data-name="Path 12" d="M601,512.462h-8.783a.231.231,0,1,1,0-.462H601a.231.231,0,0,1,0,.462Z" transform="translate(-574.899 -498.603)" fill="#000e6a"/>
  <path id="Path_13" data-name="Path 13" d="M601,592.458h-8.783a.231.231,0,1,1,0-.462H601a.231.231,0,0,1,0,.462Z" transform="translate(-574.899 -576.289)" fill="#000e6a"/>
  <path id="Path_14" data-name="Path 14" d="M631.157,624.454h-6.931a.231.231,0,0,1,0-.462h6.931a.231.231,0,1,1,0,.462Z" transform="translate(-605.975 -607.362)" fill="#000e6a"/>
  <path id="Path_15" data-name="Path 15" d="M676.382,656.454h-4.155a.231.231,0,0,1,0-.462h4.155a.231.231,0,0,1,0,.462Z" transform="translate(-652.587 -638.437)" fill="#000e6a"/>
  <path id="Path_16" data-name="Path 16" d="M121.035,592.458h-8.783a.231.231,0,1,1,0-.462h8.783a.231.231,0,0,1,0,.462Z" transform="translate(-108.79 -576.289)" fill="#000e6a"/>
  <path id="Path_17" data-name="Path 17" d="M151.186,624.454h-6.931a.231.231,0,0,1,0-.462h6.931a.231.231,0,1,1,0,.462Z" transform="translate(-139.867 -607.362)" fill="#000e6a"/>
  <path id="Path_18" data-name="Path 18" d="M196.409,656.454h-4.155a.231.231,0,1,1,0-.462h4.155a.231.231,0,0,1,0,.462Z" transform="translate(-186.475 -638.437)" fill="#000e6a"/>
  <path id="Path_19" data-name="Path 19" d="M624.223,355.244a.23.23,0,0,1-.163-.395l2.773-2.772a.231.231,0,0,1,.327.327l-2.773,2.773A.23.23,0,0,1,624.223,355.244Z" transform="translate(-605.973 -343.234)" fill="#000e6a"/>
  <path id="Path_20" data-name="Path 20" d="M721.6,353.857a.23.23,0,0,1-.163-.068l-1.386-1.386a.231.231,0,1,1,.327-.327l1.386,1.386a.231.231,0,0,1-.163.395Z" transform="translate(-699.195 -343.232)" fill="#000e6a"/>
  <path id="Path_21" data-name="Path 21" d="M768.216,276.171a.231.231,0,0,1-.163-.395l3.7-3.7a.231.231,0,1,1,.327.327l-3.7,3.7a.23.23,0,0,1-.163.068Z" transform="translate(-745.808 -265.547)" fill="#000e6a"/>
  <path id="Path_22" data-name="Path 22" d="M896.207,273.4a.231.231,0,0,1-.231-.231v-.924a.231.231,0,1,1,.462,0v.924a.231.231,0,0,1-.23.231Z" transform="translate(-870.101 -265.547)" fill="#000e6a"/>
  <path id="Path_23" data-name="Path 23" d="M865.133,272.473h-.925a.231.231,0,0,1,0-.462h.925a.231.231,0,0,1,0,.462Z" transform="translate(-839.031 -265.548)" fill="#000e6a"/>
</svg>
