<svg xmlns="http://www.w3.org/2000/svg" width="33.107" height="30.377" viewBox="0 0 33.107 30.377">
  <g id="savings-dollar-svgrepo-com" transform="translate(1.003)" opacity="0.7">
    <path id="Path_39" data-name="Path 39" d="M13.016,46.671,8.2,39.419a.78.78,0,0,1,.216-1.085l3.042-1.95a.786.786,0,0,1,1.066.208l4.915,7.151a.78.78,0,0,1-.208,1.085L14.1,46.88a.78.78,0,0,1-1.085-.216Z" transform="translate(-8.067 -17.64)" fill="none" stroke="#c80050" stroke-linecap="round" stroke-width="2"/>
    <path id="Path_40" data-name="Path 40" d="M15.76,36.067l5.076-3.186a1.41,1.41,0,0,1,1.1-.176c1.8.461,7.216,1.95,9.213,2.652a2.16,2.16,0,0,1,1.5,2.986,2.4,2.4,0,0,1-2.964.923l-.357-.13-3.55-1.512" transform="translate(-10.758 -16.382)" fill="none" stroke="#c80050" stroke-linecap="round" stroke-width="2"/>
    <path id="Path_41" data-name="Path 41" d="M21.81,42.382l1.658-.949,9.381,2.6a.689.689,0,0,0,.572-.091c1.3-.846,6.963-4.59,9.752-6.56a1.561,1.561,0,0,0,.2-2.6,2.015,2.015,0,0,0-2.411-.216c-.972.546-3.686,2.562-3.686,2.562" transform="translate(-12.875 -16.942)" fill="none" stroke="#c80050" stroke-linecap="round" stroke-width="2"/>
    <path id="Path_42" data-name="Path 42" d="M40.04,13.174a3.9,3.9,0,0,0-3.64-2.347c-3.283,0-3.407,2.347-3.407,2.347s-.495,2.9,3.524,3.205c4.18.319,3.524,3.205,3.524,3.205a3.482,3.482,0,0,1-3.524,2.665c-3.1.156-4.057-3.1-4.057-3.1" transform="translate(-16.601 -8.743)" fill="none" stroke="#c80050" stroke-width="2"/>
    <line id="Line_22" data-name="Line 22" y2="15.915" transform="translate(19.799)" fill="none" stroke="#c80050" stroke-width="2"/>
  </g>
</svg>
