<svg id="client-implemented-red-icon.e3ded0d011b1db42be9348c78645d7a3" xmlns="http://www.w3.org/2000/svg" width="22.607" height="22.609" viewBox="0 0 22.607 22.609">
  <path id="Path_50" data-name="Path 50" d="M130.253,130.25h-18.5V111.757h8.218V109.7H109.7v22.607h22.607v-8.221h-2.054Z" transform="translate(-109.7 -109.697)" fill="#3f4a96"/>
  <path id="Path_51" data-name="Path 51" d="M224.539,123.053h2.054a5.139,5.139,0,1,1,10.278,0h2.054a7.2,7.2,0,0,0-4.13-6.507,4.111,4.111,0,1,0-6.125,0,7.2,7.2,0,0,0-4.13,6.507Zm7.193-11.3a2.054,2.054,0,1,1-2.054,2.054A2.054,2.054,0,0,1,231.731,111.753ZM219.4,113.807h6.164v2.054H219.4Zm0,11.3h16.439v2.054H219.4Zm0-7.193h4.111v2.054H219.4Z" transform="translate(-216.318 -109.694)" fill="#3f4a96"/>
</svg>
