<svg xmlns="http://www.w3.org/2000/svg" width="15.574" height="15.576" viewBox="0 0 15.574 15.576">
  <g id="Group_46" data-name="Group 46" transform="translate(0)">
    <path id="Path_79" data-name="Path 79" d="M-1389.035,1006.973a8.844,8.844,0,0,1-.949-.249,3.44,3.44,0,0,1-2.183-3.139c0-.309,0-.618,0-.927a.869.869,0,0,1,.862-.878.874.874,0,0,1,.869.873,10.4,10.4,0,0,0,.036,1.167,1.679,1.679,0,0,0,1.626,1.416c1.343.012,2.685,0,4.028.005q2.326,0,4.651,0a1.7,1.7,0,0,0,1.717-1.331,3.72,3.72,0,0,0,.05-.679c.008-.2,0-.405,0-.608a.86.86,0,0,1,.746-.83.86.86,0,0,1,.939.582l.045.127v1.338a.638.638,0,0,0-.028.1,3.457,3.457,0,0,1-2.515,2.908c-.194.052-.393.084-.59.125Z" transform="translate(1392.17 -991.396)" fill="#ffffff"/>
    <path id="Path_80" data-name="Path 80" d="M-1303.492,755.351v-.176q0-3.984,0-7.967a.92.92,0,0,1,.27-.73.82.82,0,0,1,.9-.181.82.82,0,0,1,.552.734c.008.081.006.162.006.243q0,3.946,0,7.891v.222c.065-.06.1-.094.14-.13.613-.613,1.222-1.229,1.84-1.837a.863.863,0,0,1,1.4.24.87.87,0,0,1-.213,1.014q-.959.965-1.924,1.925-.715.715-1.43,1.43a.874.874,0,0,1-1.36,0q-1.672-1.671-3.344-3.344a.871.871,0,0,1-.115-1.193.864.864,0,0,1,1.311-.058q.913.9,1.816,1.817a.683.683,0,0,1,.085.144Z" transform="translate(1310.417 -746.233)" fill="#ffffff"/>
  </g>
</svg>
