<svg xmlns="http://www.w3.org/2000/svg" width="26.544" height="32.635" viewBox="0 0 26.544 32.635">
  <g id="star-fall-svgrepo-com" transform="translate(1.018 0.99)" opacity="0.7">
    <path id="Path_43" data-name="Path 43" d="M10.749,7.916c-2.092.836-3.14,1.254-3.264,2.12s.748,1.6,2.5,3.091l.453.384a3.265,3.265,0,0,1,.891.919,3.388,3.388,0,0,1,.2,1.283l.037.6c.143,2.331.214,3.495.972,3.9s1.7-.227,3.581-1.482l.487-.321a3.058,3.058,0,0,1,1.109-.584,3.059,3.059,0,0,1,1.235.214l.564.156c2.18.6,3.27.907,3.865.289s.3-1.748-.292-4.006m.513-3.522c1.2-1.956,1.807-2.935,1.416-3.718s-1.514-.855-3.762-.994l-.582-.036A3.064,3.064,0,0,1,19.446,6a3.254,3.254,0,0,1-.889-.92l-.371-.469C16.75,2.793,16.032,1.89,15.193,2.025s-1.235,1.22-2.031,3.391" transform="translate(-2.149 -2.012)" fill="none" stroke="#cb0c58" stroke-linecap="round" stroke-width="2"/>
    <path id="Path_44" data-name="Path 44" d="M9.283,7.241c-3.579,2.618-6.32,7.625-4.9,16.493,1.255-3.7,5.037-6.657,9.262-8.082" transform="translate(-4 0.78)" fill="none" stroke="#cb0c58" stroke-linecap="round" stroke-linejoin="round" stroke-width="2"/>
    <path id="Path_45" data-name="Path 45" d="M11.5,16a7.89,7.89,0,0,0,2.17,2.865A7.888,7.888,0,0,0,17.2,19.5a7.89,7.89,0,0,0-2.865,2.166,7.888,7.888,0,0,0-.631,3.535,7.89,7.89,0,0,0-2.166-2.865A7.888,7.888,0,0,0,8,21.7a7.889,7.889,0,0,0,2.865-2.166A7.887,7.887,0,0,0,11.5,16Z" transform="translate(-1.868 5.448)" fill="none" stroke="#cb0c58" stroke-linejoin="round" stroke-width="2"/>
    <path id="Path_46" data-name="Path 46" d="M19.8,15a5.259,5.259,0,0,1-1.443,1.91,5.259,5.259,0,0,1-2.352.42,5.259,5.259,0,0,1,1.91,1.443,5.259,5.259,0,0,1,.42,2.352,5.259,5.259,0,0,1,1.443-1.91,5.259,5.259,0,0,1,2.352-.42,5.259,5.259,0,0,1-1.91-1.443A5.259,5.259,0,0,1,19.8,15Z" transform="translate(2.396 4.915)" fill="none" stroke="#cb0c58" stroke-linejoin="round" stroke-width="2"/>
  </g>
</svg>
