<svg id="test-svgrepo-com" xmlns="http://www.w3.org/2000/svg" width="26.666" height="26.671" viewBox="0 0 26.666 26.671">
  <path id="Path_24" data-name="Path 24" d="M2.5,13.336A10.834,10.834,0,0,1,13.741,2.507a1.25,1.25,0,0,0,.091-2.5A13.335,13.335,0,1,0,25.56,18.665a1.251,1.251,0,0,0-2.292-1q-.169.384-.366.755A10.834,10.834,0,0,1,2.5,13.335ZM19.568,1.544A1.251,1.251,0,0,0,18.4,3.754q.36.19.7.405a1.251,1.251,0,0,0,1.334-2.117q-.423-.265-.866-.5Zm5.058,4.7a1.251,1.251,0,1,0-2.117,1.332q.218.343.407.7A1.25,1.25,0,1,0,25.125,7.1Q24.891,6.662,24.625,6.239Zm2.035,6.6a1.251,1.251,0,0,0-2.5.093q.015.375,0,.75a1.251,1.251,0,0,0,2.5.078q.014-.46,0-.92Z" transform="translate(-0.002 0)" fill="#007582"/>
  <path id="Path_25" data-name="Path 25" d="M16.955,5.366a1.25,1.25,0,0,1,0,1.767l-7.5,7.5a1.25,1.25,0,0,1-1.767,0L4.355,11.3A1.25,1.25,0,0,1,6.121,9.534l2.45,2.45,6.619-6.617a1.25,1.25,0,0,1,1.767,0Z" transform="translate(2.677 3.336)" fill="#007582"/>
</svg>
