<svg id="Group_66" data-name="Group 66" xmlns="http://www.w3.org/2000/svg" width="10.732" height="13.802" viewBox="0 0 10.732 13.802">
  <path id="Path_80" data-name="Path 80" d="M776.819,121.523h-7.171a.932.932,0,0,0-.1-.028,2.017,2.017,0,0,1-1.676-1.949q-.008-4.264,0-8.529a1.925,1.925,0,0,1,.607-1.395.891.891,0,0,1,.091-.068c0,.165,0,.308,0,.452a2.01,2.01,0,0,0,1.934,1.943q2.729.022,5.458,0a2,2,0,0,0,1.908-1.717c.028-.219.027-.443.039-.677.039.034.07.058.1.085a1.944,1.944,0,0,1,.588,1.39q.007,4.251,0,8.5a2.008,2.008,0,0,1-1.468,1.912C777.026,121.473,776.922,121.5,776.819,121.523Zm-6.281-3.293c.071.1.13.183.191.265a.405.405,0,1,0,.658-.47c-.095-.136-.19-.272-.291-.4a.121.121,0,0,1,0-.176c.105-.134.2-.274.3-.415a.4.4,0,0,0-.083-.583.407.407,0,0,0-.577.117l-.195.266c-.074-.1-.135-.19-.2-.275a.4.4,0,1,0-.655.472c.1.144.208.282.3.429a.167.167,0,0,1,0,.148c-.1.151-.208.292-.309.44a.4.4,0,1,0,.652.473C770.4,118.43,770.459,118.338,770.538,118.229Zm-.022-3.913c-.059-.116-.106-.213-.157-.306a.4.4,0,0,0-.721.358c.139.291.282.58.434.864a.393.393,0,0,0,.663.079c.365-.425.721-.858,1.079-1.289a.4.4,0,0,0-.222-.656.394.394,0,0,0-.407.149C770.967,113.776,770.749,114.038,770.516,114.316Zm4.766-.315h-1.13a.407.407,0,1,0-.006.808h2.274a.406.406,0,1,0,.006-.808C776.044,114,775.663,114,775.282,114Zm0,3.965h1.144a.407.407,0,0,0,.451-.394.412.412,0,0,0-.449-.414q-1.144,0-2.288,0a.412.412,0,0,0-.444.4.4.4,0,0,0,.442.4Z" transform="translate(-767.868 -107.721)" fill="#585b6d"/>
  <path id="Path_81" data-name="Path 81" d="M813.646,62.067h-2.56a1.215,1.215,0,0,1-1.294-1.3,9.212,9.212,0,0,1,.029-1.129,1.161,1.161,0,0,1,1.143-.99q2.682-.01,5.363,0a1.148,1.148,0,0,1,1.141.99,6.757,6.757,0,0,1,0,1.409,1.16,1.16,0,0,1-1.185,1.019C815.407,62.07,814.527,62.066,813.646,62.067Z" transform="translate(-808.28 -58.642)" fill="#585b6d"/>
</svg>
