<svg id="Group_62" data-name="Group 62" xmlns="http://www.w3.org/2000/svg" width="16.287" height="17.432" viewBox="0 0 16.287 17.432">
  <path id="Path_1" data-name="Path 1" d="M860.868,338.025a1.669,1.669,0,0,1-.033-.234c0-1.4,0-2.8,0-4.206a1.6,1.6,0,0,1,.782-1.474,1.421,1.421,0,0,1,.752-.176c1.363,0,2.726.008,4.088,0a1.493,1.493,0,0,1,1.523,1.429c.021.26.011.522.012.783q0,1.805,0,3.61c0,.09,0,.181,0,.271Z" transform="translate(-851.707 -320.594)" fill="#585b6d"/>
  <path id="Path_2" data-name="Path 2" d="M662.392,85.131V97.207h7.2v.983h-8.19V84.139h13.029v4.589h-.975v-3.6Z" transform="translate(-661.405 -84.139)" fill="#585b6d"/>
  <path id="Path_3" data-name="Path 3" d="M885.5,206.688A2.705,2.705,0,1,1,882.767,204,2.7,2.7,0,0,1,885.5,206.688Z" transform="translate(-870.084 -198.517)" fill="#585b6d"/>
  <path id="Path_4" data-name="Path 4" d="M713.987,156.545v-1.02h8.21v1.02Z" transform="translate(-711.581 -152.259)" fill="#585b6d"/>
  <path id="Path_5" data-name="Path 5" d="M713.911,298.5v-1.035h.186q3.362,0,6.723,0a.25.25,0,0,1,.252.146c.123.215.266.419.4.62a2.186,2.186,0,0,1-1.16.279c-2.054-.016-4.108-.007-6.162-.007Z" transform="translate(-711.509 -287.698)" fill="#585b6d"/>
  <path id="Path_6" data-name="Path 6" d="M714,227.615v-1.033h7.055c-.1.327-.206.654-.314.979-.008.024-.047.044-.076.052a.379.379,0,0,1-.1,0H714Z" transform="translate(-711.596 -220.065)" fill="#585b6d"/>
</svg>
