<svg xmlns="http://www.w3.org/2000/svg" width="16.258" height="16.545" viewBox="0 0 16.258 16.545">
  <g id="Group_64" data-name="Group 64" transform="translate(0 0)">
    <path id="Path_68" data-name="Path 68" d="M814.984-85.822c-.181-.088-.346-.151-.494-.242q-3.566-2.2-7.128-4.4c-.718-.445-.708-.883.036-1.29,2.34-1.282,4.687-2.549,7.025-3.834a1,1,0,0,1,1.053.011c2.341,1.278,4.69,2.543,7.033,3.818.767.417.775.849.023,1.319q-3.506,2.192-7.021,4.371A5.053,5.053,0,0,1,814.984-85.822Z" transform="translate(-806.832 95.735)" fill="#585b6d"/>
    <path id="Path_69" data-name="Path 69" d="M815.49,238.427a3.9,3.9,0,0,1-.5-.218q-3.611-2.225-7.214-4.463c-.652-.406-.592-.8.043-1.249a1.834,1.834,0,0,1,2.449.011c1.378,1,2.9,1.805,4.332,2.728a1.429,1.429,0,0,0,1.725,0c1.677-1.075,3.379-2.109,5.06-3.177a.613.613,0,0,1,.766-.028c.31.205.66.349.978.544.552.338.569.76.039,1.125-.395.272-.812.512-1.219.766q-2.943,1.833-5.888,3.665C815.884,238.24,815.689,238.324,815.49,238.427Z" transform="translate(-807.301 -221.882)" fill="#585b6d"/>
    <path id="Path_70" data-name="Path 70" d="M808.486,120.851c.17.1.325.183.475.276,1.756,1.085,3.516,2.163,5.263,3.262a1.342,1.342,0,0,0,1.586,0c1.758-1.115,3.535-2.2,5.294-3.313a.6.6,0,0,1,.766-.017c.247.172.533.285.792.441.577.347.6.787.039,1.153-.73.476-1.478.924-2.218,1.385-1.646,1.025-3.3,2.041-4.935,3.081a.89.89,0,0,1-1.076-.006c-2.354-1.47-4.721-2.92-7.08-4.382-.738-.457-.714-.886.061-1.318C807.795,121.22,808.14,121.038,808.486,120.851Z" transform="translate(-806.855 -114.223)" fill="#585b6d"/>
  </g>
</svg>
