<svg id="Group_65" data-name="Group 65" xmlns="http://www.w3.org/2000/svg" width="15.597" height="14.611" viewBox="0 0 15.597 14.611">
  <path id="Path_71" data-name="Path 71" d="M900.165-381.868v-.09q0-2.609,0-5.217a.457.457,0,0,0-.14-.351.445.445,0,0,0-.319-.122h-7v.081q0,.893,0,1.787a1.432,1.432,0,0,1-1.417,1.418h-1.865v.083q0,4.4,0,8.8a.439.439,0,0,0,.455.455h9.83a.442.442,0,0,0,.454-.458c0-.481,0-.962,0-1.442a.219.219,0,0,1,.04-.11c.149-.228.3-.454.452-.682s.3-.473.457-.71c.01-.015.022-.029.042-.056,0,.036,0,.057,0,.078q0,1.472,0,2.943a1.435,1.435,0,0,1-1.438,1.431h-9.856a1.433,1.433,0,0,1-1.437-1.437q0-4.681,0-9.362a.545.545,0,0,1,.207-.434c.135-.118.258-.25.385-.377l1.325-1.331q.735-.739,1.469-1.48a.6.6,0,0,1,.451-.189q3.729,0,7.459,0a1.431,1.431,0,0,1,1.431,1.329c0,.058.006.117.006.175q0,1.839,0,3.677a.282.282,0,0,1-.043.143c-.3.47-.6.937-.9,1.405-.011.017-.024.034-.035.051Z" transform="translate(-888.428 388.644)" fill="#585b6d"/>
  <path id="Path_72" data-name="Path 72" d="M1652.843-45.977a.777.777,0,0,1-.128.43l-3.243,5.041c-.1.153-.2.305-.295.459a.872.872,0,0,1-.4.343q-.382.164-.762.332a.194.194,0,0,0-.071.06c-.035.047-.063.1-.1.146a.131.131,0,0,1-.183.039.132.132,0,0,1-.038-.179l0-.006a.651.651,0,0,0,.115-.525c0-.238-.012-.477.006-.713a.746.746,0,0,1,.121-.324q1.767-2.759,3.543-5.513a.775.775,0,0,1,.876-.334A.775.775,0,0,1,1652.843-45.977Z" transform="translate(-1637.738 51.193)" fill="#585b6d"/>
  <path id="Path_73" data-name="Path 73" d="M1405.057,278.463h1.332a.289.289,0,1,1,.006.576h-2.676a.289.289,0,0,1-.212-.5.291.291,0,0,1,.219-.082Z" transform="translate(-1396.726 -269.794)" fill="#585b6d"/>
  <path id="Path_74" data-name="Path 74" d="M1405.1,107.036c-.45,0-.9,0-1.351,0a.283.283,0,0,1-.285-.258.286.286,0,0,1,.221-.309.358.358,0,0,1,.084-.008h2.67a.288.288,0,0,1,.089.565.4.4,0,0,1-.1.01Z" transform="translate(-1396.766 -100.027)" fill="#585b6d"/>
  <path id="Path_75" data-name="Path 75" d="M1098.9,278.488h1.26a.289.289,0,1,1,0,.577h-2.534a.291.291,0,0,1-.276-.15.272.272,0,0,1,.006-.29.279.279,0,0,1,.256-.137Z" transform="translate(-1094.6 -269.819)" fill="#585b6d"/>
  <path id="Path_76" data-name="Path 76" d="M1099.089,450.874h-1.266a.291.291,0,0,1-.313-.285.285.285,0,0,1,.251-.291.651.651,0,0,1,.084,0h2.493a.308.308,0,0,1,.277.124.288.288,0,0,1-.2.452.733.733,0,0,1-.091,0h-1.233Z" transform="translate(-1094.794 -439.392)" fill="#585b6d"/>
  <path id="Path_77" data-name="Path 77" d="M1098.889,107.02H1097.6a.288.288,0,0,1-.226-.464.287.287,0,0,1,.244-.111h2.56a.288.288,0,0,1,.22.479.288.288,0,0,1-.232.1C1099.738,107.019,1099.313,107.02,1098.889,107.02Z" transform="translate(-1094.593 -100.01)" fill="#585b6d"/>
  <path id="Path_78" data-name="Path 78" d="M1406.172,450.326v.576c-.014,0-.032,0-.051,0h-2.391a.288.288,0,0,1-.3-.387.279.279,0,0,1,.242-.189.692.692,0,0,1,.091,0h2.4Z" transform="translate(-1396.724 -439.423)" fill="#585b6d"/>
  <path id="Path_79" data-name="Path 79" d="M1924.717,65.451a.184.184,0,0,1-.168-.1.191.191,0,0,1,.008-.209q.2-.32.41-.64.653-1.016,1.306-2.032a.215.215,0,0,1,.181-.119.181.181,0,0,1,.172.1.191.191,0,0,1-.007.209c-.116.182-.234.364-.351.546q-.685,1.065-1.37,2.131A.211.211,0,0,1,1924.717,65.451Z" transform="translate(-1911.058 -56.494)" fill="#585b6d"/>
</svg>
