<svg id="Group_63" data-name="Group 63" xmlns="http://www.w3.org/2000/svg" width="11.704" height="16.786" viewBox="0 0 11.704 16.786">
  <path id="Path_26" data-name="Path 26" d="M768.141,121.016a.829.829,0,0,1-.867.48c-3.524-.01-7.048-.006-10.572-.006h-.264V104.71h6.535v.222q0,2.089,0,4.177a.665.665,0,0,0,.754.752h4.414Zm-6.5-9.863q-1.613,0-3.227,0a.648.648,0,1,0,.013,1.292q3.216,0,6.432,0a.648.648,0,1,0-.013-1.291Q763.238,111.152,761.636,111.153Zm.025,2.584q-1.624,0-3.248,0a.647.647,0,1,0,.006,1.291c.466,0,.932,0,1.4,0q2.506,0,5.012,0a.663.663,0,0,0,.665-.381.643.643,0,0,0-.629-.911C763.8,113.735,762.729,113.737,761.661,113.737Zm-.048,3.876c1.09,0,2.18,0,3.27,0a.646.646,0,1,0-.005-1.29c-.287,0-.574,0-.86,0q-2.785,0-5.571,0a.665.665,0,0,0-.666.381.643.643,0,0,0,.628.912C759.476,117.616,760.544,117.614,761.613,117.614Zm-1.911-9.045c-.437,0-.874,0-1.311,0a.646.646,0,1,0,0,1.29q1.3.005,2.6,0a.646.646,0,1,0,0-1.29C760.562,108.567,760.132,108.569,759.7,108.569Z" transform="translate(-756.437 -104.71)" fill="#585b6d"/>
  <path id="Path_27" data-name="Path 27" d="M896.1,116.084H892.7v-3.392Z" transform="translate(-884.863 -112.233)" fill="#585b6d"/>
</svg>
