<svg xmlns="http://www.w3.org/2000/svg" width="25.455" height="30.711" viewBox="0 0 25.455 30.711">
  <path id="admin-svgrepo-com" d="M165.807,7.046v9.048c0,6.756,5.984,10,10.791,12.614l.129.068.13-.068c4.807-2.61,10.791-5.858,10.791-12.614V7.046L176.728,1.9l-10.92,5.144Zm10.92,23.664a.918.918,0,0,1-.432-.108l-.558-.3C170.783,27.607,164,23.926,164,16.095V6.472a.906.906,0,0,1,.519-.818L176.344.086a.893.893,0,0,1,.768,0l11.825,5.569a.906.906,0,0,1,.519.818V16.1c0,7.831-6.786,11.513-11.736,14.2l-.558.3a.92.92,0,0,1-.432.108Zm7.472-8.758h-5.012l-1.465-1.463V19.149h-1.868V17.28h-1.339l-.935-.935h-.092a5.108,5.108,0,1,1,5.106-5.107v.091l5.607,5.609v5.01Zm-4.265-1.807h2.459v-2.46L176.707,12l.063-.6a3.294,3.294,0,1,0-3.285,3.135l.757-.085,1.021,1.018h2.4v1.868h1.868v2.4l.407.4Zm-5.013-8.855a1.355,1.355,0,1,1-1.355-1.355,1.355,1.355,0,0,1,1.355,1.355" transform="translate(-164 0.001)" fill="#34408f" fill-rule="evenodd"/>
</svg>
