<svg xmlns="http://www.w3.org/2000/svg" width="36.024" height="26.677" viewBox="0 0 36.024 26.677">
  <g id="users-svgrepo-com" transform="translate(0 1)" opacity="0.7">
    <path id="Path_26" data-name="Path 26" d="M18.472,9.174A4.174,4.174,0,1,1,14.3,5a4.174,4.174,0,0,1,4.174,4.174Z" transform="translate(3.713 -5)" fill="none" stroke="#c80050" stroke-linecap="round" stroke-linejoin="round" stroke-width="2" fill-rule="evenodd"/>
    <path id="Path_27" data-name="Path 27" d="M24.445,18.249c0,3.163-3.738,5.741-8.347,5.741S7.75,21.419,7.75,18.249s3.738-5.74,8.347-5.74S24.445,15.079,24.445,18.249Z" transform="translate(1.915 0.687)" fill="none" stroke="#c80050" stroke-linecap="round" stroke-linejoin="round" stroke-width="2" fill-rule="evenodd"/>
    <path id="Path_28" data-name="Path 28" d="M22.058,10.613a2.5,2.5,0,1,1-2.5-2.46,2.5,2.5,0,0,1,2.5,2.46Z" transform="translate(8.958 -2.612)" fill="none" stroke="#c80050" stroke-linecap="round" stroke-linejoin="round" stroke-width="2" fill-rule="evenodd"/>
    <path id="Path_29" data-name="Path 29" d="M5.1,10.613a2.5,2.5,0,1,0,2.5-2.46,2.5,2.5,0,0,0-2.5,2.46Z" transform="translate(-0.092 -2.612)" fill="none" stroke="#c80050" stroke-linecap="round" stroke-linejoin="round" stroke-width="2" fill-rule="evenodd"/>
    <path id="Path_30" data-name="Path 30" d="M32.067,20.908a1.318,1.318,0,1,0-.236,2.626Zm4.891-2.789,1.31.144a1.313,1.313,0,0,0,0-.287ZM31.831,12.7a1.318,1.318,0,1,0,.236,2.626ZM8.694,23.532a1.318,1.318,0,1,0-.231-2.625ZM3.568,18.119l-1.31-.144a1.318,1.318,0,0,0,0,.287Zm4.895-2.788A1.318,1.318,0,1,0,8.7,12.7Zm23.373,8.2a5.943,5.943,0,0,0,6.436-5.271l-2.62-.287a3.305,3.305,0,0,1-3.581,2.933Zm6.436-5.558a5.943,5.943,0,0,0-6.44-5.272l.236,2.626a3.305,3.305,0,0,1,3.581,2.932ZM8.463,20.908a3.305,3.305,0,0,1-3.585-2.933l-2.62.287a5.943,5.943,0,0,0,6.436,5.271ZM4.878,18.262a3.305,3.305,0,0,1,3.585-2.932L8.7,12.705a5.943,5.943,0,0,0-6.436,5.269Z" transform="translate(-2.251 0.817)" fill="#c80050"/>
  </g>
</svg>
